<?xml version="1.0" standalone="no"?>
<!DOCTYPE svg PUBLIC "-//W3C//DTD SVG 1.1//EN" "http://www.w3.org/Graphics/SVG/1.1/DTD/svg11.dtd" >
<svg>
<metadata>
Created by FontForge 20090622 at Thu Nov 21 05:07:02 2019
 By deploy user
(URW)++,Copyright 2016 by (URW)++ Design &#38; Development
</metadata>
<defs>
<font id="URWDIN-Regular" horiz-adv-x="1106" >
  <font-face 
    font-family="URW DIN"
    font-weight="400"
    font-stretch="normal"
    units-per-em="2048"
    panose-1="0 0 0 0 0 0 0 0 0 0"
    ascent="1536"
    descent="-512"
    x-height="1029"
    cap-height="1462"
    bbox="-209 -497 2463 2079"
    underline-thickness="120"
    underline-position="-238"
    unicode-range="U+0020-U+FB04"
  />
<missing-glyph horiz-adv-x="410" 
d="M41 0v1462h328v-1462h-328zM328 41v1380h-246v-1380h246z" />
    <glyph glyph-name="fi" unicode="fi" horiz-adv-x="1202" 
d="M227 895h-128v134h128v166q0 158 68 217q32 28 80 39t142 11h92v-132h-58q-100 0 -128 -28q-33 -33 -33 -127v-146h232v-134h-232v-895h-163v895zM860 1252v217h163v-217h-163zM860 0v1029h163v-1029h-163z" />
    <glyph glyph-name="fl" unicode="fl" horiz-adv-x="1277" 
d="M227 895h-128v134h128v166q0 158 68 217q32 28 80 39t142 11h92v-132h-58q-100 0 -128 -28q-33 -33 -33 -127v-146h232v-134h-232v-895h-163v895zM857 1462h163v-1135q0 -110 36.5 -150t136.5 -40h53v-137h-60q-201 0 -267 76q-62 72 -62 266v1120z" />
    <glyph glyph-name="ff" unicode="ff" horiz-adv-x="1304" 
d="M227 895h-128v134h128v166q0 158 68 217q32 28 80 39t141 11h85v-132h-50q-100 0 -128 -28q-33 -33 -33 -127v-146h202v-134h-202v-895h-163v895zM851 895h-128v134h128v166q0 158 68 217q32 28 80 39t142 11h92v-132h-58q-100 0 -128 -28q-33 -33 -33 -127v-146h232
v-134h-232v-895h-163v895z" />
    <glyph glyph-name="ffi" unicode="ffi" horiz-adv-x="1826" 
d="M227 895h-128v134h128v166q0 158 68 217q32 28 80 39t141 11h85v-132h-50q-100 0 -128 -28q-33 -33 -33 -127v-146h202v-134h-202v-895h-163v895zM851 895h-128v134h128v166q0 158 68 217q32 28 80 39t142 11h92v-132h-58q-100 0 -128 -28q-33 -33 -33 -127v-146h232
v-134h-232v-895h-163v895zM1484 1252v217h163v-217h-163zM1484 0v1029h163v-1029h-163z" />
    <glyph glyph-name="ffl" unicode="ffl" horiz-adv-x="1901" 
d="M227 895h-128v134h128v166q0 158 68 217q32 28 80 39t141 11h85v-132h-50q-100 0 -128 -28q-33 -33 -33 -127v-146h202v-134h-202v-895h-163v895zM851 895h-128v134h128v166q0 158 68 217q32 28 80 39t142 11h92v-132h-58q-100 0 -128 -28q-33 -33 -33 -127v-146h232
v-134h-232v-895h-163v895zM1482 1462h163v-1135q0 -110 36.5 -150t136.5 -40h54v-137h-60q-202 0 -268 76q-62 72 -62 266v1120z" />
    <glyph glyph-name=".notdef" horiz-adv-x="410" 
d="M41 0v1462h328v-1462h-328zM328 41v1380h-246v-1380h246z" />
    <glyph glyph-name="glyph1" horiz-adv-x="0" 
 />
    <glyph glyph-name="glyph2" horiz-adv-x="410" 
 />
    <glyph glyph-name="space" unicode=" " horiz-adv-x="410" 
 />
    <glyph glyph-name="exclam" unicode="!" horiz-adv-x="634" 
d="M249 392l-24 1070h184l-23 -1070h-137zM237 0v204h163v-204h-163z" />
    <glyph glyph-name="quotedbl" unicode="&#x22;" horiz-adv-x="840" 
d="M178 922l-11 540h169l-11 -540h-147zM516 922l-11 540h169l-12 -540h-146z" />
    <glyph glyph-name="numbersign" unicode="#" 
d="M288 587l31 239h-230l18 113h231l55 382h141l-55 -382h219l55 382h141l-55 -382h233l-18 -113h-234l-31 -239h230l-18 -113h-231l-51 -388h-141l51 388h-219l-51 -388h-141l51 388h-233l18 113h234zM429 587h219l31 239h-219z" />
    <glyph glyph-name="dollar" unicode="$" 
d="M48 230l132 87q97 -158 364 -158q177 0 263 75q72 62 72 166q0 119 -90 178q-43 28 -77 39t-196 49q-197 47 -297 124q-125 96 -125 278q0 126 64 219q50 72 124 108t197 47v221h162v-224q234 -29 331 -176l-130 -85q-89 127 -303 127q-142 0 -215 -68q-65 -61 -65 -157
q0 -105 75 -165t265 -104q145 -35 198 -53.5t108 -54.5q139 -91 139 -288q0 -349 -403 -392v-294h-162v291q-145 13 -230 48q-134 55 -201 162z" />
    <glyph glyph-name="percent" unicode="%" horiz-adv-x="1808" 
d="M90 976v181q0 164 69 238q78 85 238 85t233.5 -77.5t73.5 -245.5v-181q0 -164 -69 -238q-78 -85 -238 -85t-233.5 77.5t-73.5 245.5zM564 992v149q0 230 -167 230t-167 -230v-149q0 -230 167 -230t167 230zM1105 305v182q0 164 68 238q78 85 238 85t233.5 -77.5
t73.5 -245.5v-182q0 -164 -69 -238q-78 -85 -238 -85t-233 77.5t-73 245.5zM1578 321v150q0 230 -167 230t-167 -230v-150q0 -230 167 -230t167 230zM597 0l459 1462h155l-459 -1462h-155z" />
    <glyph glyph-name="ampersand" unicode="&#x26;" horiz-adv-x="1666" 
d="M605 802q-120 162 -155 231t-35 146q0 145 105 236q98 86 261 86q190 0 292 -108q86 -90 86 -220q0 -117 -71.5 -211.5t-244.5 -206.5l288 -383q103 138 146 299h162q-74 -244 -211 -413l206 -258h-200l-118 156q-98 -100 -236 -159.5t-272 -59.5q-193 0 -297 101
q-105 102 -105 275q0 208 192 357q68 53 207 132zM744 873q135 76 194 145t59 151q0 81 -48 134q-58 62 -163 62q-94 0 -150 -50q-59 -52 -59 -137q0 -45 15.5 -80.5t66.5 -106.5zM707 681q-119 -65 -181 -109q-150 -106 -150 -257q0 -109 67 -172q68 -63 191 -63
q103 0 195.5 43.5t193.5 140.5z" />
    <glyph glyph-name="quotesingle" unicode="'" horiz-adv-x="502" 
d="M178 922l-11 540h169l-11 -540h-147z" />
    <glyph glyph-name="parenleft" unicode="(" horiz-adv-x="890" 
d="M725 -173l-121 -75q-102 148 -173 294q-140 291 -140 660q0 267 73 489t240 465l121 -76q-93 -163 -151 -295q-113 -260 -113 -584q0 -335 129 -617q53 -118 135 -261z" />
    <glyph glyph-name="parenright" unicode=")" horiz-adv-x="890" 
d="M163 1584l122 76q101 -148 172 -295q140 -291 140 -659q0 -267 -73 -490t-239 -464l-122 75q93 164 151 296q113 259 113 583q0 335 -129 617q-53 117 -135 261z" />
    <glyph glyph-name="asterisk" unicode="*" 
d="M553 1056l-186 -306l-138 93l218 292l-338 71l42 155l333 -107l-15 335h168l-15 -335l334 107l41 -155l-338 -71l218 -292l-138 -93z" />
    <glyph glyph-name="plus" unicode="+" 
d="M71 677v134h409v417h145v-417h409v-134h-409v-417h-145v417h-409z" />
    <glyph glyph-name="comma" unicode="," horiz-adv-x="576" 
d="M116 -385l97 588h183l-138 -588h-142z" />
    <glyph glyph-name="hyphen" unicode="-" horiz-adv-x="974" 
d="M199 672v143h576v-143h-576z" />
    <glyph glyph-name="period" unicode="." horiz-adv-x="578" 
d="M204 0v204h170v-204h-170z" />
    <glyph glyph-name="slash" unicode="/" horiz-adv-x="837" 
d="M94 -44l488 1550h164l-488 -1550h-164z" />
    <glyph glyph-name="zero" unicode="0" 
d="M142 516v430q0 274 90 392q57 74 134 108t187 34q230 0 337 -165q74 -114 74 -369v-430q0 -274 -90 -392q-57 -74 -134 -108t-187 -34q-230 0 -337 165q-74 114 -74 369zM796 533v396q0 214 -49 301q-60 107 -194 107q-130 0 -186.5 -95t-56.5 -313v-396q0 -214 49 -301
q60 -107 194 -107q130 0 186.5 94.5t56.5 313.5z" />
    <glyph glyph-name="one" unicode="1" 
d="M499 0v1282l-252 -111l-53 135l358 156h117v-1462h-170z" />
    <glyph glyph-name="two" unicode="2" 
d="M114 0v113l404 527q115 149 168.5 265.5t53.5 218.5q0 214 -218 214q-97 0 -159 -55.5t-87 -163.5l-154 14q13 133 94 227q104 121 314 121q215 0 310 -126q70 -92 70 -238q0 -134 -56 -253t-223 -338l-293 -383h582v-143h-806z" />
    <glyph glyph-name="three" unicode="3" 
d="M349 702v137h123q120 0 194 69.5t74 181.5q0 101 -46 166q-59 82 -181 82q-89 0 -149 -46t-78 -129l-152 13q17 129 90 202q102 102 296 102q202 0 300 -110q90 -101 90 -276q0 -121 -43.5 -194t-147.5 -128q82 -38 120 -76q108 -107 108 -297q0 -179 -90 -287
q-108 -130 -345 -130q-243 0 -352 136q-54 67 -68 178l162 19q38 -190 254 -190q138 0 205 80q64 78 64 199q0 170 -125 250q-75 48 -170 48h-133z" />
    <glyph glyph-name="four" unicode="4" 
d="M700 0v271h-595v106l469 1085h179l-454 -1050h401v448h155v-448h145v-142h-145v-270h-155z" />
    <glyph glyph-name="five" unicode="5" 
d="M185 705l69 757h660v-143h-519l-48 -466q97 57 219 57q100 0 183 -37.5t132 -103.5q77 -105 77 -323q0 -225 -94 -332q-115 -132 -341 -132q-177 0 -280 80.5t-121 232.5l161 20q18 -92 81 -141t163 -49q127 0 194 80t67 231q0 159 -52 241q-58 93 -197 93
q-130 0 -231 -91z" />
    <glyph glyph-name="six" unicode="6" 
d="M448 869q58 36 152 36q188 0 288 -138q73 -101 73 -320q0 -252 -99 -353q-108 -112 -307 -112q-220 0 -326 132q-80 100 -80 332q0 118 22 199.5t87 203.5l327 613h190zM558 769q-124 0 -181.5 -77t-57.5 -245q0 -162 54 -239q58 -83 182 -83q121 0 178.5 78t57.5 244
q0 163 -54 239q-58 83 -179 83z" />
    <glyph glyph-name="seven" unicode="7" 
d="M296 0l466 1319h-592v143h770v-103l-463 -1359h-181z" />
    <glyph glyph-name="eight" unicode="8" 
d="M309 774q-54 40 -80 74q-63 84 -63 241q0 203 95 296q99 96 292 96q196 0 291.5 -96.5t95.5 -295.5q0 -118 -31 -187t-112 -128q97 -48 140 -133t43 -230q0 -220 -99 -319q-111 -111 -328 -111q-219 0 -323 105t-104 325q0 145 43 230t140 133zM556 1346
q-118 0 -173 -61.5t-55 -194.5t54.5 -195.5t170.5 -62.5t170.5 62.5t54.5 194.5q0 257 -222 257zM556 697q-135 0 -197.5 -69t-62.5 -218q0 -146 59 -213q64 -73 198 -73q133 0 195 69t62 217q0 146 -59 213q-64 74 -195 74z" />
    <glyph glyph-name="nine" unicode="9" 
d="M662 641q-84 -24 -157 -24q-148 0 -241 77q-63 53 -91 135t-28 215q0 234 100 334q103 102 308 102q217 0 322 -123q82 -97 82 -308q0 -111 -16 -178.5t-67 -168.5l-353 -702h-190zM554 1338q-239 0 -239 -294t236 -294t236 294t-233 294z" />
    <glyph glyph-name="colon" unicode=":" horiz-adv-x="578" 
d="M204 0v204h170v-204h-170zM204 827v204h170v-204h-170z" />
    <glyph glyph-name="semicolon" unicode=";" horiz-adv-x="577" 
d="M116 -385l97 588h183l-138 -588h-142zM218 827v204h170v-204h-170z" />
    <glyph glyph-name="less" unicode="&#x3c;" 
d="M290 749l648 -321v-156l-837 425v105l837 425v-157z" />
    <glyph glyph-name="equal" unicode="=" 
d="M100 515v130h906v-130h-906zM100 842v130h906v-130h-906z" />
    <glyph glyph-name="greater" unicode="&#x3e;" 
d="M816 749l-648 321v157l837 -425v-105l-837 -425v156z" />
    <glyph glyph-name="question" unicode="?" horiz-adv-x="1197" 
d="M519 388v72q0 118 34 186q37 72 158 178q88 77 117 116q57 79 57 166q0 102 -73.5 167.5t-188.5 65.5q-151 0 -234 -113q-41 -54 -70 -174l-158 27q33 164 109 255q124 148 358 148q221 0 333 -127q94 -106 94 -257q0 -152 -111 -271q-34 -36 -164 -148
q-67 -58 -96.5 -112.5t-29.5 -121.5v-57h-135zM506 0v204h163v-204h-163z" />
    <glyph glyph-name="at" unicode="@" horiz-adv-x="1839" 
d="M1229 1057h109l-106 -499q-14 -66 -14 -109q0 -88 94 -88q93 0 162 77q119 134 119 353q0 142 -54 266q-72 164 -246 244q-154 71 -347 71q-310 0 -494 -193q-201 -210 -201 -566q0 -357 200 -520q182 -148 503 -148q265 0 503 108l46 -102q-247 -125 -549 -125
q-390 0 -606 181q-232 194 -232 597q0 416 237 659q105 107 246 161q166 64 353 64q268 0 465 -117q177 -105 254 -298q53 -132 53 -284q0 -290 -177 -449q-106 -95 -250 -95q-93 0 -137 39.5t-50 129.5q-63 -92 -131.5 -132.5t-158.5 -40.5q-127 0 -195.5 74t-68.5 211
q0 235 132 406q114 148 289 148q83 0 134 -31.5t89 -106.5zM986 963q-122 0 -203 -133q-84 -136 -84 -298q0 -170 143 -170q130 0 219 148q85 143 85 282q0 78 -43.5 124.5t-116.5 46.5z" />
    <glyph glyph-name="A" unicode="A" horiz-adv-x="1229" 
d="M936 319h-641l-110 -319h-185l535 1462h161l535 -1462h-185zM893 460l-277 786l-277 -786h554z" />
    <glyph glyph-name="B" unicode="B" horiz-adv-x="1309" 
d="M213 0v1462h538q130 0 200 -27q110 -41 164 -138q53 -92 53 -213q0 -219 -173 -320q12 -7 18 -11q55 -33 77 -52.5t43 -53.5q63 -104 63 -251q0 -215 -129 -319q-53 -42 -117 -59.5t-170 -17.5h-567zM383 822h357q122 0 184 54q34 29 54 82.5t20 113.5q0 65 -22.5 119.5
t-61.5 83.5q-61 46 -174 46h-357v-499zM383 141h386q122 0 183 57q74 69 74 210q0 70 -22.5 130t-61.5 92q-60 51 -173 51h-386v-540z" />
    <glyph glyph-name="C" unicode="C" horiz-adv-x="1294" 
d="M984 363l160 -18q-9 -142 -92 -230q-127 -134 -385 -134q-276 0 -401 185q-48 70 -68 165.5t-20 248.5v300q0 173 26 269q87 330 465 330q272 0 390 -159q63 -84 70 -211l-157 -12q-12 88 -57 141q-84 98 -243 98q-194 0 -271 -148q-53 -101 -53 -317v-282
q0 -237 66 -341q78 -124 259 -124q133 0 214 62t97 177z" />
    <glyph glyph-name="D" unicode="D" horiz-adv-x="1388" 
d="M213 0v1462h466q241 -1 364 -104q90 -74 128.5 -178t38.5 -275v-348q0 -117 -14.5 -191.5t-50.5 -140.5q-63 -115 -176.5 -170t-289.5 -55h-466zM383 141h269q193 0 278 83q110 108 110 349v316q0 241 -110 349q-85 83 -278 83h-269v-1180z" />
    <glyph glyph-name="E" unicode="E" horiz-adv-x="1185" 
d="M214 0v1462h854v-143h-686v-507h585v-143h-585v-526h688v-143h-856z" />
    <glyph glyph-name="F" unicode="F" horiz-adv-x="1118" 
d="M214 0v1462h847v-143h-677v-519h575v-143h-575v-657h-170z" />
    <glyph glyph-name="G" unicode="G" horiz-adv-x="1357" 
d="M729 631v137h472v-229q0 -157 -27 -246q-50 -158 -185 -242q-115 -70 -297 -70q-191 0 -302 70q-116 73 -164 193t-48 336v299q0 174 26 270q91 330 477 330q280 0 401 -159q64 -84 71 -211l-156 -12q-13 87 -60 141q-86 98 -252 98q-203 0 -282 -148q-55 -102 -55 -317
v-283q0 -236 70 -341q82 -123 271 -123t277 120q37 51 52 109.5t15 150.5v127h-304z" />
    <glyph glyph-name="H" unicode="H" horiz-adv-x="1394" 
d="M213 0v1462h170v-650h627v650h170v-1462h-170v669h-627v-669h-170z" />
    <glyph glyph-name="I" unicode="I" horiz-adv-x="596" 
d="M213 0v1462h170v-1462h-170z" />
    <glyph glyph-name="J" unicode="J" horiz-adv-x="953" 
d="M580 1462h170v-890q0 -186 -10.5 -268.5t-42.5 -141.5q-96 -180 -352 -180q-208 0 -363 142l94 116q115 -115 258 -115q169 0 222 154q24 68 24 288v895z" />
    <glyph glyph-name="K" unicode="K" horiz-adv-x="1266" 
d="M215 0v1462h168v-800l628 800h200l-476 -590l525 -872h-196l-438 753l-243 -302v-451h-168z" />
    <glyph glyph-name="L" unicode="L" horiz-adv-x="1092" 
d="M213 0v1462h170v-1319h689v-143h-859z" />
    <glyph glyph-name="M" unicode="M" horiz-adv-x="1671" 
d="M213 0v1462h164l458 -955l459 955h164v-1462h-164v1129l-404 -830h-109l-404 830v-1129h-164z" />
    <glyph glyph-name="N" unicode="N" horiz-adv-x="1478" 
d="M213 0v1462h164l722 -1170v1170h165v-1462h-163l-722 1170v-1170h-166z" />
    <glyph glyph-name="O" unicode="O" horiz-adv-x="1384" 
d="M178 551v360q0 163 31 259q49 154 185 241q112 70 298 70t298 -71q117 -73 166.5 -188t49.5 -311v-360q0 -163 -30 -259q-49 -154 -186 -240q-112 -71 -298 -71t-298 70q-116 74 -166 189t-50 311zM1036 568v326q0 122 -18 196t-61 132q-87 116 -265 116
q-192 0 -279 -136q-36 -57 -50.5 -126t-14.5 -182v-326q0 -121 18 -195.5t61 -132.5q87 -116 265 -116q192 0 279 136q36 57 50.5 126t14.5 182z" />
    <glyph glyph-name="P" unicode="P" horiz-adv-x="1243" 
d="M384 568v-568h-170v1462h471q151 0 236 -33q234 -90 234 -413q0 -235 -125 -349q-58 -53 -138.5 -76t-206.5 -23h-301zM382 710h304q153 0 224 74q75 78 75 232q0 156 -73 230.5t-226 74.5h-304v-611z" />
    <glyph glyph-name="Q" unicode="Q" horiz-adv-x="1384" 
d="M1050 97q-6 -6 -11 -10q-128 -106 -346 -106q-187 0 -299 70q-116 74 -166 189t-50 311v360q0 163 31 259q49 154 185 241q112 70 298 70t298 -71q117 -73 166.5 -188t49.5 -311v-360q0 -125 -16 -203.5t-55 -147.5l167 -135l-86 -102zM922 200l-219 176l86 102l208 -167
q39 93 39 257v326q0 122 -18 196t-61 132q-87 116 -265 116q-192 0 -279 -136q-36 -57 -50.5 -126t-14.5 -182v-326q0 -121 18 -195.5t61 -132.5q87 -116 265 -116q145 0 230 76z" />
    <glyph glyph-name="R" unicode="R" horiz-adv-x="1322" 
d="M385 632v-632h-170v1462h501q131 0 212 -25t138 -82q104 -105 104 -301q0 -178 -73.5 -276.5t-228.5 -127.5l321 -650h-188l-300 632h-316zM383 773h336q144 0 210 66q71 71 71 207q0 141 -73 208t-226 67h-318v-548z" />
    <glyph glyph-name="S" unicode="S" horiz-adv-x="1186" 
d="M93 196l132 87q97 -158 363 -158q179 0 264 82q72 69 72 180q0 126 -89 188q-41 29 -74.5 40.5t-195.5 52.5q-197 50 -294 127q-124 99 -124 288q0 179 108 283q119 114 340 114q147 0 255.5 -47t166.5 -137l-130 -84q-89 126 -297 126q-141 0 -213 -74q-65 -67 -65 -172
q0 -112 74.5 -175t261.5 -110q147 -36 198 -55t106 -56q137 -94 137 -302q0 -186 -113 -290q-131 -122 -390 -122q-359 0 -493 214z" />
    <glyph glyph-name="T" unicode="T" horiz-adv-x="1135" 
d="M484 0v1319h-421v143h1010v-143h-419v-1319h-170z" />
    <glyph glyph-name="U" unicode="U" horiz-adv-x="1413" 
d="M207 1462h170v-925q0 -112 12 -174t42 -109q44 -68 108.5 -98.5t166.5 -30.5q138 0 210 56q68 54 94 130.5t26 225.5v925h170v-925q0 -155 -19 -237.5t-69 -148.5q-64 -82 -149 -122q-100 -47 -263 -47q-206 0 -318 80q-127 91 -162 237q-19 79 -19 238v925z" />
    <glyph glyph-name="V" unicode="V" horiz-adv-x="1163" 
d="M511 0l-488 1462h171l389 -1214l387 1214h171l-488 -1462h-142z" />
    <glyph glyph-name="W" unicode="W" horiz-adv-x="1794" 
d="M426 0l-368 1462h171l278 -1201l330 1201h120l330 -1201l278 1201h171l-368 -1462h-145l-326 1164l-325 -1164h-146z" />
    <glyph glyph-name="X" unicode="X" horiz-adv-x="1156" 
d="M480 771l-397 691h187l324 -567l310 567h179l-401 -717l428 -745h-187l-355 621l-339 -621h-180z" />
    <glyph glyph-name="Y" unicode="Y" horiz-adv-x="1090" 
d="M462 0v528l-461 934h180l366 -759l365 759h181l-461 -934v-528h-170z" />
    <glyph glyph-name="Z" unicode="Z" horiz-adv-x="1113" 
d="M104 0v121l677 1198h-640v143h830v-121l-677 -1198h709v-143h-899z" />
    <glyph glyph-name="bracketleft" unicode="[" horiz-adv-x="890" 
d="M332 -201v1813h392v-124h-227v-1566h227v-123h-392z" />
    <glyph glyph-name="backslash" unicode="\" horiz-adv-x="837" 
d="M742 -44h-164l-488 1550h164z" />
    <glyph glyph-name="bracketright" unicode="]" horiz-adv-x="890" 
d="M558 1612v-1813h-392v124h227v1566h-227v123h392z" />
    <glyph glyph-name="asciicircum" unicode="^" 
d="M553 1281l-288 -500h-189l431 692h91l431 -692h-189z" />
    <glyph glyph-name="underscore" unicode="_" horiz-adv-x="963" 
d="M-51 -358v120h1065v-120h-1065z" />
    <glyph glyph-name="grave" unicode="`" horiz-adv-x="1024" 
d="M619 1192h-124l-228 291h198z" />
    <glyph glyph-name="a" unicode="a" horiz-adv-x="1074" 
d="M738 604v72q0 112 -37 163q-54 74 -188 74q-153 0 -246 -103l-112 86q130 152 372 152q244 0 330 -150q44 -77 44 -247v-651h-130l-13 73q-49 -51 -115.5 -71.5t-183.5 -20.5q-198 0 -279 68.5t-81 236.5q0 187 97 258q82 60 294 60h248zM738 481h-232q-136 0 -193 -43.5
t-57 -147.5q0 -98 52.5 -136t187.5 -38q162 0 214 68q28 37 28 137v160z" />
    <glyph glyph-name="b" unicode="b" horiz-adv-x="1157" 
d="M181 0v1462h163v-511q58 52 122 74.5t158 22.5q148 0 232 -57q155 -106 155 -399v-155q0 -216 -79 -325q-50 -70 -123 -101q-75 -31 -190 -31q-150 0 -241 58q-5 3 -58 50l-10 -88h-129zM849 447v135q0 331 -250 331q-255 0 -255 -315v-167q0 -316 255 -316
q250 0 250 332z" />
    <glyph glyph-name="c" unicode="c" horiz-adv-x="973" 
d="M792 217l122 -74q-117 -162 -353 -162q-415 0 -415 479v86q0 240 86 359q104 143 323 143q237 0 339 -167l-125 -71q-43 57 -88 80t-116 23q-152 0 -214 -121q-42 -82 -42 -235v-113q0 -328 261 -328q142 0 222 101z" />
    <glyph glyph-name="d" unicode="d" horiz-adv-x="1157" 
d="M847 0l-10 88q-7 -6 -37 -35q-35 -32 -107.5 -52t-157.5 -20q-150 0 -234 57q-155 106 -155 399v155q0 216 79 324q49 68 123 100t184 32q134 0 223 -51q13 -7 58 -46v511h163v-1462h-129zM308 582v-135q0 -331 250 -331q255 0 255 315v167q0 315 -255 315
q-250 0 -250 -331z" />
    <glyph glyph-name="e" unicode="e" horiz-adv-x="1113" 
d="M309 481v-44q0 -139 59 -220q73 -101 228 -101q154 0 236 101l121 -77q-61 -84 -149 -121.5t-223 -37.5q-256 0 -362 164q-73 112 -73 323v86q0 235 83 351q54 75 132 108q81 35 203 35q217 0 317.5 -119t100.5 -375v-73h-673zM309 604h518v16q0 128 -55 205
q-63 88 -203 88q-156 0 -215 -104q-45 -77 -45 -189v-16z" />
    <glyph glyph-name="f" unicode="f" horiz-adv-x="680" 
d="M227 895h-128v134h128v166q0 158 68 217q32 28 80 39t142 11h92v-132h-58q-100 0 -128 -28q-33 -33 -33 -127v-146h232v-134h-232v-895h-163v895z" />
    <glyph glyph-name="g" unicode="g" horiz-adv-x="1156" 
d="M816 80q-96 -99 -285 -99q-228 0 -321 155q-64 105 -64 301v155q0 215 79 324q49 69 123 100.5t186 31.5q106 0 176 -26t125 -85l12 92h129v-1028q0 -480 -439 -480q-127 0 -213.5 39t-145.5 123l122 74q45 -56 98 -80.5t133 -24.5q142 0 209.5 79.5t72.5 252.5zM308 582
v-136q0 -330 250 -330q255 0 255 315v167q0 315 -255 315q-250 0 -250 -331z" />
    <glyph glyph-name="h" unicode="h" horiz-adv-x="1158" 
d="M181 0v1462h163v-515q90 101 269 101q269 0 342 -199q31 -85 31 -258v-591h-163v575q0 138 -28 207q-51 127 -205 127q-131 0 -188.5 -88.5t-57.5 -289.5v-531h-163z" />
    <glyph glyph-name="i" unicode="i" horiz-adv-x="522" 
d="M180 1252v217h163v-217h-163zM180 0v1029h163v-1029h-163z" />
    <glyph glyph-name="j" unicode="j" horiz-adv-x="535" 
d="M190 1029h163v-1053q0 -155 -22.5 -237t-78.5 -131q-48 -43 -117 -60t-198 -19v138q91 0 133.5 15.5t74.5 59.5q26 36 35.5 82t9.5 135v1070zM190 1252v217h163v-217h-163z" />
    <glyph glyph-name="k" unicode="k" horiz-adv-x="1046" 
d="M180 0v1462h163v-1017l457 584h187l-351 -436l388 -593h-179l-307 472l-195 -243v-229h-163z" />
    <glyph glyph-name="l" unicode="l" horiz-adv-x="597" 
d="M177 1462h163v-1135q0 -110 36.5 -150t136.5 -40h53v-137h-60q-201 0 -267 76q-62 72 -62 266v1120z" />
    <glyph glyph-name="m" unicode="m" horiz-adv-x="1721" 
d="M181 0v1029h126l13 -114q84 133 269 133q219 0 296 -166q88 166 307 166q261 0 329 -199q29 -86 29 -258v-591h-163v575q0 137 -25 206q-47 128 -189 128q-120 0 -173 -88.5t-53 -288.5v-532h-163v575q0 137 -25 206q-47 128 -189 128q-122 0 -174 -89t-52 -297v-523
h-163z" />
    <glyph glyph-name="n" unicode="n" horiz-adv-x="1158" 
d="M181 0v1029h126l13 -114q89 133 290 133q272 0 345 -199q31 -85 31 -258v-591h-163v575q0 138 -28 207q-51 127 -205 127q-133 0 -189.5 -89t-56.5 -297v-523h-163z" />
    <glyph glyph-name="o" unicode="o" horiz-adv-x="1141" 
d="M146 435v158q0 216 86 323q106 132 335 132q256 0 358 -154q70 -105 70 -301v-158q0 -216 -86 -323q-106 -131 -341 -131q-249 0 -352 154q-70 104 -70 300zM832 444v140q0 169 -63.5 249t-198.5 80q-155 0 -217 -109q-44 -79 -44 -220v-140q0 -168 64 -248t197 -80
q156 0 218 109q44 78 44 219z" />
    <glyph glyph-name="p" unicode="p" horiz-adv-x="1157" 
d="M181 -461v1490h129l15 -87q105 106 299 106q148 0 232 -57q155 -105 155 -399v-155q0 -215 -79 -324q-95 -132 -308 -132q-175 0 -280 94v-536h-163zM849 446v136q0 331 -250 331q-255 0 -255 -315v-167q0 -315 255 -315q250 0 250 330z" />
    <glyph glyph-name="q" unicode="q" horiz-adv-x="1157" 
d="M813 -461l3 536q-106 -94 -284 -94q-229 0 -322 155q-64 105 -64 301v155q0 216 79 324q49 69 123 100.5t185 31.5q194 0 299 -106l15 87h129v-1490h-163zM308 582v-136q0 -330 250 -330q255 0 255 315v167q0 315 -255 315q-250 0 -250 -331z" />
    <glyph glyph-name="r" unicode="r" horiz-adv-x="767" 
d="M181 0v1029h128l16 -96q44 61 102 88t145 27q100 0 198 -52l-69 -139q-74 48 -144 48q-112 0 -162.5 -95.5t-50.5 -307.5v-502h-163z" />
    <glyph glyph-name="s" unicode="s" horiz-adv-x="969" 
d="M58 140l118 78q55 -57 115.5 -79.5t161.5 -22.5q260 0 260 172q0 92 -70 127q-48 24 -190 43q-107 15 -163 33.5t-93 50.5q-82 70 -82 201q0 148 89 227q87 78 252 78q130 0 220.5 -40t151.5 -124l-122 -74q-48 56 -102 79.5t-136 23.5q-94 0 -143 -39q-54 -43 -54 -122
q0 -83 64 -119q44 -25 162 -40q208 -28 281 -81q92 -67 92 -229q0 -302 -411 -302q-292 0 -401 159z" />
    <glyph glyph-name="t" unicode="t" horiz-adv-x="685" 
d="M214 895h-125v134h125l8 328h155v-328h201v-134h-201v-568q0 -110 36.5 -150t136.5 -40h35v-137h-37q-190 0 -257 58q-41 36 -59 102t-18 182v553z" />
    <glyph glyph-name="u" unicode="u" horiz-adv-x="1136" 
d="M172 1029h163v-575q0 -138 26 -206q49 -128 196 -128q127 0 181 89t54 297v523h163v-1029h-126l-13 115q-84 -134 -279 -134q-265 0 -335 199q-30 85 -30 258v591z" />
    <glyph glyph-name="v" unicode="v" horiz-adv-x="998" 
d="M426 0l-373 1029h166l281 -816l281 816h165l-373 -1029h-147z" />
    <glyph glyph-name="w" unicode="w" horiz-adv-x="1579" 
d="M394 0l-317 1029h166l226 -808l264 808h113l264 -808l226 808h165l-316 -1029h-132l-264 774l-263 -774h-132z" />
    <glyph glyph-name="x" unicode="x" horiz-adv-x="950" 
d="M381 527l-308 502h184l231 -377l230 377h177l-326 -508l320 -521h-184l-242 393l-239 -393h-178z" />
    <glyph glyph-name="y" unicode="y" horiz-adv-x="999" 
d="M424 2l-379 1027h164l300 -845l268 845h166l-406 -1195q-40 -118 -81.5 -181.5t-94.5 -87.5q-78 -36 -239 -36v137q117 1 163 35t87 149z" />
    <glyph glyph-name="z" unicode="z" horiz-adv-x="972" 
d="M91 0v106l523 787h-482v136h685v-106l-522 -787h554v-136h-758z" />
    <glyph glyph-name="braceleft" unicode="{" horiz-adv-x="890" 
d="M364 747q61 -25 90 -64q30 -38 36.5 -77t6.5 -177v-187q0 -183 26 -245q34 -82 168 -82h41v-116h-74q-194 -1 -262 76q-38 44 -51 108t-13 213v232q0 121 -5.5 157t-26.5 63q-39 47 -139 47h-16v103h16q100 0 139 47q21 27 26.5 63t5.5 157v150q0 149 13 213t51 108
q36 41 96 58.5t166 17.5h74v-116h-41q-121 0 -157.5 -61t-36.5 -266v-105q0 -140 -6.5 -179t-37.5 -78q-27 -34 -89 -60z" />
    <glyph glyph-name="bar" unicode="|" 
d="M480 -201v1813h145v-1813h-145z" />
    <glyph glyph-name="braceright" unicode="}" horiz-adv-x="890" 
d="M526 747q-62 26 -89 60q-31 39 -37.5 78t-6.5 179v105q0 183 -26 245q-34 82 -168 82h-41v116h74q106 0 166 -17.5t96 -58.5q39 -44 51.5 -108t12.5 -213v-150q0 -121 5.5 -157t27.5 -63q38 -47 138 -47h16v-103h-16q-100 0 -138 -47q-22 -27 -27.5 -63t-5.5 -157v-232
q0 -149 -13 -213t-51 -108q-68 -77 -262 -76h-74v116h41q121 0 157.5 61t36.5 266v187q0 138 6.5 177t36.5 77q29 39 90 64z" />
    <glyph glyph-name="asciitilde" unicode="~" 
d="M196 611l-106 25q35 114 75 164q73 91 192 91q59 0 104.5 -17.5t120.5 -68.5q70 -48 103.5 -63.5t68.5 -15.5q100 0 158 146l103 -30q-33 -101 -72 -151q-74 -93 -196 -93q-55 0 -99 17.5t-117 67.5q-72 51 -104 65.5t-70 14.5q-105 0 -161 -152z" />
    <glyph glyph-name="Adieresis" unicode="&#xc4;" horiz-adv-x="1229" 
d="M936 319h-641l-110 -319h-185l535 1462h161l535 -1462h-185zM893 460l-277 786l-277 -786h554zM341 1631v214h148v-214h-148zM740 1631v214h148v-214h-148z" />
    <glyph glyph-name="Aring" unicode="&#xc5;" horiz-adv-x="1229" 
d="M936 319h-641l-110 -319h-185l535 1462h161l535 -1462h-185zM893 460l-277 786l-277 -786h554zM618 2015q94 0 152 -55q60 -57 60 -151q0 -95 -59.5 -152.5t-155.5 -57.5q-97 0 -155 57q-61 59 -61 152q0 96 59 151.5t160 55.5zM616 1929q-104 0 -104 -123
q0 -121 102 -121q103 0 103 122q0 57 -26.5 89.5t-74.5 32.5z" />
    <glyph glyph-name="Ccedilla" unicode="&#xc7;" horiz-adv-x="1294" 
d="M984 363l160 -18q-9 -142 -92 -230q-127 -134 -385 -134q-276 0 -401 185q-48 70 -68 165.5t-20 248.5v300q0 173 26 269q87 330 465 330q272 0 390 -159q63 -84 70 -211l-157 -12q-12 88 -57 141q-84 98 -243 98q-194 0 -271 -148q-53 -101 -53 -317v-282
q0 -237 66 -341q78 -124 259 -124q133 0 214 62t97 177zM483 -455l107 313h170l-163 -313h-114z" />
    <glyph glyph-name="Eacute" unicode="&#xc9;" horiz-adv-x="1185" 
d="M214 0v1462h854v-143h-686v-507h585v-143h-585v-526h688v-143h-856zM555 1616l154 292h198l-228 -292h-124z" />
    <glyph glyph-name="Ntilde" unicode="&#xd1;" horiz-adv-x="1478" 
d="M213 0v1462h164l722 -1170v1170h165v-1462h-163l-722 1170v-1170h-166zM529 1646h-105q27 105 50 146q52 88 148 88q77 0 150 -65q45 -41 66 -53.5t42 -12.5q57 0 85 115h105q-25 -106 -48 -149q-46 -85 -145 -85q-45 0 -79 15t-76 54q-41 37 -61.5 49.5t-43.5 12.5
q-60 0 -88 -115z" />
    <glyph glyph-name="Odieresis" unicode="&#xd6;" horiz-adv-x="1384" 
d="M178 551v360q0 163 31 259q49 154 185 241q112 70 298 70t298 -71q117 -73 166.5 -188t49.5 -311v-360q0 -163 -30 -259q-49 -154 -186 -240q-112 -71 -298 -71t-298 70q-116 74 -166 189t-50 311zM1036 568v326q0 122 -18 196t-61 132q-87 116 -265 116
q-192 0 -279 -136q-36 -57 -50.5 -126t-14.5 -182v-326q0 -121 18 -195.5t61 -132.5q87 -116 265 -116q192 0 279 136q36 57 50.5 126t14.5 182zM418 1631v214h148v-214h-148zM817 1631v214h148v-214h-148z" />
    <glyph glyph-name="Udieresis" unicode="&#xdc;" horiz-adv-x="1413" 
d="M207 1462h170v-925q0 -112 12 -174t42 -109q44 -68 108.5 -98.5t166.5 -30.5q138 0 210 56q68 54 94 130.5t26 225.5v925h170v-925q0 -155 -19 -237.5t-69 -148.5q-64 -82 -149 -122q-100 -47 -263 -47q-206 0 -318 80q-127 91 -162 237q-19 79 -19 238v925zM433 1631
v214h148v-214h-148zM832 1631v214h148v-214h-148z" />
    <glyph glyph-name="aacute" unicode="&#xe1;" horiz-adv-x="1074" 
d="M738 604v72q0 112 -37 163q-54 74 -188 74q-153 0 -246 -103l-112 86q130 152 372 152q244 0 330 -150q44 -77 44 -247v-651h-130l-13 73q-49 -51 -115.5 -71.5t-183.5 -20.5q-198 0 -279 68.5t-81 236.5q0 187 97 258q82 60 294 60h248zM738 481h-232q-136 0 -193 -43.5
t-57 -147.5q0 -98 52.5 -136t187.5 -38q162 0 214 68q28 37 28 137v160zM449 1192l154 291h198l-228 -291h-124z" />
    <glyph glyph-name="agrave" unicode="&#xe0;" horiz-adv-x="1074" 
d="M738 604v72q0 112 -37 163q-54 74 -188 74q-153 0 -246 -103l-112 86q130 152 372 152q244 0 330 -150q44 -77 44 -247v-651h-130l-13 73q-49 -51 -115.5 -71.5t-183.5 -20.5q-198 0 -279 68.5t-81 236.5q0 187 97 258q82 60 294 60h248zM738 481h-232q-136 0 -193 -43.5
t-57 -147.5q0 -98 52.5 -136t187.5 -38q162 0 214 68q28 37 28 137v160zM667 1192h-124l-228 291h198z" />
    <glyph glyph-name="acircumflex" unicode="&#xe2;" horiz-adv-x="1074" 
d="M738 604v72q0 112 -37 163q-54 74 -188 74q-153 0 -246 -103l-112 86q130 152 372 152q244 0 330 -150q44 -77 44 -247v-651h-130l-13 73q-49 -51 -115.5 -71.5t-183.5 -20.5q-198 0 -279 68.5t-81 236.5q0 187 97 258q82 60 294 60h248zM738 481h-232q-136 0 -193 -43.5
t-57 -147.5q0 -98 52.5 -136t187.5 -38q162 0 214 68q28 37 28 137v160zM537 1366l-140 -165h-172l259 273h106l260 -273h-173z" />
    <glyph glyph-name="adieresis" unicode="&#xe4;" horiz-adv-x="1074" 
d="M738 604v72q0 112 -37 163q-54 74 -188 74q-153 0 -246 -103l-112 86q130 152 372 152q244 0 330 -150q44 -77 44 -247v-651h-130l-13 73q-49 -51 -115.5 -71.5t-183.5 -20.5q-198 0 -279 68.5t-81 236.5q0 187 97 258q82 60 294 60h248zM738 481h-232q-136 0 -193 -43.5
t-57 -147.5q0 -98 52.5 -136t187.5 -38q162 0 214 68q28 37 28 137v160zM265 1207v214h148v-214h-148zM660 1207v214h148v-214h-148z" />
    <glyph glyph-name="atilde" unicode="&#xe3;" horiz-adv-x="1074" 
d="M738 604v72q0 112 -37 163q-54 74 -188 74q-153 0 -246 -103l-112 86q130 152 372 152q244 0 330 -150q44 -77 44 -247v-651h-130l-13 73q-49 -51 -115.5 -71.5t-183.5 -20.5q-198 0 -279 68.5t-81 236.5q0 187 97 258q82 60 294 60h248zM738 481h-232q-136 0 -193 -43.5
t-57 -147.5q0 -98 52.5 -136t187.5 -38q162 0 214 68q28 37 28 137v160zM319 1221h-105q27 105 50 146q52 88 148 88q77 0 150 -65q44 -40 65.5 -52.5t42.5 -12.5q57 0 85 115h105q-26 -108 -48 -150q-46 -85 -145 -85q-45 0 -79 15t-76 53q-41 38 -61.5 50t-42.5 12
q-61 0 -89 -114z" />
    <glyph glyph-name="aring" unicode="&#xe5;" horiz-adv-x="1074" 
d="M738 604v72q0 112 -37 163q-54 74 -188 74q-153 0 -246 -103l-112 86q130 152 372 152q244 0 330 -150q44 -77 44 -247v-651h-130l-13 73q-49 -51 -115.5 -71.5t-183.5 -20.5q-198 0 -279 68.5t-81 236.5q0 187 97 258q82 60 294 60h248zM738 481h-232q-136 0 -193 -43.5
t-57 -147.5q0 -98 52.5 -136t187.5 -38q162 0 214 68q28 37 28 137v160zM548 1591q95 0 153 -55q60 -58 60 -152t-59.5 -151.5t-155.5 -57.5q-97 0 -155 57q-61 59 -61 152q0 95 59 151t159 56zM547 1505q-104 0 -104 -122t102 -122q103 0 103 122q0 58 -26.5 90t-74.5 32z
" />
    <glyph glyph-name="ccedilla" unicode="&#xe7;" horiz-adv-x="973" 
d="M792 217l122 -74q-117 -162 -353 -162q-415 0 -415 479v86q0 240 86 359q104 143 323 143q237 0 339 -167l-125 -71q-43 57 -88 80t-116 23q-152 0 -214 -121q-42 -82 -42 -235v-113q0 -328 261 -328q142 0 222 101zM344 -455l107 313h170l-163 -313h-114z" />
    <glyph glyph-name="eacute" unicode="&#xe9;" horiz-adv-x="1113" 
d="M309 481v-44q0 -139 59 -220q73 -101 228 -101q154 0 236 101l121 -77q-61 -84 -149 -121.5t-223 -37.5q-256 0 -362 164q-73 112 -73 323v86q0 235 83 351q54 75 132 108q81 35 203 35q217 0 317.5 -119t100.5 -375v-73h-673zM309 604h518v16q0 128 -55 205
q-63 88 -203 88q-156 0 -215 -104q-45 -77 -45 -189v-16zM471 1192l154 291h198l-228 -291h-124z" />
    <glyph glyph-name="egrave" unicode="&#xe8;" horiz-adv-x="1113" 
d="M309 481v-44q0 -139 59 -220q73 -101 228 -101q154 0 236 101l121 -77q-61 -84 -149 -121.5t-223 -37.5q-256 0 -362 164q-73 112 -73 323v86q0 235 83 351q54 75 132 108q81 35 203 35q217 0 317.5 -119t100.5 -375v-73h-673zM309 604h518v16q0 128 -55 205
q-63 88 -203 88q-156 0 -215 -104q-45 -77 -45 -189v-16zM681 1192h-124l-228 291h198z" />
    <glyph glyph-name="ecircumflex" unicode="&#xea;" horiz-adv-x="1113" 
d="M309 481v-44q0 -139 59 -220q73 -101 228 -101q154 0 236 101l121 -77q-61 -84 -149 -121.5t-223 -37.5q-256 0 -362 164q-73 112 -73 323v86q0 235 83 351q54 75 132 108q81 35 203 35q217 0 317.5 -119t100.5 -375v-73h-673zM309 604h518v16q0 128 -55 205
q-63 88 -203 88q-156 0 -215 -104q-45 -77 -45 -189v-16zM574 1366l-140 -165h-172l259 273h106l260 -273h-173z" />
    <glyph glyph-name="edieresis" unicode="&#xeb;" horiz-adv-x="1113" 
d="M309 481v-44q0 -139 59 -220q73 -101 228 -101q154 0 236 101l121 -77q-61 -84 -149 -121.5t-223 -37.5q-256 0 -362 164q-73 112 -73 323v86q0 235 83 351q54 75 132 108q81 35 203 35q217 0 317.5 -119t100.5 -375v-73h-673zM309 604h518v16q0 128 -55 205
q-63 88 -203 88q-156 0 -215 -104q-45 -77 -45 -189v-16zM302 1207v214h148v-214h-148zM697 1207v214h148v-214h-148z" />
    <glyph glyph-name="iacute" unicode="&#xed;" horiz-adv-x="522" 
d="M171 0v1029h163v-1029h-163zM160 1192l154 291h198l-228 -291h-124z" />
    <glyph glyph-name="igrave" unicode="&#xec;" horiz-adv-x="522" 
d="M180 0v1029h163v-1029h-163zM356 1192h-124l-228 291h198z" />
    <glyph glyph-name="icircumflex" unicode="&#xee;" horiz-adv-x="522" 
d="M180 0v1029h163v-1029h-163zM261 1366l-140 -165h-172l259 273h106l260 -273h-173z" />
    <glyph glyph-name="idieresis" unicode="&#xef;" horiz-adv-x="522" 
d="M180 0v1029h163v-1029h-163zM-11 1207v214h148v-214h-148zM384 1207v214h148v-214h-148z" />
    <glyph glyph-name="ntilde" unicode="&#xf1;" horiz-adv-x="1158" 
d="M181 0v1029h126l13 -114q89 133 290 133q272 0 345 -199q31 -85 31 -258v-591h-163v575q0 138 -28 207q-51 127 -205 127q-133 0 -189.5 -89t-56.5 -297v-523h-163zM361 1221h-105q27 105 50 146q52 88 148 88q77 0 150 -65q44 -40 65.5 -52.5t42.5 -12.5q57 0 85 115
h105q-26 -108 -48 -150q-46 -85 -145 -85q-45 0 -79 15t-76 53q-41 38 -61.5 50t-42.5 12q-61 0 -89 -114z" />
    <glyph glyph-name="oacute" unicode="&#xf3;" horiz-adv-x="1141" 
d="M146 435v158q0 216 86 323q106 132 335 132q256 0 358 -154q70 -105 70 -301v-158q0 -216 -86 -323q-106 -131 -341 -131q-249 0 -352 154q-70 104 -70 300zM832 444v140q0 169 -63.5 249t-198.5 80q-155 0 -217 -109q-44 -79 -44 -220v-140q0 -168 64 -248t197 -80
q156 0 218 109q44 78 44 219zM468 1192l154 291h198l-228 -291h-124z" />
    <glyph glyph-name="ograve" unicode="&#xf2;" horiz-adv-x="1141" 
d="M146 435v158q0 216 86 323q106 132 335 132q256 0 358 -154q70 -105 70 -301v-158q0 -216 -86 -323q-106 -131 -341 -131q-249 0 -352 154q-70 104 -70 300zM832 444v140q0 169 -63.5 249t-198.5 80q-155 0 -217 -109q-44 -79 -44 -220v-140q0 -168 64 -248t197 -80
q156 0 218 109q44 78 44 219zM678 1192h-124l-228 291h198z" />
    <glyph glyph-name="ocircumflex" unicode="&#xf4;" horiz-adv-x="1141" 
d="M146 435v158q0 216 86 323q106 132 335 132q256 0 358 -154q70 -105 70 -301v-158q0 -216 -86 -323q-106 -131 -341 -131q-249 0 -352 154q-70 104 -70 300zM832 444v140q0 169 -63.5 249t-198.5 80q-155 0 -217 -109q-44 -79 -44 -220v-140q0 -168 64 -248t197 -80
q156 0 218 109q44 78 44 219zM570 1366l-140 -165h-172l259 273h106l260 -273h-173z" />
    <glyph glyph-name="odieresis" unicode="&#xf6;" horiz-adv-x="1141" 
d="M146 435v158q0 216 86 323q106 132 335 132q256 0 358 -154q70 -105 70 -301v-158q0 -216 -86 -323q-106 -131 -341 -131q-249 0 -352 154q-70 104 -70 300zM832 444v140q0 169 -63.5 249t-198.5 80q-155 0 -217 -109q-44 -79 -44 -220v-140q0 -168 64 -248t197 -80
q156 0 218 109q44 78 44 219zM298 1207v214h148v-214h-148zM693 1207v214h148v-214h-148z" />
    <glyph glyph-name="otilde" unicode="&#xf5;" horiz-adv-x="1141" 
d="M146 435v158q0 216 86 323q106 132 335 132q256 0 358 -154q70 -105 70 -301v-158q0 -216 -86 -323q-106 -131 -341 -131q-249 0 -352 154q-70 104 -70 300zM832 444v140q0 169 -63.5 249t-198.5 80q-155 0 -217 -109q-44 -79 -44 -220v-140q0 -168 64 -248t197 -80
q156 0 218 109q44 78 44 219zM352 1221h-105q27 105 50 146q52 88 148 88q77 0 150 -65q44 -40 65.5 -52.5t42.5 -12.5q57 0 85 115h105q-26 -108 -48 -150q-46 -85 -145 -85q-45 0 -79 15t-76 53q-41 38 -61.5 50t-42.5 12q-61 0 -89 -114z" />
    <glyph glyph-name="uacute" unicode="&#xfa;" horiz-adv-x="1136" 
d="M172 1029h163v-575q0 -138 26 -206q49 -128 196 -128q127 0 181 89t54 297v523h163v-1029h-126l-13 115q-84 -134 -279 -134q-265 0 -335 199q-30 85 -30 258v591zM466 1192l154 291h198l-228 -291h-124z" />
    <glyph glyph-name="ugrave" unicode="&#xf9;" horiz-adv-x="1136" 
d="M172 1029h163v-575q0 -138 26 -206q49 -128 196 -128q127 0 181 89t54 297v523h163v-1029h-126l-13 115q-84 -134 -279 -134q-265 0 -335 199q-30 85 -30 258v591zM676 1192h-124l-228 291h198z" />
    <glyph glyph-name="ucircumflex" unicode="&#xfb;" horiz-adv-x="1136" 
d="M172 1029h163v-575q0 -138 26 -206q49 -128 196 -128q127 0 181 89t54 297v523h163v-1029h-126l-13 115q-84 -134 -279 -134q-265 0 -335 199q-30 85 -30 258v591zM568 1366l-140 -165h-172l259 273h106l260 -273h-173z" />
    <glyph glyph-name="udieresis" unicode="&#xfc;" horiz-adv-x="1136" 
d="M172 1029h163v-575q0 -138 26 -206q49 -128 196 -128q127 0 181 89t54 297v523h163v-1029h-126l-13 115q-84 -134 -279 -134q-265 0 -335 199q-30 85 -30 258v591zM296 1207v214h148v-214h-148zM691 1207v214h148v-214h-148z" />
    <glyph glyph-name="dagger" unicode="&#x2020;" 
d="M470 864h-339v143h339v455h165v-455h340v-143h-340v-1186h-165v1186z" />
    <glyph glyph-name="degree" unicode="&#xb0;" horiz-adv-x="822" 
d="M416 1523q147 0 239 -81q105 -93 105 -262t-105 -262q-92 -81 -244 -81t-244 81q-105 93 -105 261q0 172 105 263q94 81 249 81zM414 1403q-103 0 -159.5 -58.5t-56.5 -165.5q0 -112 63 -170q57 -52 151 -52q100 0 156.5 59t56.5 164q0 113 -64 171q-56 52 -147 52z" />
    <glyph glyph-name="cent" unicode="&#xa2;" 
d="M522 65v236q-166 15 -252 134.5t-86 335.5v87q-5 452 338 495v224h162v-228q169 -30 245 -157l-122 -68q-42 57 -88.5 80.5t-116.5 23.5q-153 0 -216 -122q-43 -83 -43 -237v-114q0 -330 262 -330q146 0 225 101l119 -71q-87 -124 -265 -152v-238h-162z" />
    <glyph glyph-name="sterling" unicode="&#xa3;" 
d="M125 0v123q104 37 170 134.5t66 213.5q0 68 -30 153h-211v143h145q-62 119 -81 177.5t-19 132.5q0 196 117 306q104 98 288 98q186 0 293.5 -89.5t150.5 -280.5l-143 -38q-29 110 -67 161q-79 107 -224 107q-116 0 -180 -70q-65 -71 -65 -179q0 -67 24.5 -135.5
t93.5 -189.5h349v-143h-303q24 -82 24 -143q0 -199 -162 -338h676v-143h-912z" />
    <glyph glyph-name="section" unicode="&#xa7;" 
d="M316 912q-66 43 -93.5 96.5t-27.5 138.5q0 166 103 254q94 79 251 79q142 0 242 -59q22 -13 90 -71l-110 -90q-86 82 -208 82q-92 0 -144 -43q-59 -49 -59 -132q0 -72 39 -114q25 -27 69.5 -47t150.5 -53q114 -35 169.5 -60.5t92.5 -61.5q73 -70 73 -199
q0 -95 -39 -156.5t-138 -124.5q66 -43 92.5 -93t26.5 -134q0 -170 -109 -257q-100 -79 -266 -79q-118 0 -202 33.5t-176 118.5l110 90q109 -103 253 -103q102 0 160 43q65 49 65 132q0 69 -39 113q-26 29 -68.5 47.5t-151.5 50.5q-192 56 -262 120q-73 68 -73 193
q0 148 97 230q20 17 82 56zM433 858q-63 -36 -84 -55q-55 -51 -55 -138q0 -89 45.5 -129.5t205.5 -92.5l113 -38q10 7 51 31q88 52 88 156q0 85 -42 129q-25 27 -65.5 46t-142.5 53z" />
    <glyph glyph-name="bullet" unicode="&#x2022;" 
d="M553 1083q173 0 275 -125q75 -93 75 -216q0 -122 -75 -215q-102 -125 -274 -125q-175 0 -277 125q-75 93 -75 219q0 122 75 212q106 125 276 125z" />
    <glyph glyph-name="paragraph" unicode="&#xb6;" horiz-adv-x="1223" 
d="M478 -278v976h-57q-94 0 -141 9t-93 36q-78 46 -123 137t-45 203q0 117 46.5 208.5t127.5 131.5q53 27 104.5 33t233.5 6h482v-1740h-155v1603h-225v-1603h-155z" />
    <glyph glyph-name="germandbls" unicode="&#xdf;" horiz-adv-x="1165" 
d="M179 0v1096q0 187 89 283q93 99 295 99q192 0 291 -85q94 -81 94 -236q0 -100 -41 -171q-11 -17 -62 -74q50 -25 73 -44t44 -53q60 -101 60 -305v-77q0 -160 -31 -245q-45 -121 -158 -163q-68 -25 -178 -25h-99v134h81q130 0 174 57q48 61 48 233v94q0 183 -43 245
t-171 62h-38v122h34q154 0 154 191q0 101 -49 151q-55 57 -177 57q-120 0 -173.5 -58t-53.5 -190v-1098h-163z" />
    <glyph glyph-name="registered" unicode="&#xae;" horiz-adv-x="1365" 
d="M577 1133v-229h-113v563h252q119 0 174 -39.5t55 -125.5q0 -67 -29 -103.5t-97 -54.5l144 -240h-123l-131 229h-132zM575 1204h142q116 0 116 90q0 91 -124 91h-134v-181zM690 1764q236 0 402 -155q177 -165 177 -423q0 -257 -177 -423q-165 -155 -409 -155
q-245 0 -410 155q-176 165 -176 422q0 263 176 424q170 155 417 155zM690 1655q-217 0 -341 -129q-132 -137 -132 -341q0 -95 35 -184.5t97 -154.5q123 -129 334 -129t335 129q131 138 131 340q0 96 -34.5 186t-96.5 154q-125 129 -328 129z" />
    <glyph glyph-name="copyright" unicode="&#xa9;" horiz-adv-x="1683" 
d="M1024 573l123 -11q-11 -192 -293 -192q-158 0 -228.5 72t-70.5 234v111q0 89 15 138q52 167 284 167q138 0 208 -47.5t77 -146.5l-122 -8q-7 49 -48.5 75.5t-110.5 26.5q-90 0 -131 -46t-41 -148v-133q0 -103 40.5 -149t131.5 -46q146 0 166 103zM853 1489
q322 0 539 -216q217 -217 217 -542q0 -324 -217 -542q-216 -216 -550 -216q-333 0 -550 216q-217 218 -217 540q0 229 113 413q105 170 288 264q162 83 377 83zM851 1374q-293 0 -476 -195q-169 -180 -169 -450q0 -265 169 -446q182 -195 467 -195t467 195q169 181 169 448
q0 272 -169 448q-187 195 -458 195z" />
    <glyph glyph-name="trademark" unicode="&#x2122;" horiz-adv-x="1787" 
d="M295 586v767h-268v109h669v-109h-266v-767h-135zM820 586v876h128l281 -538l281 538h128v-876h-131v622l-233 -448h-89l-234 448v-622h-131z" />
    <glyph glyph-name="acute" unicode="&#xb4;" horiz-adv-x="1024" 
d="M409 1192l154 291h198l-228 -291h-124z" />
    <glyph glyph-name="dieresis" unicode="&#xa8;" horiz-adv-x="1024" 
d="M240 1207v214h148v-214h-148zM635 1207v214h148v-214h-148z" />
    <glyph glyph-name="notequal" unicode="&#x2260;" 
d="M100 515v130h334l90 197h-424v130h484l111 242l123 -56l-86 -186h274v-130h-334l-91 -197h425v-130h-484l-111 -242l-123 55l86 187h-274z" />
    <glyph glyph-name="AE" unicode="&#xc6;" horiz-adv-x="1945" 
d="M974 337h-647l-215 -337h-197l960 1462h953v-143h-686v-507h585v-143h-585v-526h688v-143h-856v337zM974 479v840h-23l-543 -840h566z" />
    <glyph glyph-name="Oslash" unicode="&#xd8;" horiz-adv-x="1382" 
d="M1130 1267q41 -69 57.5 -149t16.5 -207v-360q0 -164 -30 -259q-50 -154 -186 -241q-112 -70 -304 -70q-213 0 -339 104l-84 -126l-110 79l101 153q-76 124 -76 360v360q0 163 31 259q49 154 185 241q112 70 299 70q114 0 196 -25t151 -82l82 123l111 -79zM1015 1093
l-578 -869q87 -100 253 -100q192 0 278 136q37 57 51.5 125.5t14.5 182.5v326q0 130 -19 199zM367 363l578 871q-84 104 -255 104q-193 0 -279 -136q-35 -56 -50 -126t-15 -182v-326q0 -136 21 -205z" />
    <glyph glyph-name="infinity" unicode="&#x221e;" horiz-adv-x="1528" 
d="M764 637q-10 -13 -14 -20q-41 -59 -62.5 -81.5t-58.5 -46.5q-88 -58 -203 -58q-148 0 -233 90q-81 84 -81 223q0 138 81 222q85 90 233 90q147 0 249 -93q21 -19 89 -113l14 20q42 60 63 82.5t57 45.5q88 58 204 58q148 0 233 -90q81 -84 81 -223q0 -138 -81 -222
q-85 -90 -234 -90q-146 0 -249 93q-22 20 -88 113zM697 744l-13 20q-51 81 -115.5 126t-130.5 45q-85 0 -138.5 -53t-53.5 -138q0 -88 54 -140t138 -52q131 0 245 170zM830 744l15 -22q114 -170 244 -170q86 0 139.5 53t53.5 139t-53 138q-54 53 -140 53q-138 0 -246 -171z
" />
    <glyph glyph-name="plusminus" unicode="&#xb1;" 
d="M71 699v134h409v407h145v-407h409v-134h-409v-406h-145v406h-409zM71 0v134h963v-134h-963z" />
    <glyph glyph-name="lessequal" unicode="&#x2264;" 
d="M290 771l648 -306v-156l-837 410v105l837 410v-156zM101 0v134h837v-134h-837z" />
    <glyph glyph-name="greaterequal" unicode="&#x2265;" 
d="M816 771l-648 307v156l837 -410v-105l-837 -410v156zM168 0v134h837v-134h-837z" />
    <glyph glyph-name="yen" unicode="&#xa5;" 
d="M470 0v309h-314v119h314v105h-314v119h264l-398 810h180l353 -738l352 738h181l-399 -810h265v-119h-314v-105h314v-119h-314v-309h-170z" />
    <glyph glyph-name="mu" unicode="&#xb5;" 
d="M163 1029h159v-580q0 -133 28 -201q53 -127 195 -127q129 0 184 88t55 296v524h159v-1029h-113l-22 140q-75 -159 -272 -159q-134 0 -214 89v-531h-159v1490z" />
    <glyph glyph-name="partialdiff" unicode="&#x2202;" 
d="M744 968q-2 5 -18 36q-73 143 -80.5 155t-49.5 52q-125 120 -309 154l21 107q303 -41 458 -245q99 -129 155 -301.5t56 -347.5v-144q0 -215 -86 -322q-105 -131 -340 -131q-249 0 -351 154q-70 104 -70 299v144q0 453 397 453q135 0 217 -63zM818 443v126
q0 169 -64.5 250t-199.5 81q-157 0 -220 -110q-45 -79 -45 -221v-126q0 -168 65 -249t200 -81q156 0 219 110q45 79 45 220z" />
    <glyph glyph-name="summation" unicode="&#x2211;" horiz-adv-x="1150" 
d="M119 -423v105l431 894l-410 773v113h937v-143h-728l397 -742l-402 -857h756v-143h-981z" />
    <glyph glyph-name="product" unicode="&#x220f;" horiz-adv-x="1194" 
d="M142 -423v1885h910v-1885h-166v1737h-578v-1737h-166z" />
    <glyph glyph-name="glyph155" horiz-adv-x="410" 
 />
    <glyph glyph-name="integral" unicode="&#x222b;" horiz-adv-x="890" 
d="M178 -191l30 131q50 -16 78 -16q89 0 117 67q17 40 17 182v1028q0 119 8 180t30 111q57 129 227 129q62 0 139 -20l-30 -132q-46 16 -80 16q-88 0 -116 -69q-16 -40 -16 -174v-1034q0 -121 -8 -181t-30 -110q-58 -128 -227 -128q-61 0 -139 20z" />
    <glyph glyph-name="ordfeminine" unicode="&#xaa;" horiz-adv-x="697" 
d="M464 1194v51q0 66 -31.5 96t-101.5 30q-87 0 -159 -60l-77 64q87 99 248 99q163 0 219 -91q30 -48 30 -153v-414h-105l-5 42q-60 -52 -185 -52q-132 0 -186 42.5t-54 146.5q0 111 61 155t216 44h130zM469 1101h-133q-89 0 -123.5 -21.5t-34.5 -76.5q0 -52 32 -73t113 -21
t113.5 21.5t32.5 73.5v97z" />
    <glyph glyph-name="ordmasculine" unicode="&#xba;" horiz-adv-x="731" 
d="M83 1082v114q0 145 68 211.5t214 66.5q170 0 237 -93q46 -63 46 -185v-114q0 -144 -68 -210t-215 -66q-169 0 -236 92q-46 63 -46 184zM520 1087v104q0 180 -155 180q-154 0 -154 -180v-104q0 -178 154 -178q155 0 155 178z" />
    <glyph glyph-name="Omega" unicode="&#x2126;" horiz-adv-x="1384" 
d="M153 0v125h304v64q-139 50 -209 180t-70 340v202q0 162 31 259q49 154 185 241q111 70 298 70q186 0 298 -70q116 -74 166 -189t50 -311v-202q0 -194 -52 -304q-75 -161 -227 -216v-64h303v-125h-438v282q127 31 186 136t59 298v178q0 121 -18 195.5t-61 132.5
q-88 116 -267 116q-192 0 -279 -136q-35 -56 -50 -126t-15 -182v-178q0 -121 18 -196t61 -132q60 -80 165 -106v-282h-438z" />
    <glyph glyph-name="ae" unicode="&#xe6;" horiz-adv-x="1708" 
d="M839 911q54 72 131 104.5t195 32.5q246 0 346 -167q67 -113 67 -327v-73h-673v-44q0 -139 59 -220q73 -101 228 -101q154 0 236 101l121 -77q-61 -84 -149 -121.5t-222 -37.5q-244 0 -352 163q-39 -62 -74 -91q-91 -72 -291 -72q-199 0 -280 68.5t-81 236.5q0 187 97 258
q82 60 294 60h248v72q0 112 -37 163q-54 74 -188 74q-153 0 -246 -103l-112 86q130 152 369 152q222 0 314 -137zM739 481h-232q-136 0 -193 -43.5t-57 -147.5q0 -97 52 -135.5t184 -38.5q86 0 133 17t76 59q37 53 37 179v110zM905 604h518v16q0 128 -55 205q-63 88 -203 88
q-156 0 -215 -104q-45 -77 -45 -189v-16z" />
    <glyph glyph-name="oslash" unicode="&#xf8;" horiz-adv-x="1141" 
d="M923 898q72 -107 72 -305v-157q0 -215 -86 -322q-105 -132 -338 -132q-165 0 -262 63l-68 -94l-98 75l76 106q-73 108 -73 304v157q0 216 86 323q106 132 340 132q164 0 261 -62l67 92l98 -75zM812 745l-412 -573q62 -55 170 -55q263 0 263 329v138q0 96 -21 161z
M330 286l412 573q-64 54 -169 54q-264 0 -264 -329v-138q0 -95 21 -160z" />
    <glyph glyph-name="questiondown" unicode="&#xbf;" horiz-adv-x="1197" 
d="M689 640v-71q0 -119 -34 -187q-37 -72 -159 -178q-88 -77 -116 -116q-57 -79 -57 -166q0 -102 73.5 -167.5t188.5 -65.5q150 0 234 113q40 54 70 174l158 -27q-81 -403 -468 -403q-220 0 -332 127q-94 107 -94 257q0 152 111 271q35 38 163 148q67 57 97 112t30 122v57
h135zM701 1029v-204h-163v204h163z" />
    <glyph glyph-name="exclamdown" unicode="&#xa1;" horiz-adv-x="634" 
d="M386 636l23 -1070h-184l24 1070h137zM397 1029v-204h-163v204h163z" />
    <glyph glyph-name="logicalnot" unicode="&#xac;" 
d="M94 677v134h852v-575h-158v441h-694z" />
    <glyph glyph-name="radical" unicode="&#x221a;" 
d="M412 0l-215 612h-156v138h277l172 -530l415 1562h524v-120h-393l-453 -1662h-171z" />
    <glyph glyph-name="glyph166" horiz-adv-x="410" 
 />
    <glyph glyph-name="approxequal" unicode="&#x2248;" 
d="M196 438l-106 25q35 114 75 164q73 91 192 91q60 0 105 -17.5t120 -68.5q70 -48 103.5 -63.5t68.5 -15.5q100 0 158 146l103 -30q-33 -101 -72 -151q-73 -93 -196 -93q-55 0 -99 17.5t-117 67.5q-72 51 -104 65.5t-70 14.5q-105 0 -161 -152zM196 784l-106 25
q35 114 75 164q72 91 192 91q59 0 105 -17.5t120 -68.5q71 -49 104 -64t68 -15q99 0 158 146l103 -30q-32 -99 -72 -151q-73 -93 -196 -93q-56 0 -99 17t-117 68q-72 51 -104 65.5t-71 14.5q-104 0 -160 -152z" />
    <glyph glyph-name="Delta" unicode="&#x2206;" 
d="M1172 0h-1231l544 1462h143zM942 138l-386 1085l-385 -1085h771z" />
    <glyph glyph-name="guillemotleft" unicode="&#xab;" horiz-adv-x="880" 
d="M625 604l182 -254l-98 -71l-265 325l265 326l98 -71zM255 604l182 -254l-98 -71l-265 325l265 326l98 -71z" />
    <glyph glyph-name="guillemotright" unicode="&#xbb;" horiz-adv-x="880" 
d="M255 604l-182 255l98 71l265 -326l-265 -325l-98 71zM625 604l-182 255l97 71l266 -326l-266 -325l-97 71z" />
    <glyph glyph-name="ellipsis" unicode="&#x2026;" horiz-adv-x="1733" 
d="M204 0v204h170v-204h-170zM782 0v204h170v-204h-170zM1359 0v204h170v-204h-170z" />
    <glyph glyph-name="glyph172" 
 />
    <glyph glyph-name="Agrave" unicode="&#xc0;" horiz-adv-x="1229" 
d="M936 319h-641l-110 -319h-185l535 1462h161l535 -1462h-185zM893 460l-277 786l-277 -786h554zM712 1616h-124l-228 292h198z" />
    <glyph glyph-name="Atilde" unicode="&#xc3;" horiz-adv-x="1229" 
d="M936 319h-641l-110 -319h-185l535 1462h161l535 -1462h-185zM893 460l-277 786l-277 -786h554zM396 1646h-105q27 105 50 146q52 88 148 88q77 0 150 -65q45 -41 66 -53.5t42 -12.5q57 0 85 115h105q-25 -106 -48 -149q-46 -85 -145 -85q-45 0 -79 15t-76 54
q-41 37 -61.5 49.5t-43.5 12.5q-60 0 -88 -115z" />
    <glyph glyph-name="Otilde" unicode="&#xd5;" horiz-adv-x="1384" 
d="M178 551v360q0 163 31 259q49 154 185 241q112 70 298 70t298 -71q117 -73 166.5 -188t49.5 -311v-360q0 -163 -30 -259q-49 -154 -186 -240q-112 -71 -298 -71t-298 70q-116 74 -166 189t-50 311zM1036 568v326q0 122 -18 196t-61 132q-87 116 -265 116
q-192 0 -279 -136q-36 -57 -50.5 -126t-14.5 -182v-326q0 -121 18 -195.5t61 -132.5q87 -116 265 -116q192 0 279 136q36 57 50.5 126t14.5 182zM474 1646h-105q27 105 50 146q52 88 148 88q77 0 150 -65q45 -41 66 -53.5t42 -12.5q57 0 85 115h105q-25 -106 -48 -149
q-46 -85 -145 -85q-45 0 -79 15t-76 54q-41 37 -61.5 49.5t-43.5 12.5q-60 0 -88 -115z" />
    <glyph glyph-name="OE" unicode="&#x152;" horiz-adv-x="2009" 
d="M1062 0v137q-47 -61 -92 -89q-105 -68 -285 -68q-190 0 -297 71q-113 74 -161.5 189.5t-48.5 307.5v365q0 161 30 257q48 154 180 241q107 71 300 71q136 0 224.5 -34.5t149.5 -110.5v125h830v-143h-684v-507h582v-143h-582v-526h686v-143h-832zM348 896v-331
q0 -121 18 -195t61 -131q87 -116 265 -116q348 0 348 442v331q0 443 -348 443q-192 0 -279 -136q-36 -57 -50.5 -126t-14.5 -181z" />
    <glyph glyph-name="oe" unicode="&#x153;" horiz-adv-x="1800" 
d="M915 882q85 168 343 168q157 0 247 -62q105 -72 143 -220q22 -88 22 -214v-73h-673v-44q0 -138 59 -220q72 -101 227 -101t236 101l122 -73q-60 -85 -148 -124t-220 -39q-135 0 -217.5 39t-139.5 129q-43 -71 -88 -104q-88 -63 -261 -63q-248 0 -351 154q-70 105 -70 301
v156q0 216 86 323q106 132 333 132q133 0 214 -38.5t136 -127.5zM833 446v137q0 330 -262 330t-262 -330v-137q0 -329 262 -329t262 329zM997 604h517v16q0 128 -54 205q-63 88 -203 88q-156 0 -215 -104q-45 -77 -45 -189v-16z" />
    <glyph glyph-name="endash" unicode="&#x2013;" 
d="M156 672v143h793v-143h-793z" />
    <glyph glyph-name="emdash" unicode="&#x2014;" 
d="M6 672v143h1094v-143h-1094z" />
    <glyph glyph-name="quotedblleft" unicode="&#x201c;" horiz-adv-x="754" 
d="M686 1462l-74 -487h-173l113 487h134zM315 1462l-75 -487h-173l113 487h135z" />
    <glyph glyph-name="quotedblright" unicode="&#x201d;" horiz-adv-x="754" 
d="M67 975l74 487h174l-113 -487h-135zM439 975l74 487h173l-112 -487h-135z" />
    <glyph glyph-name="quoteleft" unicode="&#x2018;" horiz-adv-x="382" 
d="M315 1462l-75 -487h-173l113 487h135z" />
    <glyph glyph-name="quoteright" unicode="&#x2019;" horiz-adv-x="382" 
d="M67 975l74 487h174l-113 -487h-135z" />
    <glyph glyph-name="divide" unicode="&#xf7;" 
d="M71 677v134h963v-134h-963zM478 322v184h149v-184h-149zM478 982v184h149v-184h-149z" />
    <glyph glyph-name="lozenge" unicode="&#x25ca;" 
d="M15 713l538 771l537 -771l-537 -770zM198 713l355 -519l354 519l-354 520z" />
    <glyph glyph-name="ydieresis" unicode="&#xff;" horiz-adv-x="999" 
d="M424 2l-379 1027h164l300 -845l268 845h166l-406 -1195q-40 -118 -81.5 -181.5t-94.5 -87.5q-78 -36 -239 -36v137q117 1 163 35t87 149zM228 1207v214h148v-214h-148zM623 1207v214h148v-214h-148z" />
    <glyph glyph-name="Ydieresis" unicode="&#x178;" horiz-adv-x="1090" 
d="M462 0v528l-461 934h180l366 -759l365 759h181l-461 -934v-528h-170zM271 1631v214h148v-214h-148zM670 1631v214h148v-214h-148z" />
    <glyph glyph-name="fraction" unicode="&#x2044;" horiz-adv-x="331" 
d="M-127 0l459 1462h155l-460 -1462h-154z" />
    <glyph glyph-name="Euro" unicode="&#x20ac;" 
d="M171 615v118h-190l47 119h143v33q0 165 24 262q80 331 429 331q250 0 358 -160q57 -83 64 -210l-157 -12q-9 86 -50 141q-73 98 -212 98q-171 0 -239 -147q-47 -101 -47 -304v-32h565l-47 -119h-518v-118h467l-47 -119h-417q5 -118 32 -195q62 -181 266 -181
q117 0 188.5 55.5t86.5 157.5l147 -19q-8 -131 -82 -212q-115 -125 -346 -125q-301 0 -410 241q-46 103 -53 278h-185l47 119h136z" />
    <glyph glyph-name="guilsinglleft" unicode="&#x2039;" horiz-adv-x="510" 
d="M255 604l182 -254l-98 -71l-265 325l265 326l98 -71z" />
    <glyph glyph-name="guilsinglright" unicode="&#x203a;" horiz-adv-x="510" 
d="M255 604l-182 255l98 71l265 -326l-265 -325l-98 71z" />
    <glyph glyph-name="daggerdbl" unicode="&#x2021;" 
d="M470 864h-339v143h339v455h165v-455h340v-143h-340v-320h314v-143h-314v-723h-165v723h-313v143h313v320z" />
    <glyph glyph-name="periodcentered" unicode="&#xb7;" horiz-adv-x="575" 
d="M204 642v203h170v-203h-170z" />
    <glyph glyph-name="quotesinglbase" unicode="&#x201a;" horiz-adv-x="382" 
d="M67 -284l74 487h174l-113 -487h-135z" />
    <glyph glyph-name="quotedblbase" unicode="&#x201e;" horiz-adv-x="754" 
d="M67 -284l74 487h174l-113 -487h-135zM439 -284l74 487h173l-112 -487h-135z" />
    <glyph glyph-name="perthousand" unicode="&#x2030;" horiz-adv-x="2553" 
d="M90 976v181q0 164 69 238q78 85 238 85t233.5 -77.5t73.5 -245.5v-181q0 -164 -69 -238q-78 -85 -238 -85t-233.5 77.5t-73.5 245.5zM564 992v149q0 230 -167 230t-167 -230v-149q0 -230 167 -230t167 230zM1104 305v182q0 164 68 238q79 85 238 85q161 0 234.5 -77.5
t73.5 -245.5v-182q0 -164 -69 -238q-78 -85 -239 -85q-160 0 -233 77t-73 246zM1578 321v150q0 230 -167 230q-168 0 -168 -230v-150q0 -230 168 -230q167 0 167 230zM1849 305v182q0 163 68 238q78 85 238 85q161 0 234.5 -77.5t73.5 -245.5v-182q0 -164 -69 -238
q-78 -85 -239 -85q-160 0 -233 77.5t-73 245.5zM2323 321v150q0 230 -168 230q-167 0 -167 -230v-150q0 -230 167 -230q168 0 168 230zM597 0l459 1462h155l-459 -1462h-155z" />
    <glyph glyph-name="Acircumflex" unicode="&#xc2;" horiz-adv-x="1229" 
d="M936 319h-641l-110 -319h-185l535 1462h161l535 -1462h-185zM893 460l-277 786l-277 -786h554zM614 1790l-140 -165h-172l259 273h106l260 -273h-173z" />
    <glyph glyph-name="Ecircumflex" unicode="&#xca;" horiz-adv-x="1185" 
d="M214 0v1462h854v-143h-686v-507h585v-143h-585v-526h688v-143h-856zM647 1790l-140 -165h-172l259 273h106l260 -273h-173z" />
    <glyph glyph-name="Aacute" unicode="&#xc1;" horiz-adv-x="1229" 
d="M936 319h-641l-110 -319h-185l535 1462h161l535 -1462h-185zM893 460l-277 786l-277 -786h554zM524 1616l154 292h198l-228 -292h-124z" />
    <glyph glyph-name="Edieresis" unicode="&#xcb;" horiz-adv-x="1185" 
d="M214 0v1462h854v-143h-686v-507h585v-143h-585v-526h688v-143h-856zM375 1631v214h148v-214h-148zM774 1631v214h148v-214h-148z" />
    <glyph glyph-name="Egrave" unicode="&#xc8;" horiz-adv-x="1185" 
d="M214 0v1462h854v-143h-686v-507h585v-143h-585v-526h688v-143h-856zM762 1616h-124l-228 292h198z" />
    <glyph glyph-name="Iacute" unicode="&#xcd;" horiz-adv-x="596" 
d="M204 0v1462h170v-1462h-170zM194 1616l154 292h198l-228 -292h-124z" />
    <glyph glyph-name="Icircumflex" unicode="&#xce;" horiz-adv-x="596" 
d="M213 0v1462h170v-1462h-170zM298 1790l-140 -165h-172l259 273h106l260 -273h-173z" />
    <glyph glyph-name="Idieresis" unicode="&#xcf;" horiz-adv-x="596" 
d="M213 0v1462h170v-1462h-170zM24 1631v214h148v-214h-148zM423 1631v214h148v-214h-148z" />
    <glyph glyph-name="Igrave" unicode="&#xcc;" horiz-adv-x="596" 
d="M213 0v1462h170v-1462h-170zM398 1616h-124l-228 292h198z" />
    <glyph glyph-name="Oacute" unicode="&#xd3;" horiz-adv-x="1384" 
d="M178 551v360q0 163 31 259q49 154 185 241q112 70 298 70t298 -71q117 -73 166.5 -188t49.5 -311v-360q0 -163 -30 -259q-49 -154 -186 -240q-112 -71 -298 -71t-298 70q-116 74 -166 189t-50 311zM1036 568v326q0 122 -18 196t-61 132q-87 116 -265 116
q-192 0 -279 -136q-36 -57 -50.5 -126t-14.5 -182v-326q0 -121 18 -195.5t61 -132.5q87 -116 265 -116q192 0 279 136q36 57 50.5 126t14.5 182zM590 1616l154 292h198l-228 -292h-124z" />
    <glyph glyph-name="Ocircumflex" unicode="&#xd4;" horiz-adv-x="1384" 
d="M178 551v360q0 163 31 259q49 154 185 241q112 70 298 70t298 -71q117 -73 166.5 -188t49.5 -311v-360q0 -163 -30 -259q-49 -154 -186 -240q-112 -71 -298 -71t-298 70q-116 74 -166 189t-50 311zM1036 568v326q0 122 -18 196t-61 132q-87 116 -265 116
q-192 0 -279 -136q-36 -57 -50.5 -126t-14.5 -182v-326q0 -121 18 -195.5t61 -132.5q87 -116 265 -116q192 0 279 136q36 57 50.5 126t14.5 182zM692 1790l-140 -165h-172l259 273h106l260 -273h-173z" />
    <glyph glyph-name="glyph210" horiz-adv-x="410" 
 />
    <glyph glyph-name="Ograve" unicode="&#xd2;" horiz-adv-x="1384" 
d="M178 551v360q0 163 31 259q49 154 185 241q112 70 298 70t298 -71q117 -73 166.5 -188t49.5 -311v-360q0 -163 -30 -259q-49 -154 -186 -240q-112 -71 -298 -71t-298 70q-116 74 -166 189t-50 311zM1036 568v326q0 122 -18 196t-61 132q-87 116 -265 116
q-192 0 -279 -136q-36 -57 -50.5 -126t-14.5 -182v-326q0 -121 18 -195.5t61 -132.5q87 -116 265 -116q192 0 279 136q36 57 50.5 126t14.5 182zM799 1616h-124l-228 292h198z" />
    <glyph glyph-name="Uacute" unicode="&#xda;" horiz-adv-x="1413" 
d="M207 1462h170v-925q0 -112 12 -174t42 -109q44 -68 108.5 -98.5t166.5 -30.5q138 0 210 56q68 54 94 130.5t26 225.5v925h170v-925q0 -155 -19 -237.5t-69 -148.5q-64 -82 -149 -122q-100 -47 -263 -47q-206 0 -318 80q-127 91 -162 237q-19 79 -19 238v925zM618 1616
l154 292h198l-228 -292h-124z" />
    <glyph glyph-name="Ucircumflex" unicode="&#xdb;" horiz-adv-x="1413" 
d="M207 1462h170v-925q0 -112 12 -174t42 -109q44 -68 108.5 -98.5t166.5 -30.5q138 0 210 56q68 54 94 130.5t26 225.5v925h170v-925q0 -155 -19 -237.5t-69 -148.5q-64 -82 -149 -122q-100 -47 -263 -47q-206 0 -318 80q-127 91 -162 237q-19 79 -19 238v925zM706 1790
l-140 -165h-172l259 273h106l260 -273h-173z" />
    <glyph glyph-name="Ugrave" unicode="&#xd9;" horiz-adv-x="1413" 
d="M207 1462h170v-925q0 -112 12 -174t42 -109q44 -68 108.5 -98.5t166.5 -30.5q138 0 210 56q68 54 94 130.5t26 225.5v925h170v-925q0 -155 -19 -237.5t-69 -148.5q-64 -82 -149 -122q-100 -47 -263 -47q-206 0 -318 80q-127 91 -162 237q-19 79 -19 238v925zM836 1616
h-124l-228 292h198z" />
    <glyph glyph-name="dotlessi" unicode="&#x131;" horiz-adv-x="522" 
d="M180 0v1029h163v-1029h-163z" />
    <glyph glyph-name="circumflex" unicode="&#x2c6;" horiz-adv-x="1024" 
d="M512 1366l-140 -165h-172l259 273h106l260 -273h-173z" />
    <glyph glyph-name="tilde" unicode="&#x2dc;" horiz-adv-x="1024" 
d="M294 1221h-105q27 105 50 146q52 88 148 88q77 0 150 -65q44 -40 65.5 -52.5t42.5 -12.5q57 0 85 115h105q-26 -108 -48 -150q-46 -85 -145 -85q-45 0 -79 15t-76 53q-41 38 -61.5 50t-42.5 12q-61 0 -89 -114z" />
    <glyph glyph-name="macron" unicode="&#xaf;" horiz-adv-x="1024" 
d="M249 1267v120h527v-120h-527z" />
    <glyph glyph-name="breve" unicode="&#x2d8;" horiz-adv-x="1024" 
d="M227 1465h111q8 -76 34 -107q41 -51 140 -51q87 0 126 35t49 123h110q-6 -122 -36 -174q-32 -57 -91.5 -83t-157.5 -26q-104 0 -166 30t-92 96q-21 46 -27 157z" />
    <glyph glyph-name="dotaccent" unicode="&#x2d9;" horiz-adv-x="1024" 
d="M431 1207v214h159v-214h-159z" />
    <glyph glyph-name="ring" unicode="&#x2da;" horiz-adv-x="1024" 
d="M514 1591q95 0 153 -55q60 -58 60 -152t-59.5 -151.5t-155.5 -57.5q-97 0 -155 57q-61 59 -61 152q0 95 59 151t159 56zM513 1505q-104 0 -104 -122t102 -122q103 0 103 122q0 58 -26.5 90t-74.5 32z" />
    <glyph glyph-name="cedilla" unicode="&#xb8;" horiz-adv-x="1024" 
d="M379 -455l107 313h170l-163 -313h-114z" />
    <glyph glyph-name="hungarumlaut" unicode="&#x2dd;" horiz-adv-x="1024" 
d="M301 1192l123 291h183l-189 -291h-117zM577 1192l123 291h183l-189 -291h-117z" />
    <glyph glyph-name="ogonek" unicode="&#x2db;" horiz-adv-x="1024" 
d="M602 0h145q-105 -61 -151 -110.5t-46 -103.5q0 -84 104 -84q55 0 119 20l17 -94q-79 -28 -164 -28q-224 0 -224 161q0 71 52 133t148 106z" />
    <glyph glyph-name="caron" unicode="&#x2c7;" horiz-adv-x="1024" 
d="M512 1306l140 165h173l-260 -273h-105l-260 273h172z" />
    <glyph glyph-name="nonbreakingspace" unicode="&#xa0;" horiz-adv-x="410" 
 />
    <glyph glyph-name="currency" unicode="&#xa4;" 
d="M129 162l-87 80l175 181q-48 69 -67.5 127.5t-19.5 134.5q0 138 87 262l-175 182l87 79l170 -179q119 83 255 83q134 0 253 -83l170 179l87 -79l-175 -182q87 -123 87 -262q0 -138 -87 -262l175 -181l-87 -80l-170 179q-118 -82 -254 -82q-135 0 -254 82zM557 988
q-135 0 -215 -93q-71 -81 -71 -210q0 -127 71 -209q80 -93 211 -93t211 93q71 82 71 210q0 129 -71 209q-82 93 -207 93z" />
    <glyph glyph-name="brokenbar" unicode="&#xa6;" horiz-adv-x="1024" 
d="M433 928v534h158v-534h-158zM433 0v514h158v-514h-158z" />
    <glyph glyph-name="uni00AD" unicode="&#xad;" horiz-adv-x="974" 
d="M199 672v143h576v-143h-576z" />
    <glyph glyph-name="twosuperior" unicode="&#xb2;" horiz-adv-x="700" 
d="M85 790v87l258 306q133 157 133 257q0 61 -35 96t-96 35q-120 0 -151 -129l-125 14q18 106 65 152q73 72 214 72q263 0 263 -243q0 -82 -35 -151.5t-135 -188.5l-167 -198h334v-109h-523z" />
    <glyph glyph-name="threesuperior" unicode="&#xb3;" horiz-adv-x="700" 
d="M215 1203v96h91q66 0 111.5 40t45.5 98q0 59 -37.5 95t-99.5 36q-113 0 -141 -101l-122 14q15 94 63 135q70 61 205 61q267 0 267 -236q0 -71 -25 -114t-84 -74q133 -65 133 -220q0 -253 -296 -253q-167 0 -242 81q-35 38 -46 116l127 23q27 -111 158 -111q76 0 120 40
t44 109q0 72 -49 118.5t-125 46.5h-98z" />
    <glyph glyph-name="onesuperior" unicode="&#xb9;" horiz-adv-x="483" 
d="M200 791v743l-158 -62l-37 102l236 93h94v-876h-135z" />
    <glyph glyph-name="onequarter" unicode="&#xbc;" horiz-adv-x="1761" 
d="M310 586v743l-158 -62l-37 101l236 94h94v-876h-135zM485 0l459 1462h154l-459 -1462h-154zM1375 0v165h-382v81l300 631h144l-289 -605h227v189h122v-189h92v-109h-92v-163h-122z" />
    <glyph glyph-name="onehalf" unicode="&#xbd;" horiz-adv-x="1761" 
d="M306 586v743l-158 -62l-37 101l236 94h94v-876h-135zM462 0l460 1462h154l-459 -1462h-155zM1059 0v87l259 306q132 156 132 256q0 61 -35 96t-96 35q-120 0 -151 -129l-125 15q19 105 65 151q72 72 215 72q262 0 262 -243q0 -82 -34.5 -151t-135.5 -188l-166 -198h333
v-109h-523z" />
    <glyph glyph-name="threequarters" unicode="&#xbe;" horiz-adv-x="1761" 
d="M229 999v96h91q66 0 111.5 39.5t45.5 97.5q0 59 -37.5 95t-99.5 36q-113 0 -141 -101l-122 15q15 94 63 135q70 60 205 60q267 0 267 -235q0 -71 -25 -113.5t-84 -74.5q133 -65 133 -221q0 -253 -296 -253q-168 0 -242 81q-35 38 -46 117l127 23q26 -112 158 -112
q77 0 120.5 40t43.5 110q0 72 -49 118.5t-125 46.5h-98zM1431 0v165h-383v81l301 631h144l-289 -605h227v189h122v-189h92v-109h-92v-163h-122zM580 0l459 1462h154l-459 -1462h-154z" />
    <glyph glyph-name="Eth" unicode="&#xd0;" horiz-adv-x="1388" 
d="M213 810v652h466q241 -1 364 -104q90 -74 128.5 -178t38.5 -275v-348q0 -117 -14.5 -191.5t-50.5 -140.5q-63 -115 -176.5 -170t-289.5 -55h-466v670h-171v140h171zM383 810h349v-140h-349v-529h269q193 0 278 83q110 108 110 350v315q0 241 -110 349q-85 83 -278 83
h-269v-511z" />
    <glyph glyph-name="multiply" unicode="&#xd7;" 
d="M461 744l-325 324l94 94l324 -324l325 324l93 -94l-324 -324l324 -324l-93 -94l-325 324l-324 -324l-94 94z" />
    <glyph glyph-name="Yacute" unicode="&#xdd;" horiz-adv-x="1090" 
d="M462 0v528l-461 934h180l366 -759l365 759h181l-461 -934v-528h-170zM466 1616l154 292h198l-228 -292h-124z" />
    <glyph glyph-name="Thorn" unicode="&#xde;" horiz-adv-x="1243" 
d="M384 332v-332h-170v1462h170v-235h301q151 0 236 -33q234 -90 234 -414q0 -234 -125 -349q-58 -53 -138.5 -76t-206.5 -23h-301zM383 474h303q153 0 224 74q75 78 75 232q0 157 -73 231.5t-226 74.5h-302z" />
    <glyph glyph-name="eth" unicode="&#xf0;" horiz-adv-x="1141" 
d="M758 970q-54 140 -108 203l-234 -112l-63 105l200 95q-112 79 -249 102l20 109q207 -22 365 -147l173 82l63 -104l-145 -69q99 -126 157 -303t58 -353v-143q0 -216 -86 -323q-106 -131 -341 -131q-249 0 -352 154q-70 104 -70 300v143q0 220 90 328q106 126 309 126
q131 0 213 -62zM832 444v125q0 168 -64 248t-198 80q-154 0 -217 -109q-44 -79 -44 -219v-125q0 -168 64 -248t197 -80q156 0 218 109q44 78 44 219z" />
    <glyph glyph-name="yacute" unicode="&#xfd;" horiz-adv-x="999" 
d="M424 2l-379 1027h164l300 -845l268 845h166l-406 -1195q-40 -118 -81.5 -181.5t-94.5 -87.5q-78 -36 -239 -36v137q117 1 163 35t87 149zM418 1192l154 291h198l-228 -291h-124z" />
    <glyph glyph-name="thorn" unicode="&#xfe;" horiz-adv-x="1157" 
d="M344 75v-536h-163v1923h163v-502q104 88 283 88q227 0 320 -154q64 -106 64 -302v-155q0 -215 -79 -324q-95 -132 -308 -132q-173 0 -280 94zM849 446v136q0 331 -250 331q-255 0 -255 -315v-167q0 -315 255 -315q250 0 250 330z" />
    <glyph glyph-name="Amacron" unicode="&#x100;" horiz-adv-x="1229" 
d="M936 319h-641l-110 -319h-185l535 1462h161l535 -1462h-185zM893 460l-277 786l-277 -786h554zM352 1692v120h527v-120h-527z" />
    <glyph glyph-name="amacron" unicode="&#x101;" horiz-adv-x="1074" 
d="M738 604v72q0 112 -37 163q-54 74 -188 74q-153 0 -246 -103l-112 86q130 152 372 152q244 0 330 -150q44 -77 44 -247v-651h-130l-13 73q-49 -51 -115.5 -71.5t-183.5 -20.5q-198 0 -279 68.5t-81 236.5q0 187 97 258q82 60 294 60h248zM738 481h-232q-136 0 -193 -43.5
t-57 -147.5q0 -98 52.5 -136t187.5 -38q162 0 214 68q28 37 28 137v160zM274 1267v120h527v-120h-527z" />
    <glyph glyph-name="Abreve" unicode="&#x102;" horiz-adv-x="1229" 
d="M936 319h-641l-110 -319h-185l535 1462h161l535 -1462h-185zM893 460l-277 786l-277 -786h554zM329 1889h111q8 -76 34 -107q41 -51 140 -51q87 0 125.5 35t49.5 123h110q-6 -122 -36 -173q-32 -57 -91.5 -83t-157.5 -26q-104 0 -166 30t-92 96q-21 46 -27 156z" />
    <glyph glyph-name="abreve" unicode="&#x103;" horiz-adv-x="1074" 
d="M738 604v72q0 112 -37 163q-54 74 -188 74q-153 0 -246 -103l-112 86q130 152 372 152q244 0 330 -150q44 -77 44 -247v-651h-130l-13 73q-49 -51 -115.5 -71.5t-183.5 -20.5q-198 0 -279 68.5t-81 236.5q0 187 97 258q82 60 294 60h248zM738 481h-232q-136 0 -193 -43.5
t-57 -147.5q0 -98 52.5 -136t187.5 -38q162 0 214 68q28 37 28 137v160zM256 1465h111q8 -76 34 -107q41 -51 140 -51q87 0 126 35t49 123h110q-6 -122 -36 -174q-32 -57 -91.5 -83t-157.5 -26q-104 0 -166 30t-92 96q-21 46 -27 157z" />
    <glyph glyph-name="Aogonek" unicode="&#x104;" horiz-adv-x="1229" 
d="M1231 0q-107 -63 -152 -111.5t-45 -102.5q0 -84 104 -84q54 0 119 20l16 -94q-79 -28 -163 -28q-224 0 -224 161q0 108 123 195q39 28 78 44h-41l-110 319h-641l-110 -319h-185l535 1462h161zM893 460l-277 786l-277 -786h554z" />
    <glyph glyph-name="aogonek" unicode="&#x105;" horiz-adv-x="1074" 
d="M901 0q-106 -61 -152 -110.5t-46 -103.5q0 -84 104 -84q55 0 120 20l16 -94q-79 -28 -164 -28q-224 0 -224 161q0 150 215 246l-12 66q-50 -51 -116 -71.5t-183 -20.5q-198 0 -279 68.5t-81 236.5q0 187 97 258q82 60 294 60h248v72q0 112 -37 163q-54 74 -188 74
q-153 0 -246 -103l-112 86q130 152 372 152q244 0 330 -150q44 -77 44 -247v-651zM738 481h-232q-136 0 -193 -43.5t-57 -147.5q0 -98 52.5 -136t187.5 -38q162 0 214 68q28 37 28 137v160z" />
    <glyph glyph-name="Cacute" unicode="&#x106;" horiz-adv-x="1294" 
d="M984 363l160 -18q-9 -142 -92 -230q-127 -134 -385 -134q-276 0 -401 185q-48 70 -68 165.5t-20 248.5v300q0 173 26 269q87 330 465 330q272 0 390 -159q63 -84 70 -211l-157 -12q-12 88 -57 141q-84 98 -243 98q-194 0 -271 -148q-53 -101 -53 -317v-282
q0 -237 66 -341q78 -124 259 -124q133 0 214 62t97 177zM568 1616l154 292h198l-228 -292h-124z" />
    <glyph glyph-name="cacute" unicode="&#x107;" horiz-adv-x="973" 
d="M792 217l122 -74q-117 -162 -353 -162q-415 0 -415 479v86q0 240 86 359q104 143 323 143q237 0 339 -167l-125 -71q-43 57 -88 80t-116 23q-152 0 -214 -121q-42 -82 -42 -235v-113q0 -328 261 -328q142 0 222 101zM451 1192l154 291h198l-228 -291h-124z" />
    <glyph glyph-name="Ccircumflex" unicode="&#x108;" horiz-adv-x="1294" 
d="M984 363l160 -18q-9 -142 -92 -230q-127 -134 -385 -134q-276 0 -401 185q-48 70 -68 165.5t-20 248.5v300q0 173 26 269q87 330 465 330q272 0 390 -159q63 -84 70 -211l-157 -12q-12 88 -57 141q-84 98 -243 98q-194 0 -271 -148q-53 -101 -53 -317v-282
q0 -237 66 -341q78 -124 259 -124q133 0 214 62t97 177zM669 1790l-140 -165h-172l259 273h106l260 -273h-173z" />
    <glyph glyph-name="ccircumflex" unicode="&#x109;" horiz-adv-x="973" 
d="M792 217l122 -74q-117 -162 -353 -162q-415 0 -415 479v86q0 240 86 359q104 143 323 143q237 0 339 -167l-125 -71q-43 57 -88 80t-116 23q-152 0 -214 -121q-42 -82 -42 -235v-113q0 -328 261 -328q142 0 222 101zM546 1366l-140 -165h-172l259 273h106l260 -273h-173z
" />
    <glyph glyph-name="Cdotaccent" unicode="&#x10a;" horiz-adv-x="1294" 
d="M984 363l160 -18q-9 -142 -92 -230q-127 -134 -385 -134q-276 0 -401 185q-48 70 -68 165.5t-20 248.5v300q0 173 26 269q87 330 465 330q272 0 390 -159q63 -84 70 -211l-157 -12q-12 88 -57 141q-84 98 -243 98q-194 0 -271 -148q-53 -101 -53 -317v-282
q0 -237 66 -341q78 -124 259 -124q133 0 214 62t97 177zM592 1630v214h159v-214h-159z" />
    <glyph glyph-name="cdotaccent" unicode="&#x10b;" horiz-adv-x="973" 
d="M792 217l122 -74q-117 -162 -353 -162q-415 0 -415 479v86q0 240 86 359q104 143 323 143q237 0 339 -167l-125 -71q-43 57 -88 80t-116 23q-152 0 -214 -121q-42 -82 -42 -235v-113q0 -328 261 -328q142 0 222 101zM469 1207v214h159v-214h-159z" />
    <glyph glyph-name="Ccaron" unicode="&#x10c;" horiz-adv-x="1294" 
d="M984 363l160 -18q-9 -142 -92 -230q-127 -134 -385 -134q-276 0 -401 185q-48 70 -68 165.5t-20 248.5v300q0 173 26 269q87 330 465 330q272 0 390 -159q63 -84 70 -211l-157 -12q-12 88 -57 141q-84 98 -243 98q-194 0 -271 -148q-53 -101 -53 -317v-282
q0 -237 66 -341q78 -124 259 -124q133 0 214 62t97 177zM668 1730l140 165h173l-260 -273h-105l-260 273h172z" />
    <glyph glyph-name="ccaron" unicode="&#x10d;" horiz-adv-x="973" 
d="M792 217l122 -74q-117 -162 -353 -162q-415 0 -415 479v86q0 240 86 359q104 143 323 143q237 0 339 -167l-125 -71q-43 57 -88 80t-116 23q-152 0 -214 -121q-42 -82 -42 -235v-113q0 -328 261 -328q142 0 222 101zM559 1306l140 165h173l-260 -273h-105l-260 273h172z
" />
    <glyph glyph-name="Dcaron" unicode="&#x10e;" horiz-adv-x="1388" 
d="M213 0v1462h466q241 -1 364 -104q90 -74 128.5 -178t38.5 -275v-348q0 -117 -14.5 -191.5t-50.5 -140.5q-63 -115 -176.5 -170t-289.5 -55h-466zM383 141h269q193 0 278 83q110 108 110 349v316q0 241 -110 349q-85 83 -278 83h-269v-1180zM634 1730l140 165h173
l-260 -273h-105l-260 273h172z" />
    <glyph glyph-name="dcaron" unicode="&#x10f;" horiz-adv-x="1312" 
d="M847 0l-10 88q-7 -6 -37 -35q-35 -32 -107.5 -52t-157.5 -20q-150 0 -234 57q-155 106 -155 399v155q0 216 79 324q49 68 123 100t184 32q134 0 223 -51q13 -7 58 -46v511h163v-1462h-129zM308 582v-135q0 -331 250 -331q255 0 255 315v167q0 315 -255 315
q-250 0 -250 -331zM1140 1008l53 471h167l-105 -471h-115z" />
    <glyph glyph-name="Dcroat" unicode="&#x110;" horiz-adv-x="1388" 
d="M213 810v652h466q241 -1 364 -104q90 -74 128.5 -178t38.5 -275v-348q0 -117 -14.5 -191.5t-50.5 -140.5q-63 -115 -176.5 -170t-289.5 -55h-466v670h-171v140h171zM383 810h349v-140h-349v-529h269q193 0 278 83q110 108 110 350v315q0 241 -110 349q-85 83 -278 83
h-269v-511z" />
    <glyph glyph-name="dcroat" unicode="&#x111;" horiz-adv-x="1157" 
d="M813 1172h-308v115h308v175h163v-175h167v-115h-167v-1172h-129l-10 88q-7 -6 -37 -35q-35 -32 -107.5 -52t-157.5 -20q-150 0 -234 57q-155 106 -155 399v155q0 216 79 324q49 68 123 100t184 32q134 0 223 -50q13 -8 58 -47v221zM308 582v-135q0 -331 250 -331
q255 0 255 315v167q0 315 -255 315q-250 0 -250 -331z" />
    <glyph glyph-name="Emacron" unicode="&#x112;" horiz-adv-x="1185" 
d="M214 0v1462h854v-143h-686v-507h585v-143h-585v-526h688v-143h-856zM374 1692v120h527v-120h-527z" />
    <glyph glyph-name="emacron" unicode="&#x113;" horiz-adv-x="1113" 
d="M309 481v-44q0 -139 59 -220q73 -101 228 -101q154 0 236 101l121 -77q-61 -84 -149 -121.5t-223 -37.5q-256 0 -362 164q-73 112 -73 323v86q0 235 83 351q54 75 132 108q81 35 203 35q217 0 317.5 -119t100.5 -375v-73h-673zM309 604h518v16q0 128 -55 205
q-63 88 -203 88q-156 0 -215 -104q-45 -77 -45 -189v-16zM307 1267v120h527v-120h-527z" />
    <glyph glyph-name="Ebreve" unicode="&#x114;" horiz-adv-x="1185" 
d="M214 0v1462h854v-143h-686v-507h585v-143h-585v-526h688v-143h-856zM356 1889h111q8 -76 34 -107q41 -51 140 -51q87 0 125.5 35t49.5 123h110q-6 -122 -36 -173q-32 -57 -91.5 -83t-157.5 -26q-104 0 -166 30t-92 96q-21 46 -27 156z" />
    <glyph glyph-name="ebreve" unicode="&#x115;" horiz-adv-x="1113" 
d="M309 481v-44q0 -139 59 -220q73 -101 228 -101q154 0 236 101l121 -77q-61 -84 -149 -121.5t-223 -37.5q-256 0 -362 164q-73 112 -73 323v86q0 235 83 351q54 75 132 108q81 35 203 35q217 0 317.5 -119t100.5 -375v-73h-673zM309 604h518v16q0 128 -55 205
q-63 88 -203 88q-156 0 -215 -104q-45 -77 -45 -189v-16zM280 1465h111q8 -76 34 -107q41 -51 140 -51q87 0 126 35t49 123h110q-6 -122 -36 -174q-32 -57 -91.5 -83t-157.5 -26q-104 0 -166 30t-92 96q-21 46 -27 157z" />
    <glyph glyph-name="Edotaccent" unicode="&#x116;" horiz-adv-x="1185" 
d="M214 0v1462h854v-143h-686v-507h585v-143h-585v-526h688v-143h-856zM571 1630v214h159v-214h-159z" />
    <glyph glyph-name="edotaccent" unicode="&#x117;" horiz-adv-x="1113" 
d="M309 481v-44q0 -139 59 -220q73 -101 228 -101q154 0 236 101l121 -77q-61 -84 -149 -121.5t-223 -37.5q-256 0 -362 164q-73 112 -73 323v86q0 235 83 351q54 75 132 108q81 35 203 35q217 0 317.5 -119t100.5 -375v-73h-673zM309 604h518v16q0 128 -55 205
q-63 88 -203 88q-156 0 -215 -104q-45 -77 -45 -189v-16zM493 1207v214h159v-214h-159z" />
    <glyph glyph-name="Eogonek" unicode="&#x118;" horiz-adv-x="1185" 
d="M214 0v1462h854v-143h-686v-507h585v-143h-585v-526h688v-143q-104 -59 -151 -109.5t-47 -104.5q0 -84 104 -84q55 0 120 20l16 -94q-86 -28 -162 -28q-226 0 -226 161q0 146 200 239h-710z" />
    <glyph glyph-name="eogonek" unicode="&#x119;" horiz-adv-x="1113" 
d="M313 481v-44q0 -139 59 -220q73 -101 228 -101q154 0 236 101l121 -74q-66 -94 -168 -131q-13 -9 -20 -13q-92 -56 -131.5 -105t-39.5 -107q0 -85 104 -85q55 0 119 20l17 -94q-86 -28 -163 -28q-225 0 -225 163q0 64 32.5 115t107.5 103q-444 -4 -440 487v86
q0 236 85 352q105 144 333 144q217 0 317.5 -119.5t100.5 -376.5v-73h-673zM313 604h518v16q0 128 -55 205q-63 88 -203 88q-156 0 -215 -104q-45 -77 -45 -189v-16z" />
    <glyph glyph-name="Ecaron" unicode="&#x11a;" horiz-adv-x="1185" 
d="M214 0v1462h854v-143h-686v-507h585v-143h-585v-526h688v-143h-856zM652 1730l140 165h173l-260 -273h-105l-260 273h172z" />
    <glyph glyph-name="ecaron" unicode="&#x11b;" horiz-adv-x="1113" 
d="M309 481v-44q0 -139 59 -220q73 -101 228 -101q154 0 236 101l121 -77q-61 -84 -149 -121.5t-223 -37.5q-256 0 -362 164q-73 112 -73 323v86q0 235 83 351q54 75 132 108q81 35 203 35q217 0 317.5 -119t100.5 -375v-73h-673zM309 604h518v16q0 128 -55 205
q-63 88 -203 88q-156 0 -215 -104q-45 -77 -45 -189v-16zM574 1306l140 165h173l-260 -273h-105l-260 273h172z" />
    <glyph glyph-name="Gcircumflex" unicode="&#x11c;" horiz-adv-x="1357" 
d="M729 631v137h472v-229q0 -157 -27 -246q-50 -158 -185 -242q-115 -70 -297 -70q-191 0 -302 70q-116 73 -164 193t-48 336v299q0 174 26 270q91 330 477 330q280 0 401 -159q64 -84 71 -211l-156 -12q-13 87 -60 141q-86 98 -252 98q-203 0 -282 -148q-55 -102 -55 -317
v-283q0 -236 70 -341q82 -123 271 -123t277 120q37 51 52 109.5t15 150.5v127h-304zM679 1790l-140 -165h-172l259 273h106l260 -273h-173z" />
    <glyph glyph-name="gcircumflex" unicode="&#x11d;" horiz-adv-x="1156" 
d="M816 80q-96 -99 -285 -99q-228 0 -321 155q-64 105 -64 301v155q0 215 79 324q49 69 123 100.5t186 31.5q106 0 176 -26t125 -85l12 92h129v-1028q0 -480 -439 -480q-127 0 -213.5 39t-145.5 123l122 74q45 -56 98 -80.5t133 -24.5q142 0 209.5 79.5t72.5 252.5zM308 582
v-136q0 -330 250 -330q255 0 255 315v167q0 315 -255 315q-250 0 -250 -331zM587 1366l-140 -165h-172l259 273h106l260 -273h-173z" />
    <glyph glyph-name="Gbreve" unicode="&#x11e;" horiz-adv-x="1357" 
d="M729 631v137h472v-229q0 -157 -27 -246q-50 -158 -185 -242q-115 -70 -297 -70q-191 0 -302 70q-116 73 -164 193t-48 336v299q0 174 26 270q91 330 477 330q280 0 401 -159q64 -84 71 -211l-156 -12q-13 87 -60 141q-86 98 -252 98q-203 0 -282 -148q-55 -102 -55 -317
v-283q0 -236 70 -341q82 -123 271 -123t277 120q37 51 52 109.5t15 150.5v127h-304zM397 1889h111q8 -76 34 -107q41 -51 140 -51q87 0 125.5 35t49.5 123h110q-6 -122 -36 -173q-32 -57 -91.5 -83t-157.5 -26q-104 0 -166 30t-92 96q-21 46 -27 156z" />
    <glyph glyph-name="gbreve" unicode="&#x11f;" horiz-adv-x="1156" 
d="M816 80q-96 -99 -285 -99q-228 0 -321 155q-64 105 -64 301v155q0 215 79 324q49 69 123 100.5t186 31.5q106 0 176 -26t125 -85l12 92h129v-1028q0 -480 -439 -480q-127 0 -213.5 39t-145.5 123l122 74q45 -56 98 -80.5t133 -24.5q142 0 209.5 79.5t72.5 252.5zM308 582
v-136q0 -330 250 -330q255 0 255 315v167q0 315 -255 315q-250 0 -250 -331zM318 1465h111q8 -76 34 -107q41 -51 140 -51q87 0 126 35t49 123h110q-6 -122 -36 -174q-32 -57 -91.5 -83t-157.5 -26q-104 0 -166 30t-92 96q-21 46 -27 157z" />
    <glyph glyph-name="Gdotaccent" unicode="&#x120;" horiz-adv-x="1357" 
d="M729 631v137h472v-229q0 -157 -27 -246q-50 -158 -185 -242q-115 -70 -297 -70q-191 0 -302 70q-116 73 -164 193t-48 336v299q0 174 26 270q91 330 477 330q280 0 401 -159q64 -84 71 -211l-156 -12q-13 87 -60 141q-86 98 -252 98q-203 0 -282 -148q-55 -102 -55 -317
v-283q0 -236 70 -341q82 -123 271 -123t277 120q37 51 52 109.5t15 150.5v127h-304zM602 1630v214h159v-214h-159z" />
    <glyph glyph-name="gdotaccent" unicode="&#x121;" horiz-adv-x="1156" 
d="M816 80q-96 -99 -285 -99q-228 0 -321 155q-64 105 -64 301v155q0 215 79 324q49 69 123 100.5t186 31.5q106 0 176 -26t125 -85l12 92h129v-1028q0 -480 -439 -480q-127 0 -213.5 39t-145.5 123l122 74q45 -56 98 -80.5t133 -24.5q142 0 209.5 79.5t72.5 252.5zM308 582
v-136q0 -330 250 -330q255 0 255 315v167q0 315 -255 315q-250 0 -250 -331zM527 1207v214h159v-214h-159z" />
    <glyph glyph-name="Gcommaaccent" unicode="&#x122;" horiz-adv-x="1357" 
d="M729 631v137h472v-229q0 -157 -27 -246q-50 -158 -185 -242q-115 -70 -297 -70q-191 0 -302 70q-116 73 -164 193t-48 336v299q0 174 26 270q91 330 477 330q280 0 401 -159q64 -84 71 -211l-156 -12q-13 87 -60 141q-86 98 -252 98q-203 0 -282 -148q-55 -102 -55 -317
v-283q0 -236 70 -341q82 -123 271 -123t277 120q37 51 52 109.5t15 150.5v127h-304zM521 -455l107 313h170l-163 -313h-114z" />
    <glyph glyph-name="gcommaaccent" unicode="&#x123;" horiz-adv-x="1156" 
d="M816 80q-96 -99 -285 -99q-228 0 -321 155q-64 105 -64 301v155q0 215 79 324q49 69 123 100.5t186 31.5q106 0 176 -26t125 -85l12 92h129v-1028q0 -480 -439 -480q-127 0 -213.5 39t-145.5 123l122 74q45 -56 98 -80.5t133 -24.5q142 0 209.5 79.5t72.5 252.5zM308 582
v-136q0 -330 250 -330q255 0 255 315v167q0 315 -255 315q-250 0 -250 -331zM484 1192l228 291h124l-154 -291h-198z" />
    <glyph glyph-name="Hcircumflex" unicode="&#x124;" horiz-adv-x="1394" 
d="M213 0v1462h170v-650h627v650h170v-1462h-170v669h-627v-669h-170zM696 1790l-140 -165h-172l259 273h106l260 -273h-173z" />
    <glyph glyph-name="hcircumflex" unicode="&#x125;" horiz-adv-x="1158" 
d="M181 0v1462h163v-515q90 101 269 101q269 0 342 -199q31 -85 31 -258v-591h-163v575q0 138 -28 207q-51 127 -205 127q-131 0 -188.5 -88.5t-57.5 -289.5v-531h-163zM333 1790l-140 -165h-172l259 273h106l260 -273h-173z" />
    <glyph glyph-name="Hbar" unicode="&#x126;" horiz-adv-x="1394" 
d="M213 0v1017h-134v126h134v319h170v-319h628v319h170v-319h134v-126h-134v-1017h-170v669h-628v-669h-170zM383 812h628v205h-628v-205z" />
    <glyph glyph-name="hbar" unicode="&#x127;" horiz-adv-x="1158" 
d="M181 1172h-167v115h167v175h163v-175h308v-115h-308v-225q90 101 268 101q270 0 343 -199q31 -85 31 -258v-591h-163v575q0 138 -28 207q-51 127 -206 127q-130 0 -187.5 -88.5t-57.5 -289.5v-531h-163v1172z" />
    <glyph glyph-name="Itilde" unicode="&#x128;" horiz-adv-x="596" 
d="M213 0v1462h170v-1462h-170zM80 1646h-105q27 105 50 146q52 88 148 88q77 0 150 -65q45 -41 66 -53.5t42 -12.5q57 0 85 115h105q-25 -106 -48 -149q-46 -85 -145 -85q-45 0 -79 15t-76 54q-41 37 -61.5 49.5t-43.5 12.5q-60 0 -88 -115z" />
    <glyph glyph-name="itilde" unicode="&#x129;" horiz-adv-x="522" 
d="M180 0v1029h163v-1029h-163zM43 1221h-105q27 105 50 146q52 88 148 88q77 0 150 -65q44 -40 65.5 -52.5t42.5 -12.5q57 0 85 115h105q-26 -108 -48 -150q-46 -85 -145 -85q-45 0 -79 15t-76 53q-41 38 -61.5 50t-42.5 12q-61 0 -89 -114z" />
    <glyph glyph-name="Imacron" unicode="&#x12a;" horiz-adv-x="596" 
d="M213 0v1462h170v-1462h-170zM35 1692v120h527v-120h-527z" />
    <glyph glyph-name="imacron" unicode="&#x12b;" horiz-adv-x="522" 
d="M180 0v1029h163v-1029h-163zM-2 1267v120h527v-120h-527z" />
    <glyph glyph-name="Ibreve" unicode="&#x12c;" horiz-adv-x="596" 
d="M213 0v1462h170v-1462h-170zM13 1889h111q8 -76 34 -107q41 -51 140 -51q87 0 125.5 35t49.5 123h110q-6 -122 -36 -173q-32 -57 -91.5 -83t-157.5 -26q-104 0 -166 30t-92 96q-21 46 -27 156z" />
    <glyph glyph-name="ibreve" unicode="&#x12d;" horiz-adv-x="522" 
d="M180 0v1029h163v-1029h-163zM-24 1465h111q8 -76 34 -107q41 -51 140 -51q87 0 126 35t49 123h110q-6 -122 -36 -174q-32 -57 -91.5 -83t-157.5 -26q-104 0 -166 30t-92 96q-21 46 -27 157z" />
    <glyph glyph-name="Iogonek" unicode="&#x12e;" horiz-adv-x="596" 
d="M383 0q-163 -98 -163 -204q0 -93 97 -93q56 0 118 19l17 -94q-80 -28 -165 -28q-215 0 -215 168q0 143 176 232h-35v1462h170v-1462z" />
    <glyph glyph-name="iogonek" unicode="&#x12f;" horiz-adv-x="522" 
d="M343 0q-86 -57 -123.5 -105.5t-37.5 -102.5q0 -89 97 -89q53 0 116 19l17 -94q-79 -28 -162 -28q-216 0 -216 165q0 139 165 235h-19v1029h163v-1029zM180 1252v217h163v-217h-163z" />
    <glyph glyph-name="Idotaccent" unicode="&#x130;" horiz-adv-x="596" 
d="M212 0v1462h170v-1462h-170zM216 1630v214h159v-214h-159z" />
    <glyph glyph-name="IJ" unicode="&#x132;" horiz-adv-x="1193" 
d="M213 0v1462h170v-1462h-170zM811 1462h170v-1369q0 -186 -10.5 -268.5t-42.5 -141.5q-96 -180 -348 -180q-94 0 -193 33l56 133q60 -23 120 -23q171 0 224 154q24 68 24 288v1374z" />
    <glyph glyph-name="ij" unicode="&#x133;" horiz-adv-x="1057" 
d="M180 1252v217h163v-217h-163zM180 0v1029h163v-1029h-163zM713 1029h163v-1053q0 -155 -22.5 -237t-78.5 -131q-48 -43 -117 -60t-198 -19v138q91 0 133.5 15.5t74.5 59.5q26 36 35.5 82t9.5 135v1070zM713 1252v217h163v-217h-163z" />
    <glyph glyph-name="Jcircumflex" unicode="&#x134;" horiz-adv-x="953" 
d="M580 1462h170v-890q0 -186 -10.5 -268.5t-42.5 -141.5q-96 -180 -352 -180q-208 0 -363 142l94 116q115 -115 258 -115q169 0 222 154q24 68 24 288v895zM637 1790l-140 -165h-172l259 273h106l260 -273h-173z" />
    <glyph glyph-name="jcircumflex" unicode="&#x135;" horiz-adv-x="535" 
d="M183 1029h163v-1053q0 -155 -22.5 -237t-78.5 -131q-48 -43 -117 -60t-198 -19v138q91 0 133.5 15.5t74.5 59.5q26 36 35.5 82t9.5 135v1070zM260 1366l-140 -165h-172l259 273h106l260 -273h-173z" />
    <glyph glyph-name="Kcommaaccent" unicode="&#x136;" horiz-adv-x="1266" 
d="M215 0v1462h168v-800l628 800h200l-476 -590l525 -872h-196l-438 753l-243 -302v-451h-168zM509 -455l107 313h170l-163 -313h-114z" />
    <glyph glyph-name="kcommaaccent" unicode="&#x137;" horiz-adv-x="1046" 
d="M180 0v1462h163v-1017l457 584h187l-351 -436l388 -593h-179l-307 472l-195 -243v-229h-163zM390 -455l107 313h170l-163 -313h-114z" />
    <glyph glyph-name="kgreenlandic" unicode="&#x138;" horiz-adv-x="1046" 
d="M180 0v1029h163v-584l457 584h187l-351 -436l388 -593h-179l-307 472l-195 -243v-229h-163z" />
    <glyph glyph-name="Lacute" unicode="&#x139;" horiz-adv-x="1092" 
d="M213 0v1462h170v-1319h689v-143h-859zM254 1616l154 292h198l-228 -292h-124z" />
    <glyph glyph-name="lacute" unicode="&#x13a;" horiz-adv-x="597" 
d="M177 1462h163v-1135q0 -110 36.5 -150t136.5 -40h53v-137h-60q-201 0 -267 76q-62 72 -62 266v1120zM196 1616l154 291h198l-228 -291h-124z" />
    <glyph glyph-name="Lcommaaccent" unicode="&#x13b;" horiz-adv-x="1092" 
d="M213 0v1462h170v-1319h689v-143h-859zM453 -455l107 313h170l-163 -313h-114z" />
    <glyph glyph-name="lcommaaccent" unicode="&#x13c;" horiz-adv-x="597" 
d="M174 1462h163v-1135q0 -110 36.5 -150t136.5 -40h53v-137h-60q-201 0 -267 76q-62 72 -62 266v1120zM162 -455l107 313h170l-163 -313h-114z" />
    <glyph glyph-name="Lcaron" unicode="&#x13d;" horiz-adv-x="1092" 
d="M213 0v1462h170v-1319h689v-143h-859zM586 1008l53 471h167l-105 -471h-115z" />
    <glyph glyph-name="lcaron" unicode="&#x13e;" horiz-adv-x="704" 
d="M177 1462h163v-1135q0 -110 36.5 -150t136.5 -40h53v-137h-60q-201 0 -267 76q-62 72 -62 266v1120zM516 1008l53 471h167l-105 -471h-115z" />
    <glyph glyph-name="Ldot" unicode="&#x13f;" horiz-adv-x="1092" 
d="M213 0v1462h170v-1319h689v-143h-859zM751 642v203h150v-203h-150z" />
    <glyph glyph-name="ldot" unicode="&#x140;" horiz-adv-x="664" 
d="M177 1462h163v-1135q0 -110 36.5 -150t136.5 -40h53v-137h-60q-201 0 -267 76q-62 72 -62 266v1120zM515 642v203h150v-203h-150z" />
    <glyph glyph-name="Lslash" unicode="&#x141;" horiz-adv-x="1092" 
d="M213 0v445l-156 -104v157l156 104v860h170v-759l418 279v-157l-418 -279v-403h689v-143h-859z" />
    <glyph glyph-name="lslash" unicode="&#x142;" horiz-adv-x="621" 
d="M190 750v712h163v-614l239 160v-160l-239 -160v-361q0 -110 36.5 -150t136.5 -40h53v-137h-60q-193 0 -262 70q-66 68 -66 228v292l-193 -130v160z" />
    <glyph glyph-name="Nacute" unicode="&#x143;" horiz-adv-x="1478" 
d="M213 0v1462h164l722 -1170v1170h165v-1462h-163l-722 1170v-1170h-166zM670 1616l154 292h198l-228 -292h-124z" />
    <glyph glyph-name="nacute" unicode="&#x144;" horiz-adv-x="1158" 
d="M181 0v1029h126l13 -114q89 133 290 133q272 0 345 -199q31 -85 31 -258v-591h-163v575q0 138 -28 207q-51 127 -205 127q-133 0 -189.5 -89t-56.5 -297v-523h-163zM489 1192l154 291h198l-228 -291h-124z" />
    <glyph glyph-name="Ncommaaccent" unicode="&#x145;" horiz-adv-x="1478" 
d="M213 0v1462h164l722 -1170v1170h165v-1462h-163l-722 1170v-1170h-166zM588 -455l107 313h170l-163 -313h-114z" />
    <glyph glyph-name="ncommaaccent" unicode="&#x146;" horiz-adv-x="1158" 
d="M181 0v1029h126l13 -114q89 133 290 133q272 0 345 -199q31 -85 31 -258v-591h-163v575q0 138 -28 207q-51 127 -205 127q-133 0 -189.5 -89t-56.5 -297v-523h-163zM420 -455l107 313h170l-163 -313h-114z" />
    <glyph glyph-name="Ncaron" unicode="&#x147;" horiz-adv-x="1478" 
d="M213 0v1462h164l722 -1170v1170h165v-1462h-163l-722 1170v-1170h-166zM765 1730l140 165h173l-260 -273h-105l-260 273h172z" />
    <glyph glyph-name="ncaron" unicode="&#x148;" horiz-adv-x="1158" 
d="M181 0v1029h126l13 -114q89 133 290 133q272 0 345 -199q31 -85 31 -258v-591h-163v575q0 138 -28 207q-51 127 -205 127q-133 0 -189.5 -89t-56.5 -297v-523h-163zM572 1306l140 165h173l-260 -273h-105l-260 273h172z" />
    <glyph glyph-name="napostrophe" unicode="&#x149;" horiz-adv-x="1247" 
d="M269 0v1029h126l13 -114q87 133 290 133q273 0 346 -199q31 -85 31 -258v-591h-163v575q0 138 -28 207q-51 127 -206 127q-133 0 -189.5 -89t-56.5 -297v-523h-163zM24 973l74 489h177l-113 -489h-138z" />
    <glyph glyph-name="Eng" unicode="&#x14a;" horiz-adv-x="1478" 
d="M213 0v1462h164l722 -1165v1165h165v-1488q0 -154 -22 -235.5t-77 -130.5q-48 -43 -117 -60t-197 -19v135q90 0 134 15.5t75 59.5q46 63 46 211v65l-727 1155v-1170h-166z" />
    <glyph glyph-name="eng" unicode="&#x14b;" horiz-adv-x="1158" 
d="M181 0v1029h126l13 -114q89 133 290 133q272 0 345 -199q31 -85 31 -258v-615q0 -155 -22.5 -237t-78.5 -131q-49 -43 -117.5 -60t-197.5 -19v138q89 -1 132.5 15t75.5 60q26 36 35.5 82.5t9.5 134.5v616q0 138 -28 207q-51 127 -205 127q-133 0 -189.5 -89t-56.5 -297
v-523h-163z" />
    <glyph glyph-name="Omacron" unicode="&#x14c;" horiz-adv-x="1384" 
d="M178 551v360q0 163 31 259q49 154 185 241q112 70 298 70t298 -71q117 -73 166.5 -188t49.5 -311v-360q0 -163 -30 -259q-49 -154 -186 -240q-112 -71 -298 -71t-298 70q-116 74 -166 189t-50 311zM1036 568v326q0 122 -18 196t-61 132q-87 116 -265 116
q-192 0 -279 -136q-36 -57 -50.5 -126t-14.5 -182v-326q0 -121 18 -195.5t61 -132.5q87 -116 265 -116q192 0 279 136q36 57 50.5 126t14.5 182zM429 1692v120h527v-120h-527z" />
    <glyph glyph-name="omacron" unicode="&#x14d;" horiz-adv-x="1141" 
d="M146 435v158q0 216 86 323q106 132 335 132q256 0 358 -154q70 -105 70 -301v-158q0 -216 -86 -323q-106 -131 -341 -131q-249 0 -352 154q-70 104 -70 300zM832 444v140q0 169 -63.5 249t-198.5 80q-155 0 -217 -109q-44 -79 -44 -220v-140q0 -168 64 -248t197 -80
q156 0 218 109q44 78 44 219zM308 1267v120h527v-120h-527z" />
    <glyph glyph-name="Obreve" unicode="&#x14e;" horiz-adv-x="1384" 
d="M178 551v360q0 163 31 259q49 154 185 241q112 70 298 70t298 -71q117 -73 166.5 -188t49.5 -311v-360q0 -163 -30 -259q-49 -154 -186 -240q-112 -71 -298 -71t-298 70q-116 74 -166 189t-50 311zM1036 568v326q0 122 -18 196t-61 132q-87 116 -265 116
q-192 0 -279 -136q-36 -57 -50.5 -126t-14.5 -182v-326q0 -121 18 -195.5t61 -132.5q87 -116 265 -116q192 0 279 136q36 57 50.5 126t14.5 182zM407 1889h111q8 -76 34 -107q41 -51 140 -51q87 0 125.5 35t49.5 123h110q-6 -122 -36 -173q-32 -57 -91.5 -83t-157.5 -26
q-104 0 -166 30t-92 96q-21 46 -27 156z" />
    <glyph glyph-name="obreve" unicode="&#x14f;" horiz-adv-x="1141" 
d="M146 435v158q0 216 86 323q106 132 335 132q256 0 358 -154q70 -105 70 -301v-158q0 -216 -86 -323q-106 -131 -341 -131q-249 0 -352 154q-70 104 -70 300zM832 444v140q0 169 -63.5 249t-198.5 80q-155 0 -217 -109q-44 -79 -44 -220v-140q0 -168 64 -248t197 -80
q156 0 218 109q44 78 44 219zM285 1465h111q8 -76 34 -107q41 -51 140 -51q87 0 126 35t49 123h110q-6 -122 -36 -174q-32 -57 -91.5 -83t-157.5 -26q-104 0 -166 30t-92 96q-21 46 -27 157z" />
    <glyph glyph-name="Ohungarumlaut" unicode="&#x150;" horiz-adv-x="1384" 
d="M178 551v360q0 163 31 259q49 154 185 241q112 70 298 70t298 -71q117 -73 166.5 -188t49.5 -311v-360q0 -163 -30 -259q-49 -154 -186 -240q-112 -71 -298 -71t-298 70q-116 74 -166 189t-50 311zM1036 568v326q0 122 -18 196t-61 132q-87 116 -265 116
q-192 0 -279 -136q-36 -57 -50.5 -126t-14.5 -182v-326q0 -121 18 -195.5t61 -132.5q87 -116 265 -116q192 0 279 136q36 57 50.5 126t14.5 182zM481 1616l123 292h183l-189 -292h-117zM757 1616l123 292h183l-189 -292h-117z" />
    <glyph glyph-name="ohungarumlaut" unicode="&#x151;" horiz-adv-x="1141" 
d="M146 435v158q0 216 86 323q106 132 335 132q256 0 358 -154q70 -105 70 -301v-158q0 -216 -86 -323q-106 -131 -341 -131q-249 0 -352 154q-70 104 -70 300zM832 444v140q0 169 -63.5 249t-198.5 80q-155 0 -217 -109q-44 -79 -44 -220v-140q0 -168 64 -248t197 -80
q156 0 218 109q44 78 44 219zM360 1192l123 291h183l-189 -291h-117zM636 1192l123 291h183l-189 -291h-117z" />
    <glyph glyph-name="Racute" unicode="&#x154;" horiz-adv-x="1322" 
d="M385 632v-632h-170v1462h501q131 0 212 -25t138 -82q104 -105 104 -301q0 -178 -73.5 -276.5t-228.5 -127.5l321 -650h-188l-300 632h-316zM383 773h336q144 0 210 66q71 71 71 207q0 141 -73 208t-226 67h-318v-548zM559 1616l154 292h198l-228 -292h-124z" />
    <glyph glyph-name="racute" unicode="&#x155;" horiz-adv-x="767" 
d="M181 0v1029h128l16 -96q44 61 102 88t145 27q100 0 198 -52l-69 -139q-74 48 -144 48q-112 0 -162.5 -95.5t-50.5 -307.5v-502h-163zM346 1192l154 291h198l-228 -291h-124z" />
    <glyph glyph-name="Rcommaaccent" unicode="&#x156;" horiz-adv-x="1322" 
d="M385 632v-632h-170v1462h501q131 0 212 -25t138 -82q104 -105 104 -301q0 -178 -73.5 -276.5t-228.5 -127.5l321 -650h-188l-300 632h-316zM383 773h336q144 0 210 66q71 71 71 207q0 141 -73 208t-226 67h-318v-548zM502 -455l107 313h170l-163 -313h-114z" />
    <glyph glyph-name="rcommaaccent" unicode="&#x157;" horiz-adv-x="767" 
d="M180 0v1029h128l16 -96q44 61 102 88t145 27q100 0 198 -52l-69 -139q-74 48 -144 48q-112 0 -162.5 -95.5t-50.5 -307.5v-502h-163zM73 -455l107 313h170l-163 -313h-114z" />
    <glyph glyph-name="Rcaron" unicode="&#x158;" horiz-adv-x="1322" 
d="M385 632v-632h-170v1462h501q131 0 212 -25t138 -82q104 -105 104 -301q0 -178 -73.5 -276.5t-228.5 -127.5l321 -650h-188l-300 632h-316zM383 773h336q144 0 210 66q71 71 71 207q0 141 -73 208t-226 67h-318v-548zM646 1730l140 165h173l-260 -273h-105l-260 273h172z
" />
    <glyph glyph-name="rcaron" unicode="&#x159;" horiz-adv-x="768" 
d="M181 0v1029h128l16 -96q44 61 102 88t145 27q100 0 198 -52l-69 -139q-74 48 -144 48q-112 0 -162.5 -95.5t-50.5 -307.5v-502h-163zM446 1306l140 165h173l-260 -273h-105l-260 273h172z" />
    <glyph glyph-name="Sacute" unicode="&#x15a;" horiz-adv-x="1186" 
d="M93 196l132 87q97 -158 363 -158q179 0 264 82q72 69 72 180q0 126 -89 188q-41 29 -74.5 40.5t-195.5 52.5q-197 50 -294 127q-124 99 -124 288q0 179 108 283q119 114 340 114q147 0 255.5 -47t166.5 -137l-130 -84q-89 126 -297 126q-141 0 -213 -74q-65 -67 -65 -172
q0 -112 74.5 -175t261.5 -110q147 -36 198 -55t106 -56q137 -94 137 -302q0 -186 -113 -290q-131 -122 -390 -122q-359 0 -493 214zM499 1616l154 292h198l-228 -292h-124z" />
    <glyph glyph-name="sacute" unicode="&#x15b;" horiz-adv-x="969" 
d="M58 140l118 78q55 -57 115.5 -79.5t161.5 -22.5q260 0 260 172q0 92 -70 127q-48 24 -190 43q-107 15 -163 33.5t-93 50.5q-82 70 -82 201q0 148 89 227q87 78 252 78q130 0 220.5 -40t151.5 -124l-122 -74q-48 56 -102 79.5t-136 23.5q-94 0 -143 -39q-54 -43 -54 -122
q0 -83 64 -119q44 -25 162 -40q208 -28 281 -81q92 -67 92 -229q0 -302 -411 -302q-292 0 -401 159zM381 1192l154 291h198l-228 -291h-124z" />
    <glyph glyph-name="Scircumflex" unicode="&#x15c;" horiz-adv-x="1186" 
d="M93 196l132 87q97 -158 363 -158q179 0 264 82q72 69 72 180q0 126 -89 188q-41 29 -74.5 40.5t-195.5 52.5q-197 50 -294 127q-124 99 -124 288q0 179 108 283q119 114 340 114q147 0 255.5 -47t166.5 -137l-130 -84q-89 126 -297 126q-141 0 -213 -74q-65 -67 -65 -172
q0 -112 74.5 -175t261.5 -110q147 -36 198 -55t106 -56q137 -94 137 -302q0 -186 -113 -290q-131 -122 -390 -122q-359 0 -493 214zM601 1790l-140 -165h-172l259 273h106l260 -273h-173z" />
    <glyph glyph-name="scircumflex" unicode="&#x15d;" horiz-adv-x="969" 
d="M58 140l118 78q55 -57 115.5 -79.5t161.5 -22.5q260 0 260 172q0 92 -70 127q-48 24 -190 43q-107 15 -163 33.5t-93 50.5q-82 70 -82 201q0 148 89 227q87 78 252 78q130 0 220.5 -40t151.5 -124l-122 -74q-48 56 -102 79.5t-136 23.5q-94 0 -143 -39q-54 -43 -54 -122
q0 -83 64 -119q44 -25 162 -40q208 -28 281 -81q92 -67 92 -229q0 -302 -411 -302q-292 0 -401 159zM475 1366l-140 -165h-172l259 273h106l260 -273h-173z" />
    <glyph glyph-name="Scedilla" unicode="&#x15e;" horiz-adv-x="1186" 
d="M93 196l132 87q97 -158 363 -158q179 0 264 82q72 69 72 180q0 126 -89 188q-41 29 -74.5 40.5t-195.5 52.5q-197 50 -294 127q-124 99 -124 288q0 179 108 283q119 114 340 114q147 0 255.5 -47t166.5 -137l-130 -84q-89 126 -297 126q-141 0 -213 -74q-65 -67 -65 -172
q0 -112 74.5 -175t261.5 -110q147 -36 198 -55t106 -56q137 -94 137 -302q0 -186 -113 -290q-131 -122 -390 -122q-359 0 -493 214zM413 -455l107 313h170l-163 -313h-114z" />
    <glyph glyph-name="scedilla" unicode="&#x15f;" horiz-adv-x="969" 
d="M58 140l118 78q55 -57 115.5 -79.5t161.5 -22.5q260 0 260 172q0 92 -70 127q-48 24 -190 43q-107 15 -163 33.5t-93 50.5q-82 70 -82 201q0 148 89 227q87 78 252 78q130 0 220.5 -40t151.5 -124l-122 -74q-48 56 -102 79.5t-136 23.5q-94 0 -143 -39q-54 -43 -54 -122
q0 -83 64 -119q44 -25 162 -40q208 -28 281 -81q92 -67 92 -229q0 -302 -411 -302q-292 0 -401 159zM306 -455l107 313h170l-163 -313h-114z" />
    <glyph glyph-name="Scaron" unicode="&#x160;" horiz-adv-x="1186" 
d="M93 196l132 87q97 -158 363 -158q179 0 264 82q72 69 72 180q0 126 -89 188q-41 29 -74.5 40.5t-195.5 52.5q-197 50 -294 127q-124 99 -124 288q0 179 108 283q119 114 340 114q147 0 255.5 -47t166.5 -137l-130 -84q-89 126 -297 126q-141 0 -213 -74q-65 -67 -65 -172
q0 -112 74.5 -175t261.5 -110q147 -36 198 -55t106 -56q137 -94 137 -302q0 -186 -113 -290q-131 -122 -390 -122q-359 0 -493 214zM610 1730l140 165h173l-260 -273h-105l-260 273h172z" />
    <glyph glyph-name="scaron" unicode="&#x161;" horiz-adv-x="969" 
d="M58 140l118 78q55 -57 115.5 -79.5t161.5 -22.5q260 0 260 172q0 92 -70 127q-48 24 -190 43q-107 15 -163 33.5t-93 50.5q-82 70 -82 201q0 148 89 227q87 78 252 78q130 0 220.5 -40t151.5 -124l-122 -74q-48 56 -102 79.5t-136 23.5q-94 0 -143 -39q-54 -43 -54 -122
q0 -83 64 -119q44 -25 162 -40q208 -28 281 -81q92 -67 92 -229q0 -302 -411 -302q-292 0 -401 159zM479 1306l140 165h173l-260 -273h-105l-260 273h172z" />
    <glyph glyph-name="Tcommaaccent" unicode="&#x162;" horiz-adv-x="1135" 
d="M484 0v1319h-421v143h1010v-143h-419v-1319h-170zM389 -455l107 313h170l-163 -313h-114z" />
    <glyph glyph-name="tcommaaccent" unicode="&#x163;" horiz-adv-x="685" 
d="M214 895h-125v134h125l8 328h155v-328h201v-134h-201v-568q0 -110 36.5 -150t136.5 -40h35v-137h-37q-190 0 -257 58q-41 36 -59 102t-18 182v553zM209 -455l107 313h170l-163 -313h-114z" />
    <glyph glyph-name="Tcaron" unicode="&#x164;" horiz-adv-x="1135" 
d="M484 0v1319h-421v143h1010v-143h-419v-1319h-170zM567 1730l140 165h173l-260 -273h-105l-260 273h172z" />
    <glyph glyph-name="tcaron" unicode="&#x165;" horiz-adv-x="772" 
d="M214 895h-125v134h125l8 328h155v-328h201v-134h-201v-568q0 -110 36.5 -150t136.5 -40h35v-137h-37q-190 0 -257 58q-41 36 -59 102t-18 182v553zM603 1136l50 424h167l-102 -424h-115z" />
    <glyph glyph-name="Tbar" unicode="&#x166;" horiz-adv-x="1135" 
d="M485 0v670h-287v140h287v509h-422v143h1010v-143h-418v-509h283v-140h-283v-670h-170z" />
    <glyph glyph-name="tbar" unicode="&#x167;" horiz-adv-x="688" 
d="M219 895h-124v134h124l8 328h155v-328h202v-134h-202v-182h202v-115h-202v-284q0 -100 38 -140q35 -37 135 -37h36v-137h-37q-191 0 -258 58q-77 66 -77 253v287h-125v115h125v182z" />
    <glyph glyph-name="Utilde" unicode="&#x168;" horiz-adv-x="1413" 
d="M207 1462h170v-925q0 -112 12 -174t42 -109q44 -68 108.5 -98.5t166.5 -30.5q138 0 210 56q68 54 94 130.5t26 225.5v925h170v-925q0 -155 -19 -237.5t-69 -148.5q-64 -82 -149 -122q-100 -47 -263 -47q-206 0 -318 80q-127 91 -162 237q-19 79 -19 238v925zM488 1646
h-105q27 105 50 146q52 88 148 88q77 0 150 -65q45 -41 66 -53.5t42 -12.5q57 0 85 115h105q-25 -106 -48 -149q-46 -85 -145 -85q-45 0 -79 15t-76 54q-41 37 -61.5 49.5t-43.5 12.5q-60 0 -88 -115z" />
    <glyph glyph-name="utilde" unicode="&#x169;" horiz-adv-x="1136" 
d="M172 1029h163v-575q0 -138 26 -206q49 -128 196 -128q127 0 181 89t54 297v523h163v-1029h-126l-13 115q-84 -134 -279 -134q-265 0 -335 199q-30 85 -30 258v591zM350 1221h-105q27 105 50 146q52 88 148 88q77 0 150 -65q44 -40 65.5 -52.5t42.5 -12.5q57 0 85 115h105
q-26 -108 -48 -150q-46 -85 -145 -85q-45 0 -79 15t-76 53q-41 38 -61.5 50t-42.5 12q-61 0 -89 -114z" />
    <glyph glyph-name="Umacron" unicode="&#x16a;" horiz-adv-x="1413" 
d="M207 1462h170v-925q0 -112 12 -174t42 -109q44 -68 108.5 -98.5t166.5 -30.5q138 0 210 56q68 54 94 130.5t26 225.5v925h170v-925q0 -155 -19 -237.5t-69 -148.5q-64 -82 -149 -122q-100 -47 -263 -47q-206 0 -318 80q-127 91 -162 237q-19 79 -19 238v925zM443 1692
v120h527v-120h-527z" />
    <glyph glyph-name="umacron" unicode="&#x16b;" horiz-adv-x="1136" 
d="M172 1029h163v-575q0 -138 26 -206q49 -128 196 -128q127 0 181 89t54 297v523h163v-1029h-126l-13 115q-84 -134 -279 -134q-265 0 -335 199q-30 85 -30 258v591zM305 1267v120h527v-120h-527z" />
    <glyph glyph-name="Ubreve" unicode="&#x16c;" horiz-adv-x="1413" 
d="M207 1462h170v-925q0 -112 12 -174t42 -109q44 -68 108.5 -98.5t166.5 -30.5q138 0 210 56q68 54 94 130.5t26 225.5v925h170v-925q0 -155 -19 -237.5t-69 -148.5q-64 -82 -149 -122q-100 -47 -263 -47q-206 0 -318 80q-127 91 -162 237q-19 79 -19 238v925zM421 1889
h111q8 -76 34 -107q41 -51 140 -51q87 0 125.5 35t49.5 123h110q-6 -122 -36 -173q-32 -57 -91.5 -83t-157.5 -26q-104 0 -166 30t-92 96q-21 46 -27 156z" />
    <glyph glyph-name="ubreve" unicode="&#x16d;" horiz-adv-x="1136" 
d="M172 1029h163v-575q0 -138 26 -206q49 -128 196 -128q127 0 181 89t54 297v523h163v-1029h-126l-13 115q-84 -134 -279 -134q-265 0 -335 199q-30 85 -30 258v591zM283 1465h111q8 -76 34 -107q41 -51 140 -51q87 0 126 35t49 123h110q-6 -122 -36 -174
q-32 -57 -91.5 -83t-157.5 -26q-104 0 -166 30t-92 96q-21 46 -27 157z" />
    <glyph glyph-name="Uring" unicode="&#x16e;" horiz-adv-x="1413" 
d="M207 1462h170v-925q0 -112 12 -174t42 -109q44 -68 108.5 -98.5t166.5 -30.5q138 0 210 56q68 54 94 130.5t26 225.5v925h170v-925q0 -155 -19 -237.5t-69 -148.5q-64 -82 -149 -122q-100 -47 -263 -47q-206 0 -318 80q-127 91 -162 237q-19 79 -19 238v925zM710 2015
q94 0 152 -55q60 -57 60 -151q0 -95 -59.5 -152.5t-155.5 -57.5q-97 0 -155 57q-61 59 -61 152q0 96 59 151.5t160 55.5zM708 1929q-104 0 -104 -123q0 -121 102 -121q103 0 103 122q0 57 -26.5 89.5t-74.5 32.5z" />
    <glyph glyph-name="uring" unicode="&#x16f;" horiz-adv-x="1136" 
d="M172 1029h163v-575q0 -138 26 -206q49 -128 196 -128q127 0 181 89t54 297v523h163v-1029h-126l-13 115q-84 -134 -279 -134q-265 0 -335 199q-30 85 -30 258v591zM570 1591q95 0 153 -55q60 -58 60 -152t-59.5 -151.5t-155.5 -57.5q-97 0 -155 57q-61 59 -61 152
q0 95 59 151t159 56zM569 1505q-104 0 -104 -122t102 -122q103 0 103 122q0 58 -26.5 90t-74.5 32z" />
    <glyph glyph-name="Uhungarumlaut" unicode="&#x170;" horiz-adv-x="1413" 
d="M207 1462h170v-925q0 -112 12 -174t42 -109q44 -68 108.5 -98.5t166.5 -30.5q138 0 210 56q68 54 94 130.5t26 225.5v925h170v-925q0 -155 -19 -237.5t-69 -148.5q-64 -82 -149 -122q-100 -47 -263 -47q-206 0 -318 80q-127 91 -162 237q-19 79 -19 238v925zM500 1616
l123 292h183l-189 -292h-117zM776 1616l123 292h183l-189 -292h-117z" />
    <glyph glyph-name="uhungarumlaut" unicode="&#x171;" horiz-adv-x="1136" 
d="M172 1029h163v-575q0 -138 26 -206q49 -128 196 -128q127 0 181 89t54 297v523h163v-1029h-126l-13 115q-84 -134 -279 -134q-265 0 -335 199q-30 85 -30 258v591zM357 1192l123 291h183l-189 -291h-117zM633 1192l123 291h183l-189 -291h-117z" />
    <glyph glyph-name="Uogonek" unicode="&#x172;" horiz-adv-x="1413" 
d="M207 1462h170v-925q0 -112 12 -174t42 -109q44 -68 108.5 -98.5t166.5 -30.5q138 0 210 56q68 54 94 130.5t26 225.5v925h170v-925q0 -165 -22 -249.5t-84 -156.5q-76 -89 -184 -122q-94 -63 -133 -113.5t-39 -108.5q0 -85 104 -85q54 0 120 20l16 -94q-86 -28 -162 -28
q-226 0 -226 165q0 122 131 218h-38q-286 0 -412 194q-40 61 -55 139t-15 221v925z" />
    <glyph glyph-name="uogonek" unicode="&#x173;" horiz-adv-x="1136" 
d="M955 0q-108 -63 -152.5 -111.5t-44.5 -102.5q0 -84 103 -84q55 0 120 20l16 -94q-79 -28 -164 -28q-223 0 -223 161q0 152 218 248l-12 106q-84 -134 -279 -134q-265 0 -335 199q-30 85 -30 258v591h163v-575q0 -138 26 -206q49 -128 196 -128q127 0 181 89t54 297v523
h163v-1029z" />
    <glyph glyph-name="Wcircumflex" unicode="&#x174;" horiz-adv-x="1794" 
d="M426 0l-368 1462h171l278 -1201l330 1201h120l330 -1201l278 1201h171l-368 -1462h-145l-326 1164l-325 -1164h-146zM897 1790l-140 -165h-172l259 273h106l260 -273h-173z" />
    <glyph glyph-name="wcircumflex" unicode="&#x175;" horiz-adv-x="1579" 
d="M394 0l-317 1029h166l226 -808l264 808h113l264 -808l226 808h165l-316 -1029h-132l-264 774l-263 -774h-132zM789 1366l-140 -165h-172l259 273h106l260 -273h-173z" />
    <glyph glyph-name="Ycircumflex" unicode="&#x176;" horiz-adv-x="1090" 
d="M462 0v528l-461 934h180l366 -759l365 759h181l-461 -934v-528h-170zM545 1790l-140 -165h-172l259 273h106l260 -273h-173z" />
    <glyph glyph-name="ycircumflex" unicode="&#x177;" horiz-adv-x="999" 
d="M424 2l-379 1027h164l300 -845l268 845h166l-406 -1195q-40 -118 -81.5 -181.5t-94.5 -87.5q-78 -36 -239 -36v137q117 1 163 35t87 149zM499 1366l-140 -165h-172l259 273h106l260 -273h-173z" />
    <glyph glyph-name="Zacute" unicode="&#x179;" horiz-adv-x="1113" 
d="M104 0v121l677 1198h-640v143h830v-121l-677 -1198h709v-143h-899zM500 1616l154 292h198l-228 -292h-124z" />
    <glyph glyph-name="zacute" unicode="&#x17a;" horiz-adv-x="972" 
d="M91 0v106l523 787h-482v136h685v-106l-522 -787h554v-136h-758zM409 1192l154 291h198l-228 -291h-124z" />
    <glyph glyph-name="Zdotaccent" unicode="&#x17b;" horiz-adv-x="1113" 
d="M104 0v121l677 1198h-640v143h830v-121l-677 -1198h709v-143h-899zM499 1630v214h159v-214h-159z" />
    <glyph glyph-name="zdotaccent" unicode="&#x17c;" horiz-adv-x="972" 
d="M91 0v106l523 787h-482v136h685v-106l-522 -787h554v-136h-758zM410 1207v214h159v-214h-159z" />
    <glyph glyph-name="Zcaron" unicode="&#x17d;" horiz-adv-x="1113" 
d="M104 0v121l677 1198h-640v143h830v-121l-677 -1198h709v-143h-899zM595 1730l140 165h173l-260 -273h-105l-260 273h172z" />
    <glyph glyph-name="zcaron" unicode="&#x17e;" horiz-adv-x="972" 
d="M91 0v106l523 787h-482v136h685v-106l-522 -787h554v-136h-758zM501 1306l140 165h173l-260 -273h-105l-260 273h172z" />
    <glyph glyph-name="Ohorn" unicode="&#x1a0;" horiz-adv-x="1435" 
d="M1287 1483h147q13 -41 13 -77q0 -137 -121 -232q-46 -36 -135 -88q15 -85 15 -175v-360q0 -163 -30 -259q-49 -154 -186 -240q-112 -71 -298 -71t-298 70q-116 74 -166 189t-50 311v360q0 163 31 259q49 155 185 241q113 71 299 71q362 0 476 -293q83 53 113.5 94.5
t30.5 102.5q0 46 -26 97zM1036 568v326q0 122 -18 196.5t-61 132.5q-87 116 -265 116q-192 0 -279 -136q-36 -57 -50.5 -126.5t-14.5 -182.5v-326q0 -121 18 -195.5t61 -132.5q87 -116 265 -116q192 0 279 136q36 57 50.5 126t14.5 182z" />
    <glyph glyph-name="ohorn" unicode="&#x1a1;" horiz-adv-x="1192" 
d="M1067 1048h147q13 -41 13 -81q0 -94 -54.5 -164.5t-182.5 -143.5q5 -56 5 -90v-134q0 -216 -86 -323q-106 -131 -341 -131q-249 0 -352 154q-70 104 -70 300v158q0 216 86 323q106 132 339 132q338 0 406 -279q7 6 11 9q55 41 75 71q29 43 29 101q0 52 -25 98zM832 444
v140q0 169 -63.5 249t-198.5 80q-155 0 -217 -109q-44 -79 -44 -220v-140q0 -168 64 -248t197 -80q156 0 218 109q44 78 44 219z" />
    <glyph glyph-name="Uhorn" unicode="&#x1af;" horiz-adv-x="1492" 
d="M207 1462h170v-925q0 -112 12 -174t42 -109q44 -68 108.5 -98.5t166.5 -30.5q138 0 210 56q68 54 94 130.5t26 225.5v925h170v-305q108 51 152 101.5t44 124.5q0 50 -26 100h147q13 -44 13 -82q0 -146 -154 -256q-50 -37 -176 -101v-507q0 -155 -19 -237.5t-69 -148.5
q-64 -82 -149 -122q-100 -47 -263 -47q-206 0 -318 80q-127 91 -162 237q-19 79 -19 238v925z" />
    <glyph glyph-name="uhorn" unicode="&#x1b0;" horiz-adv-x="1225" 
d="M172 1029h163v-575q0 -138 26 -206q49 -128 196 -128q127 0 181 89t54 297v523h163v-306q111 54 153 103t42 123q0 52 -25 99h147q13 -43 13 -81q0 -146 -154 -257q-47 -33 -176 -100v-610h-126l-13 115q-84 -134 -279 -134q-265 0 -335 199q-30 85 -30 258v591z" />
    <glyph glyph-name="uni01C4" unicode="&#x1c4;" horiz-adv-x="2419" 
d="M213 0v1462h466q241 -1 364 -104q90 -74 128.5 -178t38.5 -275v-348q0 -117 -14.5 -191.5t-50.5 -140.5q-63 -115 -176.5 -170t-289.5 -55h-466zM383 141h269q193 0 278 83q110 108 110 349v316q0 241 -110 349q-85 83 -278 83h-269v-1180zM1410 0v121l677 1198h-640v143
h830v-121l-677 -1198h708v-143h-898zM1860 1730l140 165h172l-259 -273h-106l-259 273h172z" />
    <glyph glyph-name="uni01C5" unicode="&#x1c5;" horiz-adv-x="2278" 
d="M213 0v1462h466q241 -1 364 -104q90 -74 128.5 -178t38.5 -275v-348q0 -117 -14.5 -191.5t-50.5 -140.5q-63 -115 -176.5 -170t-289.5 -55h-466zM383 141h269q193 0 278 83q110 108 110 349v316q0 241 -110 349q-85 83 -278 83h-269v-1180zM1397 0v106l523 787h-482v136
h685v-106l-522 -787h554v-136h-758zM1787 1306l140 165h172l-259 -273h-106l-259 273h172z" />
    <glyph glyph-name="uni01C6" unicode="&#x1c6;" horiz-adv-x="2129" 
d="M847 0l-10 88q-7 -6 -37 -35q-35 -32 -107.5 -52t-157.5 -20q-150 0 -234 57q-155 106 -155 399v155q0 216 79 324q49 68 123 100t184 32q134 0 223 -51q13 -7 58 -46v511h163v-1462h-129zM308 582v-135q0 -331 250 -331q255 0 255 315v167q0 315 -255 315
q-250 0 -250 -331zM1249 0v106l522 787h-481v136h684v-106l-522 -787h555v-136h-758zM1653 1306l140 165h172l-260 -273h-105l-260 273h172z" />
    <glyph glyph-name="uni01C7" unicode="&#x1c7;" horiz-adv-x="1688" 
d="M213 0v1462h170v-1319h689v-143h-859zM1306 1462h170v-1369q0 -186 -10.5 -268.5t-42.5 -141.5q-96 -180 -348 -180q-94 0 -193 33l56 133q60 -23 120 -23q171 0 224 154q24 68 24 288v1374z" />
    <glyph glyph-name="uni01C8" unicode="&#x1c8;" horiz-adv-x="1627" 
d="M213 0v1462h170v-1319h689v-143h-859zM1282 1252v217h163v-217h-163zM1282 1029h163v-1053q0 -155 -22.5 -237t-78.5 -131q-48 -43 -117 -60t-198 -19v138q91 0 133.5 15.5t74.5 59.5q26 36 35.5 82t9.5 135v1070z" />
    <glyph glyph-name="uni01C9" unicode="&#x1c9;" horiz-adv-x="1132" 
d="M177 1462h163v-1135q0 -110 36.5 -150t136.5 -40h53v-137h-60q-201 0 -267 76q-62 72 -62 266v1120zM787 1252v217h163v-217h-163zM787 1029h163v-1053q0 -154 -22.5 -236.5t-78.5 -131.5q-48 -43 -117 -60t-198 -19v138q91 0 133.5 15.5t74.5 59.5q26 36 35.5 82
t9.5 135v1070z" />
    <glyph glyph-name="uni01CA" unicode="&#x1ca;" horiz-adv-x="2074" 
d="M213 0v1462h164l722 -1170v1170h165v-1462h-163l-722 1170v-1170h-166zM1692 1462h170v-1369q0 -186 -10.5 -268.5t-42.5 -141.5q-96 -180 -348 -180q-94 0 -193 33l56 133q60 -23 120 -23q171 0 224 154q24 68 24 288v1374z" />
    <glyph glyph-name="uni01CB" unicode="&#x1cb;" horiz-adv-x="2013" 
d="M213 0v1462h164l722 -1170v1170h165v-1462h-163l-722 1170v-1170h-166zM1668 1029h163v-1053q0 -154 -22.5 -236.5t-78.5 -131.5q-48 -43 -117 -60t-198 -19v138q91 0 133.5 15.5t74.5 59.5q26 36 35.5 82t9.5 135v1070zM1668 1252v217h163v-217h-163z" />
    <glyph glyph-name="uni01CC" unicode="&#x1cc;" horiz-adv-x="1693" 
d="M181 0v1029h126l13 -114q89 133 290 133q274 0 346 -199q31 -85 31 -258v-591h-163v575q0 138 -28 207q-51 127 -206 127q-133 0 -189.5 -89t-56.5 -297v-523h-163zM1348 1029h163v-1053q0 -155 -22.5 -237t-78.5 -131q-48 -43 -116.5 -60t-197.5 -19v138
q91 0 133.5 15.5t73.5 59.5q26 36 35.5 82t9.5 135v1070zM1348 1252v217h163v-217h-163z" />
    <glyph glyph-name="uni01CD" unicode="&#x1cd;" horiz-adv-x="1229" 
d="M936 319h-641l-110 -319h-185l535 1462h161l535 -1462h-185zM893 460l-277 786l-277 -786h554zM614 1730l140 165h173l-260 -273h-105l-260 273h172z" />
    <glyph glyph-name="uni01CE" unicode="&#x1ce;" horiz-adv-x="1074" 
d="M738 604v72q0 112 -37 163q-54 74 -188 74q-153 0 -246 -103l-112 86q130 152 372 152q244 0 330 -150q44 -77 44 -247v-651h-130l-13 73q-49 -51 -115.5 -71.5t-183.5 -20.5q-198 0 -279 68.5t-81 236.5q0 187 97 258q82 60 294 60h248zM738 481h-232q-136 0 -193 -43.5
t-57 -147.5q0 -98 52.5 -136t187.5 -38q162 0 214 68q28 37 28 137v160zM541 1306l140 165h173l-260 -273h-105l-260 273h172z" />
    <glyph glyph-name="uni01CF" unicode="&#x1cf;" horiz-adv-x="596" 
d="M213 0v1462h170v-1462h-170zM298 1730l140 165h173l-260 -273h-105l-260 273h172z" />
    <glyph glyph-name="uni01D0" unicode="&#x1d0;" horiz-adv-x="522" 
d="M180 0v1029h163v-1029h-163zM261 1306l140 165h173l-260 -273h-105l-260 273h172z" />
    <glyph glyph-name="uni01D1" unicode="&#x1d1;" horiz-adv-x="1384" 
d="M178 551v360q0 163 31 259q48 154 185 241q111 70 298 70t298 -70q117 -74 166.5 -189t49.5 -311v-360q0 -163 -30 -259q-49 -154 -186 -241q-111 -70 -298 -70t-298 70q-116 74 -166 189t-50 311zM1037 568v326q0 122 -18 196t-61 132q-87 116 -266 116
q-193 0 -279 -136q-37 -57 -51.5 -126t-14.5 -182v-326q0 -122 18 -196t61 -132q87 -116 266 -116q193 0 280 136q36 57 50.5 126t14.5 182zM692 1730l140 165h172l-259 -273h-106l-259 273h172z" />
    <glyph glyph-name="uni01D2" unicode="&#x1d2;" horiz-adv-x="1141" 
d="M146 435v158q0 216 86 323q106 132 335 132q256 0 358 -154q70 -105 70 -301v-158q0 -216 -86 -323q-106 -131 -341 -131q-249 0 -352 154q-70 104 -70 300zM832 444v140q0 169 -63.5 249t-198.5 80q-155 0 -217 -109q-44 -79 -44 -220v-140q0 -168 64 -248t197 -80
q156 0 218 109q44 78 44 219zM570 1306l140 165h173l-260 -273h-105l-260 273h172z" />
    <glyph glyph-name="uni01D3" unicode="&#x1d3;" horiz-adv-x="1413" 
d="M207 1462h170v-925q0 -112 12 -174t42 -109q44 -68 108.5 -98.5t166.5 -30.5q138 0 210 56q68 54 94 130.5t26 225.5v925h170v-925q0 -155 -19 -237.5t-69 -148.5q-64 -82 -149 -122q-100 -47 -263 -47q-206 0 -318 80q-127 91 -162 237q-19 79 -19 238v925zM706 1730
l140 165h173l-260 -273h-105l-260 273h172z" />
    <glyph glyph-name="uni01D4" unicode="&#x1d4;" horiz-adv-x="1136" 
d="M172 1029h163v-575q0 -138 26 -206q49 -128 196 -128q127 0 181 89t54 297v523h163v-1029h-126l-13 115q-84 -134 -279 -134q-265 0 -335 199q-30 85 -30 258v591zM568 1306l140 165h173l-260 -273h-105l-260 273h172z" />
    <glyph glyph-name="Gcaron" unicode="&#x1e6;" horiz-adv-x="1357" 
d="M729 631v137h472v-229q0 -157 -27 -246q-50 -158 -185 -242q-115 -70 -297 -70q-191 0 -302 70q-116 73 -164 193t-48 336v299q0 174 26 270q91 330 477 330q280 0 401 -159q64 -84 71 -211l-156 -12q-13 87 -60 141q-86 98 -252 98q-203 0 -282 -148q-55 -102 -55 -317
v-283q0 -236 70 -341q82 -123 271 -123t277 120q37 51 52 109.5t15 150.5v127h-304zM682 1730l140 165h173l-260 -273h-105l-260 273h172z" />
    <glyph glyph-name="gcaron" unicode="&#x1e7;" horiz-adv-x="1156" 
d="M816 80q-96 -99 -285 -99q-228 0 -321 155q-64 105 -64 301v155q0 215 79 324q49 69 123 100.5t186 31.5q106 0 176 -26t125 -85l12 92h129v-1028q0 -480 -439 -480q-127 0 -213.5 39t-145.5 123l122 74q45 -56 98 -80.5t133 -24.5q142 0 209.5 79.5t72.5 252.5zM308 582
v-136q0 -330 250 -330q255 0 255 315v167q0 315 -255 315q-250 0 -250 -331zM601 1306l140 165h173l-260 -273h-105l-260 273h172z" />
    <glyph glyph-name="uni01EA" unicode="&#x1ea;" horiz-adv-x="1384" 
d="M900 9q-170 -113 -170 -221q0 -85 104 -85q57 0 119 19l16 -94q-79 -28 -163 -28q-224 0 -224 163q0 119 126 218h-7h-9q-186 0 -298 70q-116 74 -166 189.5t-50 310.5v360q0 163 31 259q49 154 185 241q112 70 298 70t298 -71q117 -73 166.5 -188t49.5 -311v-360
q0 -155 -27.5 -251t-92.5 -168q-80 -88 -186 -123zM1036 568v326q0 122 -18 196t-61 132q-87 116 -265 116q-192 0 -279 -136q-36 -57 -50.5 -126t-14.5 -182v-326q0 -122 18 -196t61 -132q87 -117 265 -117q192 0 279 136q36 57 50.5 126.5t14.5 182.5z" />
    <glyph glyph-name="uni01EB" unicode="&#x1eb;" horiz-adv-x="1141" 
d="M753 5q-140 -105 -140 -216q0 -86 103 -86q56 0 119 19l17 -94q-79 -28 -164 -28q-223 0 -223 164q0 119 110 217q-429 -1 -425 454v159q0 215 86 322q106 132 335 132q256 0 358 -154q70 -105 70 -300v-159q2 -351 -246 -430zM836 444v140q0 169 -63.5 249t-198.5 80
q-154 0 -217 -109q-44 -79 -44 -220v-140q0 -167 64 -247.5t197 -80.5q156 0 218 109q44 78 44 219z" />
    <glyph glyph-name="uni01F1" unicode="&#x1f1;" horiz-adv-x="2419" 
d="M213 0v1462h466q241 -1 364 -104q90 -74 128.5 -178t38.5 -275v-348q0 -117 -14.5 -191.5t-50.5 -140.5q-63 -115 -176.5 -170t-289.5 -55h-466zM383 141h269q193 0 278 83q110 108 110 349v316q0 241 -110 349q-85 83 -278 83h-269v-1180zM1410 0v121l677 1198h-640v143
h830v-121l-677 -1198h708v-143h-898z" />
    <glyph glyph-name="uni01F2" unicode="&#x1f2;" horiz-adv-x="2278" 
d="M213 0v1462h466q241 -1 364 -104q90 -74 128.5 -178t38.5 -275v-348q0 -117 -14.5 -191.5t-50.5 -140.5q-63 -115 -176.5 -170t-289.5 -55h-466zM383 141h269q193 0 278 83q110 108 110 349v316q0 241 -110 349q-85 83 -278 83h-269v-1180zM1397 0v106l523 787h-482v136
h685v-106l-522 -787h554v-136h-758z" />
    <glyph glyph-name="uni01F3" unicode="&#x1f3;" horiz-adv-x="2129" 
d="M847 0l-10 88q-7 -6 -37 -35q-35 -32 -107.5 -52t-157.5 -20q-150 0 -234 57q-155 106 -155 399v155q0 216 79 324q49 68 123 100t184 32q134 0 223 -51q13 -7 58 -46v511h163v-1462h-129zM308 582v-135q0 -331 250 -331q255 0 255 315v167q0 315 -255 315
q-250 0 -250 -331zM1249 0v106l522 787h-481v136h684v-106l-522 -787h555v-136h-758z" />
    <glyph glyph-name="uni01F4" unicode="&#x1f4;" horiz-adv-x="1357" 
d="M729 631v137h472v-229q0 -157 -27 -246q-50 -158 -185 -242q-115 -70 -297 -70q-191 0 -302 70q-116 73 -164 193t-48 336v299q0 174 26 270q91 330 477 330q280 0 401 -159q64 -84 71 -211l-156 -12q-13 87 -60 141q-86 98 -252 98q-203 0 -282 -148q-55 -102 -55 -317
v-283q0 -236 70 -341q82 -123 271 -123t277 120q37 51 52 109.5t15 150.5v127h-304zM585 1616l154 292h198l-228 -292h-124z" />
    <glyph glyph-name="uni01F5" unicode="&#x1f5;" horiz-adv-x="1156" 
d="M816 80q-96 -99 -285 -99q-228 0 -321 155q-64 105 -64 301v155q0 215 79 324q49 69 123 100.5t186 31.5q106 0 176 -26t125 -85l12 92h129v-1028q0 -480 -439 -480q-127 0 -213.5 39t-145.5 123l122 74q45 -56 98 -80.5t133 -24.5q142 0 209.5 79.5t72.5 252.5zM308 582
v-136q0 -330 250 -330q255 0 255 315v167q0 315 -255 315q-250 0 -250 -331zM484 1192l154 291h198l-228 -291h-124z" />
    <glyph glyph-name="Aringacute" unicode="&#x1fa;" horiz-adv-x="1229" 
d="M512 1400q-53 25 -83 75.5t-30 113.5q0 94 58.5 150.5t157.5 56.5q98 0 155 -55q60 -58 60 -152q0 -63 -29.5 -113t-82.5 -75l513 -1401h-185l-110 319h-641l-110 -319h-185zM893 460l-277 786l-277 -786h554zM616 1710q-104 0 -104 -123q0 -121 102 -121q103 0 103 122
q0 58 -26.5 90t-74.5 32zM539 1834l114 241h192l-201 -241h-105z" />
    <glyph glyph-name="aringacute" unicode="&#x1fb;" horiz-adv-x="1074" 
d="M738 604v72q0 112 -37 163q-54 74 -188 74q-153 0 -246 -103l-112 86q130 152 372 152q244 0 330 -150q44 -77 44 -247v-651h-130l-13 73q-49 -51 -115.5 -71.5t-183.5 -20.5q-198 0 -279 68.5t-81 236.5q0 187 97 258q82 60 294 60h248zM738 481h-232q-136 0 -193 -43.5
t-57 -147.5q0 -98 52.5 -136t187.5 -38q162 0 214 68q28 37 28 137v160zM546 1549q95 0 153 -55q60 -58 60 -152t-59.5 -151.5t-155.5 -57.5q-97 0 -155 57q-61 59 -61 152q0 95 59 151t159 56zM545 1463q-104 0 -104 -122t102 -122q103 0 103 122q0 58 -26.5 90t-74.5 32z
M469 1629l114 241h191l-201 -241h-104z" />
    <glyph glyph-name="AEacute" unicode="&#x1fc;" horiz-adv-x="1945" 
d="M974 337h-647l-215 -337h-197l960 1462h953v-143h-686v-507h585v-143h-585v-526h688v-143h-856v337zM974 479v840h-23l-543 -840h566zM1237 1616l154 292h198l-228 -292h-124z" />
    <glyph glyph-name="aeacute" unicode="&#x1fd;" horiz-adv-x="1708" 
d="M839 911q54 72 131 104.5t195 32.5q246 0 346 -167q67 -113 67 -327v-73h-673v-44q0 -139 59 -220q73 -101 228 -101q154 0 236 101l121 -77q-61 -84 -149 -121.5t-222 -37.5q-244 0 -352 163q-39 -62 -74 -91q-91 -72 -291 -72q-199 0 -280 68.5t-81 236.5q0 187 97 258
q82 60 294 60h248v72q0 112 -37 163q-54 74 -188 74q-153 0 -246 -103l-112 86q130 152 369 152q222 0 314 -137zM739 481h-232q-136 0 -193 -43.5t-57 -147.5q0 -97 52 -135.5t184 -38.5q86 0 133 17t76 59q37 53 37 179v110zM905 604h518v16q0 128 -55 205q-63 88 -203 88
q-156 0 -215 -104q-45 -77 -45 -189v-16zM752 1192l154 291h198l-228 -291h-124z" />
    <glyph glyph-name="Oslashacute" unicode="&#x1fe;" horiz-adv-x="1382" 
d="M1130 1267q41 -69 57.5 -149t16.5 -207v-360q0 -164 -30 -259q-50 -154 -186 -241q-112 -70 -304 -70q-213 0 -339 104l-84 -126l-110 79l101 153q-76 124 -76 360v360q0 163 31 259q49 154 185 241q112 70 299 70q114 0 196 -25t151 -82l82 123l111 -79zM1015 1093
l-578 -869q87 -100 253 -100q192 0 278 136q37 57 51.5 125.5t14.5 182.5v326q0 130 -19 199zM367 363l578 871q-84 104 -255 104q-193 0 -279 -136q-35 -56 -50 -126t-15 -182v-326q0 -136 21 -205zM589 1616l154 292h198l-228 -292h-124z" />
    <glyph glyph-name="oslashacute" unicode="&#x1ff;" horiz-adv-x="1141" 
d="M923 898q72 -107 72 -305v-157q0 -215 -86 -322q-105 -132 -338 -132q-165 0 -262 63l-68 -94l-98 75l76 106q-73 108 -73 304v157q0 216 86 323q106 132 340 132q164 0 261 -62l67 92l98 -75zM812 745l-412 -573q62 -55 170 -55q263 0 263 329v138q0 96 -21 161z
M330 286l412 573q-64 54 -169 54q-264 0 -264 -329v-138q0 -95 21 -160zM468 1192l154 291h198l-228 -291h-124z" />
    <glyph glyph-name="uni0200" unicode="&#x200;" horiz-adv-x="1229" 
d="M936 319h-641l-110 -319h-185l535 1462h161l535 -1462h-185zM893 460l-277 786l-277 -786h554zM825 1616h-116l-190 292h183zM549 1616h-116l-190 292h183z" />
    <glyph glyph-name="uni0201" unicode="&#x201;" horiz-adv-x="1074" 
d="M738 604v72q0 112 -37 163q-54 74 -188 74q-153 0 -246 -103l-112 86q130 152 372 152q244 0 330 -150q44 -77 44 -247v-651h-130l-13 73q-49 -51 -115.5 -71.5t-183.5 -20.5q-198 0 -279 68.5t-81 236.5q0 187 97 258q82 60 294 60h248zM738 481h-232q-136 0 -193 -43.5
t-57 -147.5q0 -98 52.5 -136t187.5 -38q162 0 214 68q28 37 28 137v160zM775 1192h-116l-190 291h183zM499 1192h-116l-190 291h183z" />
    <glyph glyph-name="uni0202" unicode="&#x202;" horiz-adv-x="1229" 
d="M936 319h-641l-110 -319h-185l535 1462h161l535 -1462h-185zM893 460l-277 786l-277 -786h554zM899 1624h-110q-10 77 -34 107q-42 51 -140 51q-88 0 -126.5 -35t-48.5 -123h-111q7 123 36 174q33 57 92.5 83t156.5 26q104 0 166 -30.5t92 -95.5q22 -46 27 -157z" />
    <glyph glyph-name="uni0203" unicode="&#x203;" horiz-adv-x="1074" 
d="M738 604v72q0 112 -37 163q-54 74 -188 74q-153 0 -246 -103l-112 86q130 152 372 152q244 0 330 -150q44 -77 44 -247v-651h-130l-13 73q-49 -51 -115.5 -71.5t-183.5 -20.5q-198 0 -279 68.5t-81 236.5q0 187 97 258q82 60 294 60h248zM738 481h-232q-136 0 -193 -43.5
t-57 -147.5q0 -98 52.5 -136t187.5 -38q162 0 214 68q28 37 28 137v160zM822 1200h-110q-10 76 -34 106q-42 51 -140 51q-88 0 -126.5 -35t-48.5 -122h-111q7 123 36 173q33 57 92 83t157 26q105 0 166.5 -30t91.5 -96q22 -46 27 -156z" />
    <glyph glyph-name="uni0204" unicode="&#x204;" horiz-adv-x="1185" 
d="M214 0v1462h854v-143h-686v-507h585v-143h-585v-526h688v-143h-856zM858 1616h-116l-190 292h183zM582 1616h-116l-190 292h183z" />
    <glyph glyph-name="uni0205" unicode="&#x205;" horiz-adv-x="1113" 
d="M309 481v-44q0 -139 59 -220q73 -101 228 -101q154 0 236 101l121 -77q-61 -84 -149 -121.5t-223 -37.5q-256 0 -362 164q-73 112 -73 323v86q0 235 83 351q54 75 132 108q81 35 203 35q217 0 317.5 -119t100.5 -375v-73h-673zM309 604h518v16q0 128 -55 205
q-63 88 -203 88q-156 0 -215 -104q-45 -77 -45 -189v-16zM787 1192h-116l-190 291h183zM511 1192h-116l-190 291h183z" />
    <glyph glyph-name="uni0206" unicode="&#x206;" horiz-adv-x="1185" 
d="M214 0v1462h854v-143h-686v-507h585v-143h-585v-526h688v-143h-856zM939 1624h-110q-10 77 -34 107q-42 51 -140 51q-88 0 -126.5 -35t-48.5 -123h-111q7 123 36 174q33 57 92.5 83t156.5 26q104 0 166 -30.5t92 -95.5q22 -46 27 -157z" />
    <glyph glyph-name="uni0207" unicode="&#x207;" horiz-adv-x="1113" 
d="M309 481v-44q0 -139 59 -220q73 -101 228 -101q154 0 236 101l121 -77q-61 -84 -149 -121.5t-223 -37.5q-256 0 -362 164q-73 112 -73 323v86q0 235 83 351q54 75 132 108q81 35 203 35q217 0 317.5 -119t100.5 -375v-73h-673zM309 604h518v16q0 128 -55 205
q-63 88 -203 88q-156 0 -215 -104q-45 -77 -45 -189v-16zM841 1200h-110q-10 76 -34 106q-42 51 -140 51q-88 0 -126.5 -35t-48.5 -122h-111q7 123 36 173q33 57 92 83t157 26q105 0 166.5 -30t91.5 -96q22 -46 27 -156z" />
    <glyph glyph-name="uni0208" unicode="&#x208;" horiz-adv-x="596" 
d="M213 0v1462h170v-1462h-170zM509 1616h-116l-190 292h183zM233 1616h-116l-190 292h183z" />
    <glyph glyph-name="uni0209" unicode="&#x209;" horiz-adv-x="522" 
d="M180 0v1029h163v-1029h-163zM472 1192h-116l-190 291h183zM196 1192h-116l-190 291h183z" />
    <glyph glyph-name="uni020A" unicode="&#x20a;" horiz-adv-x="596" 
d="M213 0v1462h170v-1462h-170zM583 1624h-110q-10 77 -34 107q-42 51 -140 51q-88 0 -126.5 -35t-48.5 -123h-111q7 123 36 174q33 57 92.5 83t156.5 26q104 0 166 -30.5t92 -95.5q22 -46 27 -157z" />
    <glyph glyph-name="uni020B" unicode="&#x20b;" horiz-adv-x="522" 
d="M180 0v1029h163v-1029h-163zM546 1200h-110q-10 76 -34 106q-42 51 -140 51q-88 0 -126.5 -35t-48.5 -122h-111q7 123 36 173q33 57 92 83t157 26q105 0 166.5 -30t91.5 -96q22 -46 27 -156z" />
    <glyph glyph-name="uni020C" unicode="&#x20c;" horiz-adv-x="1384" 
d="M178 551v360q0 163 31 259q49 154 185 241q112 70 298 70t298 -71q117 -73 166.5 -188t49.5 -311v-360q0 -163 -30 -259q-49 -154 -186 -240q-112 -71 -298 -71t-298 70q-116 74 -166 189t-50 311zM1036 568v326q0 122 -18 196t-61 132q-87 116 -265 116
q-192 0 -279 -136q-36 -57 -50.5 -126t-14.5 -182v-326q0 -121 18 -195.5t61 -132.5q87 -116 265 -116q192 0 279 136q36 57 50.5 126t14.5 182zM903 1616h-116l-190 292h183zM627 1616h-116l-190 292h183z" />
    <glyph glyph-name="uni020D" unicode="&#x20d;" horiz-adv-x="1141" 
d="M146 435v158q0 216 86 323q106 132 335 132q256 0 358 -154q70 -105 70 -301v-158q0 -216 -86 -323q-106 -131 -341 -131q-249 0 -352 154q-70 104 -70 300zM832 444v140q0 169 -63.5 249t-198.5 80q-155 0 -217 -109q-44 -79 -44 -220v-140q0 -168 64 -248t197 -80
q156 0 218 109q44 78 44 219zM781 1192h-116l-190 291h183zM505 1192h-116l-190 291h183z" />
    <glyph glyph-name="uni020E" unicode="&#x20e;" horiz-adv-x="1384" 
d="M178 551v360q0 163 31 259q49 154 185 241q112 70 298 70t298 -71q117 -73 166.5 -188t49.5 -311v-360q0 -163 -30 -259q-49 -154 -186 -240q-112 -71 -298 -71t-298 70q-116 74 -166 189t-50 311zM1036 568v326q0 122 -18 196t-61 132q-87 116 -265 116
q-192 0 -279 -136q-36 -57 -50.5 -126t-14.5 -182v-326q0 -121 18 -195.5t61 -132.5q87 -116 265 -116q192 0 279 136q36 57 50.5 126t14.5 182zM977 1624h-110q-10 77 -34 107q-42 51 -140 51q-88 0 -126.5 -35t-48.5 -123h-111q7 123 36 174q33 57 92.5 83t156.5 26
q104 0 166 -30.5t92 -95.5q22 -46 27 -157z" />
    <glyph glyph-name="uni020F" unicode="&#x20f;" horiz-adv-x="1141" 
d="M146 435v158q0 216 86 323q106 132 335 132q256 0 358 -154q70 -105 70 -301v-158q0 -216 -86 -323q-106 -131 -341 -131q-249 0 -352 154q-70 104 -70 300zM832 444v140q0 169 -63.5 249t-198.5 80q-155 0 -217 -109q-44 -79 -44 -220v-140q0 -168 64 -248t197 -80
q156 0 218 109q44 78 44 219zM855 1200h-110q-10 76 -34 106q-42 51 -140 51q-88 0 -126.5 -35t-48.5 -122h-111q7 123 36 173q33 57 92 83t157 26q105 0 166.5 -30t91.5 -96q22 -46 27 -156z" />
    <glyph glyph-name="uni0210" unicode="&#x210;" horiz-adv-x="1322" 
d="M385 632v-632h-170v1462h501q131 0 212 -25t138 -82q104 -105 104 -301q0 -178 -73.5 -276.5t-228.5 -127.5l321 -650h-188l-300 632h-316zM383 773h336q144 0 210 66q71 71 71 207q0 141 -73 208t-226 67h-318v-548zM824 1616h-116l-190 292h183zM548 1616h-116
l-190 292h183z" />
    <glyph glyph-name="uni0211" unicode="&#x211;" horiz-adv-x="768" 
d="M181 0v1029h128l16 -96q44 61 102 88t145 27q100 0 198 -52l-69 -139q-74 48 -144 48q-112 0 -162.5 -95.5t-50.5 -307.5v-502h-163zM663 1192h-116l-190 291h183zM387 1192h-116l-190 291h183z" />
    <glyph glyph-name="uni0212" unicode="&#x212;" horiz-adv-x="1322" 
d="M385 632v-632h-170v1462h501q131 0 212 -25t138 -82q104 -105 104 -301q0 -178 -73.5 -276.5t-228.5 -127.5l321 -650h-188l-300 632h-316zM383 773h336q144 0 210 66q71 71 71 207q0 141 -73 208t-226 67h-318v-548zM892 1624h-110q-10 77 -34 107q-42 51 -140 51
q-88 0 -126.5 -35t-48.5 -123h-111q7 123 36 174q33 57 92.5 83t156.5 26q104 0 166 -30.5t92 -95.5q22 -46 27 -157z" />
    <glyph glyph-name="uni0213" unicode="&#x213;" horiz-adv-x="768" 
d="M181 0v1029h128l16 -96q44 61 102 88t145 27q100 0 198 -52l-69 -139q-74 48 -144 48q-112 0 -162.5 -95.5t-50.5 -307.5v-502h-163zM710 1200h-110q-10 76 -34 106q-42 51 -140 51q-88 0 -126.5 -35t-48.5 -122h-111q7 123 36 173q33 57 92 83t157 26q105 0 166.5 -30
t91.5 -96q22 -46 27 -156z" />
    <glyph glyph-name="uni0214" unicode="&#x214;" horiz-adv-x="1413" 
d="M207 1462h170v-925q0 -112 12 -174t42 -109q44 -68 108.5 -98.5t166.5 -30.5q138 0 210 56q68 54 94 130.5t26 225.5v925h170v-925q0 -155 -19 -237.5t-69 -148.5q-64 -82 -149 -122q-100 -47 -263 -47q-206 0 -318 80q-127 91 -162 237q-19 79 -19 238v925zM917 1616
h-116l-190 292h183zM641 1616h-116l-190 292h183z" />
    <glyph glyph-name="uni0215" unicode="&#x215;" horiz-adv-x="1136" 
d="M172 1029h163v-575q0 -138 26 -206q49 -128 196 -128q127 0 181 89t54 297v523h163v-1029h-126l-13 115q-84 -134 -279 -134q-265 0 -335 199q-30 85 -30 258v591zM779 1192h-116l-190 291h183zM503 1192h-116l-190 291h183z" />
    <glyph glyph-name="uni0216" unicode="&#x216;" horiz-adv-x="1413" 
d="M207 1462h170v-925q0 -112 12 -174t42 -109q44 -68 108.5 -98.5t166.5 -30.5q138 0 210 56q68 54 94 130.5t26 225.5v925h170v-925q0 -155 -19 -237.5t-69 -148.5q-64 -82 -149 -122q-100 -47 -263 -47q-206 0 -318 80q-127 91 -162 237q-19 79 -19 238v925zM991 1624
h-110q-10 77 -34 107q-42 51 -140 51q-88 0 -126.5 -35t-48.5 -123h-111q7 123 36 174q33 57 92.5 83t156.5 26q104 0 166 -30.5t92 -95.5q22 -46 27 -157z" />
    <glyph glyph-name="uni0217" unicode="&#x217;" horiz-adv-x="1136" 
d="M172 1029h163v-575q0 -138 26 -206q49 -128 196 -128q127 0 181 89t54 297v523h163v-1029h-126l-13 115q-84 -134 -279 -134q-265 0 -335 199q-30 85 -30 258v591zM853 1200h-110q-10 76 -34 106q-42 51 -140 51q-88 0 -126.5 -35t-48.5 -122h-111q7 123 36 173
q33 57 92 83t157 26q105 0 166.5 -30t91.5 -96q22 -46 27 -156z" />
    <glyph glyph-name="Scommaaccent" unicode="&#x218;" horiz-adv-x="1186" 
d="M93 196l132 87q97 -158 363 -158q179 0 264 82q72 69 72 180q0 126 -89 188q-41 29 -74.5 40.5t-195.5 52.5q-197 50 -294 127q-124 99 -124 288q0 179 108 283q119 114 340 114q147 0 255.5 -47t166.5 -137l-130 -84q-89 126 -297 126q-141 0 -213 -74q-65 -67 -65 -172
q0 -112 74.5 -175t261.5 -110q147 -36 198 -55t106 -56q137 -94 137 -302q0 -186 -113 -290q-131 -122 -390 -122q-359 0 -493 214zM435 -455l107 313h170l-163 -313h-114z" />
    <glyph glyph-name="scommaaccent" unicode="&#x219;" horiz-adv-x="969" 
d="M58 140l118 78q55 -57 115.5 -79.5t161.5 -22.5q260 0 260 172q0 92 -70 127q-48 24 -190 43q-107 15 -163 33.5t-93 50.5q-82 70 -82 201q0 148 89 227q87 78 252 78q130 0 220.5 -40t151.5 -124l-122 -74q-48 56 -102 79.5t-136 23.5q-94 0 -143 -39q-54 -43 -54 -122
q0 -83 64 -119q44 -25 162 -40q208 -28 281 -81q92 -67 92 -229q0 -302 -411 -302q-292 0 -401 159zM296 -455l107 313h170l-163 -313h-114z" />
    <glyph glyph-name="uni021A" unicode="&#x21a;" horiz-adv-x="1135" 
d="M484 0v1319h-421v143h1010v-143h-419v-1319h-170zM389 -455l107 313h170l-163 -313h-114z" />
    <glyph glyph-name="uni021B" unicode="&#x21b;" horiz-adv-x="685" 
d="M214 895h-125v134h125l8 328h155v-328h201v-134h-201v-568q0 -110 36.5 -150t136.5 -40h35v-137h-37q-190 0 -257 58q-41 36 -59 102t-18 182v553zM209 -455l107 313h170l-163 -313h-114z" />
    <glyph glyph-name="uni0226" unicode="&#x226;" horiz-adv-x="1229" 
d="M936 319h-641l-110 -319h-185l535 1462h161l535 -1462h-185zM893 460l-277 786l-277 -786h554zM534 1630v214h159v-214h-159z" />
    <glyph glyph-name="uni0227" unicode="&#x227;" horiz-adv-x="1074" 
d="M738 604v72q0 112 -37 163q-54 74 -188 74q-153 0 -246 -103l-112 86q130 152 372 152q244 0 330 -150q44 -77 44 -247v-651h-130l-13 73q-49 -51 -115.5 -71.5t-183.5 -20.5q-198 0 -279 68.5t-81 236.5q0 187 97 258q82 60 294 60h248zM738 481h-232q-136 0 -193 -43.5
t-57 -147.5q0 -98 52.5 -136t187.5 -38q162 0 214 68q28 37 28 137v160zM473 1207v214h159v-214h-159z" />
    <glyph glyph-name="uni0237" unicode="&#x237;" horiz-adv-x="535" 
d="M190 1029h163v-1053q0 -155 -22.5 -237t-78.5 -131q-48 -43 -117 -60t-198 -19v138q91 0 133.5 15.5t74.5 59.5q26 36 35.5 82t9.5 135v1070z" />
    <glyph glyph-name="afii57929" unicode="&#x2bc;" horiz-adv-x="382" 
d="M67 975l74 487h174l-113 -487h-135z" />
    <glyph glyph-name="uni02C0" unicode="&#x2c0;" horiz-adv-x="1024" 
d="M583 1595h-119q1 63 6.5 85t29.5 57q40 60 40 84q0 49 -63 49q-40 0 -98 -27l-30 95q83 30 151 30q95 0 138 -42q39 -39 39 -98q0 -32 -11 -55t-47 -69q-24 -30 -29.5 -47t-6.5 -62z" />
    <glyph glyph-name="uni02C9" unicode="&#x2c9;" horiz-adv-x="1024" 
d="M249 1267v120h527v-120h-527z" />
    <glyph glyph-name="uni0309" unicode="&#x309;" horiz-adv-x="1024" 
d="M583 1178h-119q1 69 8 90t48 82q20 30 20 54q0 49 -63 49q-39 0 -98 -27l-30 95q80 30 152 30q94 0 137 -42q39 -39 39 -98q0 -32 -11 -55.5t-47 -68.5q-24 -30 -29.5 -47t-6.5 -62z" />
    <glyph glyph-name="uni0312" unicode="&#x312;" horiz-adv-x="1024" 
d="M409 1192l228 291h124l-154 -291h-198z" />
    <glyph glyph-name="uni0313" unicode="&#x313;" horiz-adv-x="155" 
d="M-17 1008l53 471h167l-105 -471h-115z" />
    <glyph glyph-name="uni031B" unicode="&#x31b;" horiz-adv-x="155" 
d="M-17 1008l53 471h167l-105 -471h-115z" />
    <glyph glyph-name="uni0323" unicode="&#x323;" horiz-adv-x="1024" 
d="M431 -397v214h159v-214h-159z" />
    <glyph glyph-name="commaaccent" unicode="&#x326;" horiz-adv-x="1024" 
d="M379 -455l107 313h170l-163 -313h-114z" />
    <glyph glyph-name="uni037E" unicode="&#x37e;" horiz-adv-x="577" 
d="M116 -385l97 588h183l-138 -588h-142zM218 827v204h170v-204h-170z" />
    <glyph glyph-name="uni0387" unicode="&#x387;" horiz-adv-x="575" 
d="M204 642v203h170v-203h-170z" />
    <glyph glyph-name="uni04D4" unicode="&#x4d4;" horiz-adv-x="1945" 
d="M974 337h-647l-215 -337h-197l960 1462h953v-143h-686v-507h585v-143h-585v-526h688v-143h-856v337zM974 479v840h-23l-543 -840h566z" />
    <glyph glyph-name="uni04D5" unicode="&#x4d5;" horiz-adv-x="1708" 
d="M839 911q54 72 131 104.5t195 32.5q246 0 346 -167q67 -113 67 -327v-73h-673v-44q0 -139 59 -220q73 -101 228 -101q154 0 236 101l121 -77q-61 -84 -149 -121.5t-222 -37.5q-244 0 -352 163q-39 -62 -74 -91q-91 -72 -291 -72q-199 0 -280 68.5t-81 236.5q0 187 97 258
q82 60 294 60h248v72q0 112 -37 163q-54 74 -188 74q-153 0 -246 -103l-112 86q130 152 369 152q222 0 314 -137zM739 481h-232q-136 0 -193 -43.5t-57 -147.5q0 -97 52 -135.5t184 -38.5q86 0 133 17t76 59q37 53 37 179v110zM905 604h518v16q0 128 -55 205q-63 88 -203 88
q-156 0 -215 -104q-45 -77 -45 -189v-16z" />
    <glyph glyph-name="uni1E02" unicode="&#x1e02;" horiz-adv-x="1309" 
d="M213 0v1462h538q130 0 200 -27q110 -41 164 -138q53 -92 53 -213q0 -219 -173 -320q12 -7 18 -11q55 -33 77 -52.5t43 -53.5q63 -104 63 -251q0 -215 -129 -319q-53 -42 -117 -59.5t-170 -17.5h-567zM383 822h357q122 0 184 54q34 29 54 82.5t20 113.5q0 65 -22.5 119.5
t-61.5 83.5q-61 46 -174 46h-357v-499zM383 141h386q122 0 183 57q74 69 74 210q0 70 -22.5 130t-61.5 92q-60 51 -173 51h-386v-540zM547 1630v214h159v-214h-159z" />
    <glyph glyph-name="uni1E03" unicode="&#x1e03;" horiz-adv-x="1157" 
d="M181 0v1462h163v-511q58 52 122 74.5t158 22.5q148 0 232 -57q155 -106 155 -399v-155q0 -216 -79 -325q-50 -70 -123 -101q-75 -31 -190 -31q-150 0 -241 58q-5 3 -58 50l-10 -88h-129zM849 447v135q0 331 -250 331q-255 0 -255 -315v-167q0 -316 255 -316
q250 0 250 332zM586 1207v214h159v-214h-159z" />
    <glyph glyph-name="uni1E0C" unicode="&#x1e0c;" horiz-adv-x="1388" 
d="M213 0v1462h466q241 -1 364 -104q90 -74 128.5 -178t38.5 -275v-348q0 -117 -14.5 -191.5t-50.5 -140.5q-63 -115 -176.5 -170t-289.5 -55h-466zM383 141h269q193 0 278 83q110 108 110 349v316q0 241 -110 349q-85 83 -278 83h-269v-1180zM558 -397v214h159v-214h-159z
" />
    <glyph glyph-name="uni1E0D" unicode="&#x1e0d;" horiz-adv-x="1157" 
d="M847 0l-10 88q-7 -6 -37 -35q-35 -32 -107.5 -52t-157.5 -20q-150 0 -234 57q-155 106 -155 399v155q0 216 79 324q49 68 123 100t184 32q134 0 223 -51q13 -7 58 -46v511h163v-1462h-129zM308 582v-135q0 -331 250 -331q255 0 255 315v167q0 315 -255 315
q-250 0 -250 -331zM532 -397v214h159v-214h-159z" />
    <glyph glyph-name="uni1E1E" unicode="&#x1e1e;" horiz-adv-x="1118" 
d="M214 0v1462h847v-143h-677v-519h575v-143h-575v-657h-170zM570 1630v214h159v-214h-159z" />
    <glyph glyph-name="uni1E1F" unicode="&#x1e1f;" horiz-adv-x="680" 
d="M227 895h-128v134h128v166q0 158 68 217q32 28 80 39t142 11h92v-132h-58q-100 0 -128 -28q-33 -33 -33 -127v-146h232v-134h-232v-895h-163v895zM343 1630v214h159v-214h-159z" />
    <glyph glyph-name="uni1E24" unicode="&#x1e24;" horiz-adv-x="1394" 
d="M213 0v1462h170v-650h627v650h170v-1462h-170v669h-627v-669h-170zM616 -397v214h159v-214h-159z" />
    <glyph glyph-name="uni1E25" unicode="&#x1e25;" horiz-adv-x="1158" 
d="M181 0v1462h163v-515q90 101 269 101q269 0 342 -199q31 -85 31 -258v-591h-163v575q0 138 -28 207q-51 127 -205 127q-131 0 -188.5 -88.5t-57.5 -289.5v-531h-163zM498 -397v214h159v-214h-159z" />
    <glyph glyph-name="uni1E44" unicode="&#x1e44;" horiz-adv-x="1478" 
d="M213 0v1462h164l722 -1170v1170h165v-1462h-163l-722 1170v-1170h-166zM671 1630v214h159v-214h-159z" />
    <glyph glyph-name="uni1E45" unicode="&#x1e45;" horiz-adv-x="1158" 
d="M181 0v1029h126l13 -114q89 133 290 133q272 0 345 -199q31 -85 31 -258v-591h-163v575q0 138 -28 207q-51 127 -205 127q-133 0 -189.5 -89t-56.5 -297v-523h-163zM498 1207v214h159v-214h-159z" />
    <glyph glyph-name="uni1E5A" unicode="&#x1e5a;" horiz-adv-x="1322" 
d="M385 632v-632h-170v1462h501q131 0 212 -25t138 -82q104 -105 104 -301q0 -178 -73.5 -276.5t-228.5 -127.5l321 -650h-188l-300 632h-316zM383 773h336q144 0 210 66q71 71 71 207q0 141 -73 208t-226 67h-318v-548zM580 -397v214h159v-214h-159z" />
    <glyph glyph-name="uni1E5B" unicode="&#x1e5b;" horiz-adv-x="767" 
d="M181 0v1029h128l16 -96q44 61 102 88t145 27q100 0 198 -52l-69 -139q-74 48 -144 48q-112 0 -162.5 -95.5t-50.5 -307.5v-502h-163zM181 -397v214h159v-214h-159z" />
    <glyph glyph-name="uni1E62" unicode="&#x1e62;" horiz-adv-x="1186" 
d="M93 196l132 87q97 -158 363 -158q179 0 264 82q72 69 72 180q0 126 -89 188q-41 29 -74.5 40.5t-195.5 52.5q-197 50 -294 127q-124 99 -124 288q0 179 108 283q119 114 340 114q147 0 255.5 -47t166.5 -137l-130 -84q-89 126 -297 126q-141 0 -213 -74q-65 -67 -65 -172
q0 -112 74.5 -175t261.5 -110q147 -36 198 -55t106 -56q137 -94 137 -302q0 -186 -113 -290q-131 -122 -390 -122q-359 0 -493 214zM505 -397v214h159v-214h-159z" />
    <glyph glyph-name="uni1E63" unicode="&#x1e63;" horiz-adv-x="969" 
d="M58 140l118 78q55 -57 115.5 -79.5t161.5 -22.5q260 0 260 172q0 92 -70 127q-48 24 -190 43q-107 15 -163 33.5t-93 50.5q-82 70 -82 201q0 148 89 227q87 78 252 78q130 0 220.5 -40t151.5 -124l-122 -74q-48 56 -102 79.5t-136 23.5q-94 0 -143 -39q-54 -43 -54 -122
q0 -83 64 -119q44 -25 162 -40q208 -28 281 -81q92 -67 92 -229q0 -302 -411 -302q-292 0 -401 159zM389 -397v214h159v-214h-159z" />
    <glyph glyph-name="uni1E6C" unicode="&#x1e6c;" horiz-adv-x="1135" 
d="M484 0v1319h-421v143h1010v-143h-419v-1319h-170zM487 -397v214h159v-214h-159z" />
    <glyph glyph-name="uni1E6D" unicode="&#x1e6d;" horiz-adv-x="685" 
d="M214 895h-125v134h125l8 328h155v-328h201v-134h-201v-568q0 -110 36.5 -150t136.5 -40h35v-137h-37q-190 0 -257 58q-41 36 -59 102t-18 182v553zM261 -397v214h159v-214h-159z" />
    <glyph glyph-name="Wgrave" unicode="&#x1e80;" horiz-adv-x="1794" 
d="M426 0l-368 1462h171l278 -1201l330 1201h120l330 -1201l278 1201h171l-368 -1462h-145l-326 1164l-325 -1164h-146zM1005 1616h-124l-228 292h198z" />
    <glyph glyph-name="wgrave" unicode="&#x1e81;" horiz-adv-x="1579" 
d="M394 0l-317 1029h166l226 -808l264 808h113l264 -808l226 808h165l-316 -1029h-132l-264 774l-263 -774h-132zM897 1192h-124l-228 291h198z" />
    <glyph glyph-name="Wacute" unicode="&#x1e82;" horiz-adv-x="1794" 
d="M426 0l-368 1462h171l278 -1201l330 1201h120l330 -1201l278 1201h171l-368 -1462h-145l-326 1164l-325 -1164h-146zM795 1616l154 292h198l-228 -292h-124z" />
    <glyph glyph-name="wacute" unicode="&#x1e83;" horiz-adv-x="1579" 
d="M394 0l-317 1029h166l226 -808l264 808h113l264 -808l226 808h165l-316 -1029h-132l-264 774l-263 -774h-132zM687 1192l154 291h198l-228 -291h-124z" />
    <glyph glyph-name="Wdieresis" unicode="&#x1e84;" horiz-adv-x="1794" 
d="M426 0l-368 1462h171l278 -1201l330 1201h120l330 -1201l278 1201h171l-368 -1462h-145l-326 1164l-325 -1164h-146zM623 1631v214h148v-214h-148zM1023 1631v214h148v-214h-148z" />
    <glyph glyph-name="wdieresis" unicode="&#x1e85;" horiz-adv-x="1579" 
d="M394 0l-317 1029h166l226 -808l264 808h113l264 -808l226 808h165l-316 -1029h-132l-264 774l-263 -774h-132zM517 1207v214h148v-214h-148zM912 1207v214h148v-214h-148z" />
    <glyph glyph-name="uni1E92" unicode="&#x1e92;" horiz-adv-x="1113" 
d="M104 0v121l677 1198h-640v143h830v-121l-677 -1198h709v-143h-899zM496 -397v214h159v-214h-159z" />
    <glyph glyph-name="uni1E93" unicode="&#x1e93;" horiz-adv-x="972" 
d="M91 0v106l523 787h-482v136h685v-106l-522 -787h554v-136h-758zM418 -397v214h159v-214h-159z" />
    <glyph glyph-name="uni1EA0" unicode="&#x1ea0;" horiz-adv-x="1229" 
d="M936 319h-641l-110 -319h-185l535 1462h161l535 -1462h-185zM893 460l-277 786l-277 -786h554zM534 -397v214h159v-214h-159z" />
    <glyph glyph-name="uni1EA1" unicode="&#x1ea1;" horiz-adv-x="1074" 
d="M738 604v72q0 112 -37 163q-54 74 -188 74q-153 0 -246 -103l-112 86q130 152 372 152q244 0 330 -150q44 -77 44 -247v-651h-130l-13 73q-49 -51 -115.5 -71.5t-183.5 -20.5q-198 0 -279 68.5t-81 236.5q0 187 97 258q82 60 294 60h248zM738 481h-232q-136 0 -193 -43.5
t-57 -147.5q0 -98 52.5 -136t187.5 -38q162 0 214 68q28 37 28 137v160zM457 -397v214h159v-214h-159z" />
    <glyph glyph-name="uni1EA2" unicode="&#x1ea2;" horiz-adv-x="1229" 
d="M936 319h-641l-110 -319h-185l535 1462h161l535 -1462h-185zM893 460l-277 786l-277 -786h554zM686 1595h-120q2 63 7.5 85t29.5 57q40 60 40 84q0 49 -63 49q-40 0 -98 -27l-30 95q82 30 151 30q95 0 138 -42q39 -39 39 -98q0 -32 -11 -55t-47 -69q-24 -30 -29.5 -47
t-6.5 -62z" />
    <glyph glyph-name="uni1EA3" unicode="&#x1ea3;" horiz-adv-x="1074" 
d="M738 604v72q0 112 -37 163q-54 74 -188 74q-153 0 -246 -103l-112 86q130 152 372 152q244 0 330 -150q44 -77 44 -247v-651h-130l-13 73q-49 -51 -115.5 -71.5t-183.5 -20.5q-198 0 -279 68.5t-81 236.5q0 187 97 258q82 60 294 60h248zM738 481h-232q-136 0 -193 -43.5
t-57 -147.5q0 -98 52.5 -136t187.5 -38q162 0 214 68q28 37 28 137v160zM616 1178h-120q1 63 7 85t29 57q40 60 40 84q0 49 -63 49q-39 0 -98 -27l-30 95q81 30 152 30q94 0 137 -42q39 -39 39 -98q0 -32 -11 -55t-47 -69q-23 -30 -28.5 -47t-6.5 -62z" />
    <glyph glyph-name="uni1EA4" unicode="&#x1ea4;" horiz-adv-x="1229" 
d="M936 319h-641l-110 -319h-185l535 1462h161l535 -1462h-185zM893 460l-277 786l-277 -786h554zM539 1834l116 233h155l-173 -233h-98zM615 1677l-138 -117h-166l253 220h101l253 -220h-165z" />
    <glyph glyph-name="uni1EA5" unicode="&#x1ea5;" horiz-adv-x="1074" 
d="M738 604v72q0 112 -37 163q-54 74 -188 74q-153 0 -246 -103l-112 86q130 152 372 152q244 0 330 -150q44 -77 44 -247v-651h-130l-13 73q-49 -51 -115.5 -71.5t-183.5 -20.5q-198 0 -279 68.5t-81 236.5q0 187 97 258q82 60 294 60h248zM738 481h-232q-136 0 -193 -43.5
t-57 -147.5q0 -98 52.5 -136t187.5 -38q162 0 214 68q28 37 28 137v160zM482 1410l116 233h155l-173 -233h-98zM558 1252l-138 -116h-165l253 219h100l253 -219h-165z" />
    <glyph glyph-name="uni1EA6" unicode="&#x1ea6;" horiz-adv-x="1229" 
d="M936 319h-641l-110 -319h-185l535 1462h161l535 -1462h-185zM893 460l-277 786l-277 -786h554zM688 1834h-98l-173 233h155zM615 1677l-138 -117h-166l254 220h100l253 -220h-166z" />
    <glyph glyph-name="uni1EA7" unicode="&#x1ea7;" horiz-adv-x="1074" 
d="M738 604v72q0 112 -37 163q-54 74 -188 74q-153 0 -246 -103l-112 86q130 152 372 152q244 0 330 -150q44 -77 44 -247v-651h-130l-13 73q-49 -51 -115.5 -71.5t-183.5 -20.5q-198 0 -279 68.5t-81 236.5q0 187 97 258q82 60 294 60h248zM738 481h-232q-136 0 -193 -43.5
t-57 -147.5q0 -98 52.5 -136t187.5 -38q162 0 214 68q28 37 28 137v160zM631 1410h-97l-174 233h155zM558 1252l-138 -116h-165l253 219h100l253 -219h-165z" />
    <glyph glyph-name="uni1EA8" unicode="&#x1ea8;" horiz-adv-x="1229" 
d="M936 319h-641l-110 -319h-185l535 1462h161l535 -1462h-185zM893 460l-277 786l-277 -786h554zM668 1803h-107q1 48 8 65t43 61q17 21 17 39q0 29 -56 29q-36 0 -86 -21l-28 78q68 25 136 25q73 0 113.5 -28.5t40.5 -80.5q0 -39 -50 -91q-21 -21 -25.5 -32t-5.5 -44z
M609 1673l-138 -113h-165l253 209h100l254 -209h-166z" />
    <glyph glyph-name="uni1EA9" unicode="&#x1ea9;" horiz-adv-x="1074" 
d="M738 604v72q0 112 -37 163q-54 74 -188 74q-153 0 -246 -103l-112 86q130 152 372 152q244 0 330 -150q44 -77 44 -247v-651h-130l-13 73q-49 -51 -115.5 -71.5t-183.5 -20.5q-198 0 -279 68.5t-81 236.5q0 187 97 258q82 60 294 60h248zM738 481h-232q-136 0 -193 -43.5
t-57 -147.5q0 -98 52.5 -136t187.5 -38q162 0 214 68q28 37 28 137v160zM611 1378h-107q2 48 8.5 64.5t42.5 61.5q17 21 17 38q0 30 -57 30q-35 0 -85 -21l-27 79q69 24 136 24q72 0 112.5 -28.5t40.5 -79.5q0 -40 -50 -92q-20 -21 -24.5 -32t-6.5 -44zM553 1249l-138 -113
h-166l253 209h101l253 -209h-165z" />
    <glyph glyph-name="uni1EAA" unicode="&#x1eaa;" horiz-adv-x="1229" 
d="M936 319h-641l-110 -319h-185l535 1462h161l535 -1462h-185zM893 460l-277 786l-277 -786h554zM442 1849h-92q24 90 47 127q47 76 129 76q65 0 121 -58t85 -58q44 0 66 102h92q-20 -92 -41 -131q-39 -72 -119 -72q-38 0 -64.5 13t-59.5 47q-52 56 -82 56q-56 0 -82 -102z
M623 1677l-138 -117h-165l253 220h100l254 -220h-166z" />
    <glyph glyph-name="uni1EAB" unicode="&#x1eab;" horiz-adv-x="1074" 
d="M738 604v72q0 112 -37 163q-54 74 -188 74q-153 0 -246 -103l-112 86q130 152 372 152q244 0 330 -150q44 -77 44 -247v-651h-130l-13 73q-49 -51 -115.5 -71.5t-183.5 -20.5q-198 0 -279 68.5t-81 236.5q0 187 97 258q82 60 294 60h248zM738 481h-232q-136 0 -193 -43.5
t-57 -147.5q0 -98 52.5 -136t187.5 -38q162 0 214 68q28 37 28 137v160zM365 1424h-92q24 90 47 128q47 76 129 76q65 0 120 -58q57 -58 86 -58q43 0 66 102h92q-20 -92 -41 -132q-39 -72 -119 -72q-38 0 -65 13t-59 47q-52 56 -82 56q-56 0 -82 -102zM546 1252l-138 -116
h-165l253 219h100l254 -219h-166z" />
    <glyph glyph-name="uni1EAC" unicode="&#x1eac;" horiz-adv-x="1229" 
d="M936 319h-641l-110 -319h-185l535 1462h161l535 -1462h-185zM893 460l-277 786l-277 -786h554zM614 1790l-140 -165h-172l260 273h105l260 -273h-172zM534 -397v214h159v-214h-159z" />
    <glyph glyph-name="uni1EAD" unicode="&#x1ead;" horiz-adv-x="1074" 
d="M738 604v72q0 112 -37 163q-54 74 -188 74q-153 0 -246 -103l-112 86q130 152 372 152q244 0 330 -150q44 -77 44 -247v-651h-130l-13 73q-49 -51 -115.5 -71.5t-183.5 -20.5q-198 0 -279 68.5t-81 236.5q0 187 97 258q82 60 294 60h248zM738 481h-232q-136 0 -193 -43.5
t-57 -147.5q0 -98 52.5 -136t187.5 -38q162 0 214 68q28 37 28 137v160zM537 1366l-140 -165h-172l259 273h106l260 -273h-172zM457 -397v214h159v-214h-159z" />
    <glyph glyph-name="uni1EAE" unicode="&#x1eae;" horiz-adv-x="1229" 
d="M936 319h-641l-110 -319h-185l535 1462h161l535 -1462h-185zM893 460l-277 786l-277 -786h554zM539 1834l116 233h155l-174 -233h-97zM338 1810h106q8 -67 33 -94q41 -45 136 -45q87 0 125 31t47 108h106q-6 -111 -35 -158q-60 -99 -242 -99q-100 0 -160.5 27.5
t-89.5 86.5q-21 43 -26 143z" />
    <glyph glyph-name="uni1EAF" unicode="&#x1eaf;" horiz-adv-x="1074" 
d="M738 604v72q0 112 -37 163q-54 74 -188 74q-153 0 -246 -103l-112 86q130 152 372 152q244 0 330 -150q44 -77 44 -247v-651h-130l-13 73q-49 -51 -115.5 -71.5t-183.5 -20.5q-198 0 -279 68.5t-81 236.5q0 187 97 258q82 60 294 60h248zM738 481h-232q-136 0 -193 -43.5
t-57 -147.5q0 -98 52.5 -136t187.5 -38q162 0 214 68q28 37 28 137v160zM462 1410l116 233h155l-174 -233h-97zM261 1385h106q8 -67 33 -94q40 -45 139 -45q84 0 122 31t47 108h106q-6 -111 -35 -158q-31 -52 -89 -75.5t-153 -23.5q-101 0 -161 27.5t-89 86.5
q-21 43 -26 143z" />
    <glyph glyph-name="uni1EB0" unicode="&#x1eb0;" horiz-adv-x="1229" 
d="M936 319h-641l-110 -319h-185l535 1462h161l535 -1462h-185zM893 460l-277 786l-277 -786h554zM695 1834h-97l-174 233h155zM338 1810h106q8 -67 33 -94q41 -45 136 -45q87 0 125 31t47 108h106q-6 -111 -35 -158q-60 -99 -242 -99q-100 0 -160.5 27.5t-89.5 86.5
q-21 43 -26 143z" />
    <glyph glyph-name="uni1EB1" unicode="&#x1eb1;" horiz-adv-x="1074" 
d="M738 604v72q0 112 -37 163q-54 74 -188 74q-153 0 -246 -103l-112 86q130 152 372 152q244 0 330 -150q44 -77 44 -247v-651h-130l-13 73q-49 -51 -115.5 -71.5t-183.5 -20.5q-198 0 -279 68.5t-81 236.5q0 187 97 258q82 60 294 60h248zM738 481h-232q-136 0 -193 -43.5
t-57 -147.5q0 -98 52.5 -136t187.5 -38q162 0 214 68q28 37 28 137v160zM623 1410h-98l-173 233h155zM261 1385h106q8 -67 33 -94q40 -45 139 -45q84 0 122 31t47 108h106q-6 -111 -35 -158q-31 -52 -89 -75.5t-153 -23.5q-101 0 -161 27.5t-89 86.5q-21 43 -26 143z" />
    <glyph glyph-name="uni1EB2" unicode="&#x1eb2;" horiz-adv-x="1229" 
d="M936 319h-641l-110 -319h-185l535 1462h161l535 -1462h-185zM893 460l-277 786l-277 -786h554zM666 1785h-107q1 45 6.5 63t26.5 45q35 45 35 66q0 38 -58 38q-35 0 -84 -21l-28 79q67 24 134 24q83 0 121 -35q35 -33 35 -82q0 -34 -47 -88q-21 -23 -27.5 -39.5
t-6.5 -49.5zM338 1810h104q9 -69 34 -96q41 -46 140 -46q85 0 123 31.5t48 110.5h104q-6 -111 -35 -158q-60 -99 -242 -99q-100 0 -160.5 27.5t-89.5 86.5q-21 43 -26 143z" />
    <glyph glyph-name="uni1EB3" unicode="&#x1eb3;" horiz-adv-x="1074" 
d="M738 604v72q0 112 -37 163q-54 74 -188 74q-153 0 -246 -103l-112 86q130 152 372 152q244 0 330 -150q44 -77 44 -247v-651h-130l-13 73q-49 -51 -115.5 -71.5t-183.5 -20.5q-198 0 -279 68.5t-81 236.5q0 187 97 258q82 60 294 60h248zM738 481h-232q-136 0 -193 -43.5
t-57 -147.5q0 -98 52.5 -136t187.5 -38q162 0 214 68q28 37 28 137v160zM589 1360h-107q1 44 6.5 62.5t26.5 45.5q35 46 35 66q0 38 -58 38q-33 0 -85 -20l-27 78q69 24 134 24q84 0 121 -35q35 -33 35 -82q0 -34 -47 -88q-21 -23 -27 -39t-7 -50zM261 1385h104
q9 -69 34 -96q41 -46 140 -46q85 0 123 31.5t47 110.5h105q-6 -111 -35 -158q-31 -52 -89 -75.5t-153 -23.5q-101 0 -161 27.5t-89 86.5q-21 43 -26 143z" />
    <glyph glyph-name="uni1EB4" unicode="&#x1eb4;" horiz-adv-x="1229" 
d="M936 319h-641l-110 -319h-185l535 1462h161l535 -1462h-185zM893 460l-277 786l-277 -786h554zM424 1867h-92q24 90 47 127q47 76 129 76q65 0 121 -58t85 -58q46 0 67 102h91q-20 -91 -41 -131q-38 -72 -119 -72q-38 0 -64.5 13t-58.5 47q-52 56 -83 56q-54 0 -82 -102z
M330 1796h102q8 -63 33 -89q40 -43 136 -43q85 0 122.5 29t47.5 103h102q-6 -105 -34 -149q-60 -93 -238 -93q-99 0 -158 26t-87 81q-21 41 -26 135z" />
    <glyph glyph-name="uni1EB5" unicode="&#x1eb5;" horiz-adv-x="1074" 
d="M738 604v72q0 112 -37 163q-54 74 -188 74q-153 0 -246 -103l-112 86q130 152 372 152q244 0 330 -150q44 -77 44 -247v-651h-130l-13 73q-49 -51 -115.5 -71.5t-183.5 -20.5q-198 0 -279 68.5t-81 236.5q0 187 97 258q82 60 294 60h248zM738 481h-232q-136 0 -193 -43.5
t-57 -147.5q0 -98 52.5 -136t187.5 -38q162 0 214 68q28 37 28 137v160zM367 1442h-91q23 91 47 128q46 76 129 76q65 0 120 -58q56 -58 86 -58q45 0 66 102h92q-21 -92 -42 -132q-38 -72 -118 -72q-38 0 -65 13t-59 47q-52 56 -83 56q-53 0 -82 -102zM273 1372h102
q9 -63 33 -89q40 -43 136 -43q85 0 122.5 29t47.5 103h102q-6 -106 -34 -149q-60 -93 -237 -93q-99 0 -158.5 26t-87.5 81q-21 41 -26 135z" />
    <glyph glyph-name="uni1EB6" unicode="&#x1eb6;" horiz-adv-x="1229" 
d="M936 319h-641l-110 -319h-185l535 1462h161l535 -1462h-185zM893 460l-277 786l-277 -786h554zM329 1889h111q9 -77 34 -107q42 -51 140 -51q87 0 126 35t49 123h111q-7 -123 -36 -173q-33 -57 -92.5 -83t-156.5 -26q-105 0 -167 30t-92 96q-21 47 -27 156zM534 -397v214
h159v-214h-159z" />
    <glyph glyph-name="uni1EB7" unicode="&#x1eb7;" horiz-adv-x="1074" 
d="M738 604v72q0 112 -37 163q-54 74 -188 74q-153 0 -246 -103l-112 86q130 152 372 152q244 0 330 -150q44 -77 44 -247v-651h-130l-13 73q-49 -51 -115.5 -71.5t-183.5 -20.5q-198 0 -279 68.5t-81 236.5q0 187 97 258q82 60 294 60h248zM738 481h-232q-136 0 -193 -43.5
t-57 -147.5q0 -98 52.5 -136t187.5 -38q162 0 214 68q28 37 28 137v160zM277 1465h111q8 -76 34 -107q41 -51 140 -51q87 0 126 35t48 123h111q-6 -122 -36 -174q-32 -57 -91.5 -83t-157.5 -26q-104 0 -166 30t-92 96q-22 48 -27 157zM457 -397v214h159v-214h-159z" />
    <glyph glyph-name="uni1EB8" unicode="&#x1eb8;" horiz-adv-x="1185" 
d="M214 0v1462h854v-143h-686v-507h585v-143h-585v-526h688v-143h-856zM573 -397v214h159v-214h-159z" />
    <glyph glyph-name="uni1EB9" unicode="&#x1eb9;" horiz-adv-x="1113" 
d="M309 481v-44q0 -139 59 -220q73 -101 228 -101q154 0 236 101l121 -77q-61 -84 -149 -121.5t-223 -37.5q-256 0 -362 164q-73 112 -73 323v86q0 235 83 351q54 75 132 108q81 35 203 35q217 0 317.5 -119t100.5 -375v-73h-673zM309 604h518v16q0 128 -55 205
q-63 88 -203 88q-156 0 -215 -104q-45 -77 -45 -189v-16zM475 -397v214h159v-214h-159z" />
    <glyph glyph-name="uni1EBA" unicode="&#x1eba;" horiz-adv-x="1185" 
d="M214 0v1462h854v-143h-686v-507h585v-143h-585v-526h688v-143h-856zM725 1595h-119q1 69 8 90t48 82q20 30 20 54q0 49 -63 49q-40 0 -98 -27l-30 95q83 30 151 30q95 0 138 -42q39 -39 39 -98q0 -32 -11 -55t-47 -69q-23 -30 -29 -47t-7 -62z" />
    <glyph glyph-name="uni1EBB" unicode="&#x1ebb;" horiz-adv-x="1113" 
d="M309 481v-44q0 -139 59 -220q73 -101 228 -101q154 0 236 101l121 -77q-61 -84 -149 -121.5t-223 -37.5q-256 0 -362 164q-73 112 -73 323v86q0 235 83 351q54 75 132 108q81 35 203 35q217 0 317.5 -119t100.5 -375v-73h-673zM309 604h518v16q0 128 -55 205
q-63 88 -203 88q-156 0 -215 -104q-45 -77 -45 -189v-16zM641 1178h-119q1 69 8 90.5t48 81.5q20 30 20 54q0 49 -63 49q-40 0 -98 -27l-30 95q81 30 152 30q94 0 137 -42q39 -39 39 -98q0 -32 -11 -55.5t-47 -68.5q-23 -30 -29 -47t-7 -62z" />
    <glyph glyph-name="uni1EBC" unicode="&#x1ebc;" horiz-adv-x="1185" 
d="M214 0v1462h854v-143h-686v-507h585v-143h-585v-526h688v-143h-856zM436 1646h-105q27 105 50 146q52 88 148 88q77 0 150 -65q45 -41 66 -53.5t42 -12.5q57 0 85 115h105q-25 -106 -48 -149q-46 -85 -145 -85q-45 0 -79 15t-76 54q-41 37 -61.5 49.5t-43.5 12.5
q-60 0 -88 -115z" />
    <glyph glyph-name="uni1EBD" unicode="&#x1ebd;" horiz-adv-x="1113" 
d="M309 481v-44q0 -139 59 -220q73 -101 228 -101q154 0 236 101l121 -77q-61 -84 -149 -121.5t-223 -37.5q-256 0 -362 164q-73 112 -73 323v86q0 235 83 351q54 75 132 108q81 35 203 35q217 0 317.5 -119t100.5 -375v-73h-673zM309 604h518v16q0 128 -55 205
q-63 88 -203 88q-156 0 -215 -104q-45 -77 -45 -189v-16zM338 1221h-105q27 105 50 146q52 88 148 88q77 0 150 -65q44 -40 65.5 -52.5t42.5 -12.5q57 0 85 115h105q-26 -108 -48 -150q-46 -85 -145 -85q-45 0 -79 15t-76 53q-41 38 -61.5 50t-42.5 12q-61 0 -89 -114z" />
    <glyph glyph-name="uni1EBE" unicode="&#x1ebe;" horiz-adv-x="1185" 
d="M214 0v1462h854v-143h-686v-507h585v-143h-585v-526h688v-143h-856zM578 1834l116 233h155l-173 -233h-98zM654 1677l-138 -117h-165l253 220h100l253 -220h-165z" />
    <glyph glyph-name="uni1EBF" unicode="&#x1ebf;" horiz-adv-x="1113" 
d="M309 481v-44q0 -139 59 -220q73 -101 228 -101q154 0 236 101l121 -77q-61 -84 -149 -121.5t-223 -37.5q-256 0 -362 164q-73 112 -73 323v86q0 235 83 351q54 75 132 108q81 35 203 35q217 0 317.5 -119t100.5 -375v-73h-673zM309 604h518v16q0 128 -55 205
q-63 88 -203 88q-156 0 -215 -104q-45 -77 -45 -189v-16zM493 1410l116 233h155l-173 -233h-98zM569 1252l-138 -116h-166l253 219h101l253 -219h-165z" />
    <glyph glyph-name="uni1EC0" unicode="&#x1ec0;" horiz-adv-x="1185" 
d="M214 0v1462h854v-143h-686v-507h585v-143h-585v-526h688v-143h-856zM727 1834h-97l-174 233h155zM654 1677l-138 -117h-165l253 220h100l253 -220h-165z" />
    <glyph glyph-name="uni1EC1" unicode="&#x1ec1;" horiz-adv-x="1113" 
d="M309 481v-44q0 -139 59 -220q73 -101 228 -101q154 0 236 101l121 -77q-61 -84 -149 -121.5t-223 -37.5q-256 0 -362 164q-73 112 -73 323v86q0 235 83 351q54 75 132 108q81 35 203 35q217 0 317.5 -119t100.5 -375v-73h-673zM309 604h518v16q0 128 -55 205
q-63 88 -203 88q-156 0 -215 -104q-45 -77 -45 -189v-16zM642 1410h-98l-173 233h155zM569 1252l-138 -116h-166l254 219h100l253 -219h-166z" />
    <glyph glyph-name="uni1EC2" unicode="&#x1ec2;" horiz-adv-x="1185" 
d="M214 0v1462h854v-143h-686v-507h585v-143h-585v-526h688v-143h-856zM707 1803h-107q2 48 8.5 64.5t42.5 61.5q17 21 17 39q0 29 -56 29q-35 0 -86 -21l-27 78q67 25 135 25q73 0 113.5 -28.5t40.5 -80.5q0 -38 -50 -91q-21 -21 -25 -32t-6 -44zM649 1673l-138 -113h-166
l253 209h101l253 -209h-165z" />
    <glyph glyph-name="uni1EC3" unicode="&#x1ec3;" horiz-adv-x="1113" 
d="M309 481v-44q0 -139 59 -220q73 -101 228 -101q154 0 236 101l121 -77q-61 -84 -149 -121.5t-223 -37.5q-256 0 -362 164q-73 112 -73 323v86q0 235 83 351q54 75 132 108q81 35 203 35q217 0 317.5 -119t100.5 -375v-73h-673zM309 604h518v16q0 128 -55 205
q-63 88 -203 88q-156 0 -215 -104q-45 -77 -45 -189v-16zM622 1378h-107q1 48 8 65t43 61q17 21 17 38q0 30 -57 30q-36 0 -85 -21l-28 79q70 24 136 24q73 0 113.5 -28.5t40.5 -79.5q0 -40 -50 -92q-21 -21 -25.5 -32t-5.5 -44zM563 1249l-138 -113h-165l253 209h100
l254 -209h-166z" />
    <glyph glyph-name="uni1EC4" unicode="&#x1ec4;" horiz-adv-x="1185" 
d="M214 0v1462h854v-143h-686v-507h585v-143h-585v-526h688v-143h-856zM481 1849h-91q23 90 46 127q47 76 130 76q64 0 120 -58t85 -58q45 0 67 102h91q-20 -92 -41 -131q-38 -72 -118 -72q-39 0 -65.5 13t-58.5 47q-52 56 -83 56q-55 0 -82 -102zM663 1677l-138 -117h-166
l254 220h100l253 -220h-165z" />
    <glyph glyph-name="uni1EC5" unicode="&#x1ec5;" horiz-adv-x="1113" 
d="M309 481v-44q0 -139 59 -220q73 -101 228 -101q154 0 236 101l121 -77q-61 -84 -149 -121.5t-223 -37.5q-256 0 -362 164q-73 112 -73 323v86q0 235 83 351q54 75 132 108q81 35 203 35q217 0 317.5 -119t100.5 -375v-73h-673zM309 604h518v16q0 128 -55 205
q-63 88 -203 88q-156 0 -215 -104q-45 -77 -45 -189v-16zM384 1424h-92q23 90 47 128q46 76 129 76q65 0 120 -58q57 -58 86 -58q43 0 66 102h92q-21 -92 -41 -132q-39 -72 -119 -72q-38 0 -65 13t-59 47q-52 56 -83 56q-55 0 -81 -102zM565 1252l-138 -116h-165l253 219
h100l253 -219h-165z" />
    <glyph glyph-name="uni1EC6" unicode="&#x1ec6;" horiz-adv-x="1185" 
d="M214 0v1462h854v-143h-686v-507h585v-143h-585v-526h688v-143h-856zM647 1790l-140 -165h-172l259 273h106l259 -273h-172zM573 -397v214h159v-214h-159z" />
    <glyph glyph-name="uni1EC7" unicode="&#x1ec7;" horiz-adv-x="1113" 
d="M309 481v-44q0 -139 59 -220q73 -101 228 -101q154 0 236 101l121 -77q-61 -84 -149 -121.5t-223 -37.5q-256 0 -362 164q-73 112 -73 323v86q0 235 83 351q54 75 132 108q81 35 203 35q217 0 317.5 -119t100.5 -375v-73h-673zM309 604h518v16q0 128 -55 205
q-63 88 -203 88q-156 0 -215 -104q-45 -77 -45 -189v-16zM574 1366l-140 -165h-172l259 273h106l259 -273h-172zM475 -397v214h159v-214h-159z" />
    <glyph glyph-name="uni1EC8" unicode="&#x1ec8;" horiz-adv-x="596" 
d="M213 0v1462h170v-1462h-170zM369 1595h-119q1 63 6.5 85t29.5 57q40 60 40 84q0 49 -63 49q-40 0 -98 -27l-30 95q83 30 151 30q95 0 138 -42q39 -39 39 -98q0 -32 -11 -55t-47 -69q-24 -30 -29.5 -47t-6.5 -62z" />
    <glyph glyph-name="uni1EC9" unicode="&#x1ec9;" horiz-adv-x="522" 
d="M179 0v1029h163v-1029h-163zM332 1178h-119q1 69 8 90t48 82q20 30 20 54q0 49 -63 49q-39 0 -98 -27l-30 95q80 30 152 30q94 0 137 -42q39 -39 39 -98q0 -32 -11 -55.5t-47 -68.5q-24 -30 -29.5 -47t-6.5 -62z" />
    <glyph glyph-name="uni1ECA" unicode="&#x1eca;" horiz-adv-x="596" 
d="M213 0v1462h170v-1462h-170zM217 -397v214h159v-214h-159z" />
    <glyph glyph-name="uni1ECB" unicode="&#x1ecb;" horiz-adv-x="522" 
d="M180 1252v217h163v-217h-163zM180 0v1029h163v-1029h-163zM181 -397v214h159v-214h-159z" />
    <glyph glyph-name="uni1ECC" unicode="&#x1ecc;" horiz-adv-x="1384" 
d="M178 551v360q0 163 31 259q49 154 185 241q112 70 298 70t298 -71q117 -73 166.5 -188t49.5 -311v-360q0 -163 -30 -259q-49 -154 -186 -240q-112 -71 -298 -71t-298 70q-116 74 -166 189t-50 311zM1036 568v326q0 122 -18 196t-61 132q-87 116 -265 116
q-192 0 -279 -136q-36 -57 -50.5 -126t-14.5 -182v-326q0 -121 18 -195.5t61 -132.5q87 -116 265 -116q192 0 279 136q36 57 50.5 126t14.5 182zM611 -397v214h159v-214h-159z" />
    <glyph glyph-name="uni1ECD" unicode="&#x1ecd;" horiz-adv-x="1141" 
d="M146 435v158q0 216 86 323q106 132 335 132q256 0 358 -154q70 -105 70 -301v-158q0 -216 -86 -323q-106 -131 -341 -131q-249 0 -352 154q-70 104 -70 300zM832 444v140q0 169 -63.5 249t-198.5 80q-155 0 -217 -109q-44 -79 -44 -220v-140q0 -168 64 -248t197 -80
q156 0 218 109q44 78 44 219zM490 -397v214h159v-214h-159z" />
    <glyph glyph-name="uni1ECE" unicode="&#x1ece;" horiz-adv-x="1384" 
d="M178 551v360q0 163 31 259q49 154 185 241q112 70 298 70t298 -71q117 -73 166.5 -188t49.5 -311v-360q0 -163 -30 -259q-49 -154 -186 -240q-112 -71 -298 -71t-298 70q-116 74 -166 189t-50 311zM1036 568v326q0 122 -18 196t-61 132q-87 116 -265 116
q-192 0 -279 -136q-36 -57 -50.5 -126t-14.5 -182v-326q0 -121 18 -195.5t61 -132.5q87 -116 265 -116q192 0 279 136q36 57 50.5 126t14.5 182zM763 1595h-119q1 63 6.5 85t29.5 57q40 60 40 84q0 49 -63 49q-40 0 -98 -27l-30 95q83 30 152 30q94 0 137 -42q39 -39 39 -98
q0 -32 -11 -55t-47 -69q-23 -30 -29 -47t-7 -62z" />
    <glyph glyph-name="uni1ECF" unicode="&#x1ecf;" horiz-adv-x="1141" 
d="M146 435v158q0 216 86 323q106 132 335 132q256 0 358 -154q70 -105 70 -301v-158q0 -216 -86 -323q-106 -131 -341 -131q-249 0 -352 154q-70 104 -70 300zM832 444v140q0 169 -63.5 249t-198.5 80q-155 0 -217 -109q-44 -79 -44 -220v-140q0 -168 64 -248t197 -80
q156 0 218 109q44 78 44 219zM642 1178h-120q2 63 7.5 85t29.5 57q40 60 40 84q0 49 -63 49q-40 0 -99 -27l-29 95q80 30 152 30q94 0 137 -42q39 -39 39 -98q0 -32 -11 -55.5t-47 -68.5q-24 -30 -29.5 -47t-6.5 -62z" />
    <glyph glyph-name="uni1ED0" unicode="&#x1ed0;" horiz-adv-x="1384" 
d="M178 551v360q0 163 31 259q49 154 185 241q112 70 298 70t298 -71q117 -73 166.5 -188t49.5 -311v-360q0 -163 -30 -259q-49 -154 -186 -240q-112 -71 -298 -71t-298 70q-116 74 -166 189t-50 311zM1036 568v326q0 122 -18 196t-61 132q-87 116 -265 116
q-192 0 -279 -136q-36 -57 -50.5 -126t-14.5 -182v-326q0 -121 18 -195.5t61 -132.5q87 -116 265 -116q192 0 279 136q36 57 50.5 126t14.5 182zM616 1834l116 233h156l-174 -233h-98zM692 1677l-138 -117h-165l253 220h100l253 -220h-165z" />
    <glyph glyph-name="uni1ED1" unicode="&#x1ed1;" horiz-adv-x="1141" 
d="M146 435v158q0 216 86 323q106 132 335 132q256 0 358 -154q70 -105 70 -301v-158q0 -216 -86 -323q-106 -131 -341 -131q-249 0 -352 154q-70 104 -70 300zM832 444v140q0 169 -63.5 249t-198.5 80q-155 0 -217 -109q-44 -79 -44 -220v-140q0 -168 64 -248t197 -80
q156 0 218 109q44 78 44 219zM495 1410l116 233h155l-174 -233h-97zM570 1252l-137 -116h-166l253 219h100l254 -219h-165z" />
    <glyph glyph-name="uni1ED2" unicode="&#x1ed2;" horiz-adv-x="1384" 
d="M178 551v360q0 163 31 259q49 154 185 241q112 70 298 70t298 -71q117 -73 166.5 -188t49.5 -311v-360q0 -163 -30 -259q-49 -154 -186 -240q-112 -71 -298 -71t-298 70q-116 74 -166 189t-50 311zM1036 568v326q0 122 -18 196t-61 132q-87 116 -265 116
q-192 0 -279 -136q-36 -57 -50.5 -126t-14.5 -182v-326q0 -121 18 -195.5t61 -132.5q87 -116 265 -116q192 0 279 136q36 57 50.5 126t14.5 182zM765 1834h-97l-174 233h155zM692 1677l-138 -117h-165l253 220h100l253 -220h-165z" />
    <glyph glyph-name="uni1ED3" unicode="&#x1ed3;" horiz-adv-x="1141" 
d="M146 435v158q0 216 86 323q106 132 335 132q256 0 358 -154q70 -105 70 -301v-158q0 -216 -86 -323q-106 -131 -341 -131q-249 0 -352 154q-70 104 -70 300zM832 444v140q0 169 -63.5 249t-198.5 80q-155 0 -217 -109q-44 -79 -44 -220v-140q0 -168 64 -248t197 -80
q156 0 218 109q44 78 44 219zM644 1410h-98l-173 233h155zM570 1252l-138 -116h-165l254 219h100l253 -219h-166z" />
    <glyph glyph-name="uni1ED4" unicode="&#x1ed4;" horiz-adv-x="1384" 
d="M178 551v360q0 163 31 259q49 154 185 241q112 70 298 70t298 -71q117 -73 166.5 -188t49.5 -311v-360q0 -163 -30 -259q-49 -154 -186 -240q-112 -71 -298 -71t-298 70q-116 74 -166 189t-50 311zM1036 568v326q0 122 -18 196t-61 132q-87 116 -265 116
q-192 0 -279 -136q-36 -57 -50.5 -126t-14.5 -182v-326q0 -121 18 -195.5t61 -132.5q87 -116 265 -116q192 0 279 136q36 57 50.5 126t14.5 182zM745 1803h-107q2 48 8.5 64.5t42.5 61.5q17 21 17 39q0 29 -56 29q-35 0 -86 -21l-27 78q67 25 135 25q73 0 113.5 -28.5
t40.5 -80.5q0 -38 -50 -91q-20 -21 -24.5 -32t-6.5 -44zM687 1673l-138 -113h-166l253 209h101l253 -209h-165z" />
    <glyph glyph-name="uni1ED5" unicode="&#x1ed5;" horiz-adv-x="1141" 
d="M146 435v158q0 216 86 323q106 132 335 132q256 0 358 -154q70 -105 70 -301v-158q0 -216 -86 -323q-106 -131 -341 -131q-249 0 -352 154q-70 104 -70 300zM832 444v140q0 169 -63.5 249t-198.5 80q-155 0 -217 -109q-44 -79 -44 -220v-140q0 -168 64 -248t197 -80
q156 0 218 109q44 78 44 219zM624 1378h-107q1 43 6.5 60.5t26.5 43.5q35 42 35 60q0 30 -57 30q-36 0 -85 -21l-28 79q70 24 136 24q73 0 113.5 -28.5t40.5 -79.5q0 -40 -51 -92q-20 -21 -24.5 -32t-5.5 -44zM565 1249l-138 -113h-165l253 209h100l254 -209h-166z" />
    <glyph glyph-name="uni1ED6" unicode="&#x1ed6;" horiz-adv-x="1384" 
d="M178 551v360q0 163 31 259q49 154 185 241q112 70 298 70t298 -71q117 -73 166.5 -188t49.5 -311v-360q0 -163 -30 -259q-49 -154 -186 -240q-112 -71 -298 -71t-298 70q-116 74 -166 189t-50 311zM1036 568v326q0 122 -18 196t-61 132q-87 116 -265 116
q-192 0 -279 -136q-36 -57 -50.5 -126t-14.5 -182v-326q0 -121 18 -195.5t61 -132.5q87 -116 265 -116q192 0 279 136q36 57 50.5 126t14.5 182zM519 1849h-91q23 90 46 127q47 76 130 76q64 0 120 -58t86 -58q44 0 66 102h92q-21 -92 -42 -131q-38 -72 -118 -72
q-39 0 -65.5 13t-58.5 47q-52 56 -83 56q-55 0 -82 -102zM701 1677l-138 -117h-165l253 220h100l253 -220h-165z" />
    <glyph glyph-name="uni1ED7" unicode="&#x1ed7;" horiz-adv-x="1141" 
d="M146 435v158q0 216 86 323q106 132 335 132q256 0 358 -154q70 -105 70 -301v-158q0 -216 -86 -323q-106 -131 -341 -131q-249 0 -352 154q-70 104 -70 300zM832 444v140q0 169 -63.5 249t-198.5 80q-155 0 -217 -109q-44 -79 -44 -220v-140q0 -168 64 -248t197 -80
q156 0 218 109q44 78 44 219zM398 1424h-92q24 90 47 128q47 76 129 76q65 0 121 -58t85 -58q43 0 66 102h92q-20 -92 -41 -132q-39 -72 -119 -72q-38 0 -65 13t-59 47q-52 56 -82 56q-55 0 -82 -102zM579 1252l-138 -116h-165l253 219h100l254 -219h-166z" />
    <glyph glyph-name="uni1ED8" unicode="&#x1ed8;" horiz-adv-x="1384" 
d="M178 551v360q0 163 31 259q49 154 185 241q112 70 298 70t298 -71q117 -73 166.5 -188t49.5 -311v-360q0 -163 -30 -259q-49 -154 -186 -240q-112 -71 -298 -71t-298 70q-116 74 -166 189t-50 311zM1036 568v326q0 122 -18 196t-61 132q-87 116 -265 116
q-192 0 -279 -136q-36 -57 -50.5 -126t-14.5 -182v-326q0 -121 18 -195.5t61 -132.5q87 -116 265 -116q192 0 279 136q36 57 50.5 126t14.5 182zM692 1790l-140 -165h-172l259 273h106l259 -273h-172zM611 -397v214h159v-214h-159z" />
    <glyph glyph-name="uni1ED9" unicode="&#x1ed9;" horiz-adv-x="1141" 
d="M146 435v158q0 216 86 323q106 132 335 132q256 0 358 -154q70 -105 70 -301v-158q0 -216 -86 -323q-106 -131 -341 -131q-249 0 -352 154q-70 104 -70 300zM832 444v140q0 169 -63.5 249t-198.5 80q-155 0 -217 -109q-44 -79 -44 -220v-140q0 -168 64 -248t197 -80
q156 0 218 109q44 78 44 219zM570 1366l-140 -165h-172l260 273h105l260 -273h-172zM490 -397v214h159v-214h-159z" />
    <glyph glyph-name="uni1EDA" unicode="&#x1eda;" horiz-adv-x="1435" 
d="M1287 1483h147q13 -41 13 -77q0 -137 -121 -232q-46 -36 -135 -88q15 -85 15 -175v-360q0 -163 -30 -259q-49 -154 -186 -240q-112 -71 -298 -71t-298 70q-116 74 -166 189t-50 311v360q0 163 31 259q49 155 185 241q113 71 299 71q362 0 476 -293q83 53 113.5 94.5
t30.5 102.5q0 46 -26 97zM1036 568v326q0 122 -18 196.5t-61 132.5q-87 116 -265 116q-192 0 -279 -136q-36 -57 -50.5 -126.5t-14.5 -182.5v-326q0 -121 18 -195.5t61 -132.5q87 -116 265 -116q192 0 279 136q36 57 50.5 126t14.5 182zM636 1616l154 292h198l-228 -292
h-124z" />
    <glyph glyph-name="uni1EDB" unicode="&#x1edb;" horiz-adv-x="1192" 
d="M1067 1048h147q13 -41 13 -81q0 -94 -54.5 -164.5t-182.5 -143.5q5 -56 5 -90v-134q0 -216 -86 -323q-106 -131 -341 -131q-249 0 -352 154q-70 104 -70 300v158q0 216 86 323q106 132 339 132q338 0 406 -279q7 6 11 9q55 41 75 71q29 43 29 101q0 52 -25 98zM832 444
v140q0 169 -63.5 249t-198.5 80q-155 0 -217 -109q-44 -79 -44 -220v-140q0 -168 64 -248t197 -80q156 0 218 109q44 78 44 219zM511 1192l154 291h197l-228 -291h-123z" />
    <glyph glyph-name="uni1EDC" unicode="&#x1edc;" horiz-adv-x="1435" 
d="M1287 1483h147q13 -41 13 -77q0 -137 -121 -232q-46 -36 -135 -88q15 -85 15 -175v-360q0 -163 -30 -259q-49 -154 -186 -240q-112 -71 -298 -71t-298 70q-116 74 -166 189t-50 311v360q0 163 31 259q49 155 185 241q113 71 299 71q362 0 476 -293q83 53 113.5 94.5
t30.5 102.5q0 46 -26 97zM1036 568v326q0 122 -18 196.5t-61 132.5q-87 116 -265 116q-192 0 -279 -136q-36 -57 -50.5 -126.5t-14.5 -182.5v-326q0 -121 18 -195.5t61 -132.5q87 -116 265 -116q192 0 279 136q36 57 50.5 126t14.5 182zM852 1616h-123l-229 292h198z" />
    <glyph glyph-name="uni1EDD" unicode="&#x1edd;" horiz-adv-x="1192" 
d="M1067 1048h147q13 -41 13 -81q0 -94 -54.5 -164.5t-182.5 -143.5q5 -56 5 -90v-134q0 -216 -86 -323q-106 -131 -341 -131q-249 0 -352 154q-70 104 -70 300v158q0 216 86 323q106 132 339 132q338 0 406 -279q7 6 11 9q55 41 75 71q29 43 29 101q0 52 -25 98zM832 444
v140q0 169 -63.5 249t-198.5 80q-155 0 -217 -109q-44 -79 -44 -220v-140q0 -168 64 -248t197 -80q156 0 218 109q44 78 44 219zM733 1192h-123l-229 291h198z" />
    <glyph glyph-name="uni1EDE" unicode="&#x1ede;" horiz-adv-x="1435" 
d="M1287 1483h147q13 -41 13 -77q0 -137 -121 -232q-46 -36 -135 -88q15 -85 15 -175v-360q0 -163 -30 -259q-49 -154 -186 -240q-112 -71 -298 -71t-298 70q-116 74 -166 189t-50 311v360q0 163 31 259q49 155 185 241q113 71 299 71q362 0 476 -293q83 53 113.5 94.5
t30.5 102.5q0 46 -26 97zM1036 568v326q0 122 -18 196.5t-61 132.5q-87 116 -265 116q-192 0 -279 -136q-36 -57 -50.5 -126.5t-14.5 -182.5v-326q0 -121 18 -195.5t61 -132.5q87 -116 265 -116q192 0 279 136q36 57 50.5 126t14.5 182zM781 1595h-120q1 63 7 85t29 57
q40 60 40 84q0 49 -63 49q-40 0 -98 -27l-29 95q82 30 151 30q94 0 137 -42q39 -39 39 -98q0 -32 -10.5 -54.5t-47.5 -69.5q-23 -30 -28.5 -47t-6.5 -62z" />
    <glyph glyph-name="uni1EDF" unicode="&#x1edf;" horiz-adv-x="1192" 
d="M1067 1048h147q13 -41 13 -81q0 -94 -54.5 -164.5t-182.5 -143.5q5 -56 5 -90v-134q0 -216 -86 -323q-106 -131 -341 -131q-249 0 -352 154q-70 104 -70 300v158q0 216 86 323q106 132 339 132q338 0 406 -279q7 6 11 9q55 41 75 71q29 43 29 101q0 52 -25 98zM832 444
v140q0 169 -63.5 249t-198.5 80q-155 0 -217 -109q-44 -79 -44 -220v-140q0 -168 64 -248t197 -80q156 0 218 109q44 78 44 219zM675 1178h-120q2 63 7.5 85t29.5 57q40 60 40 84q0 49 -64 49q-39 0 -97 -27l-30 95q80 30 152 30q94 0 137 -42q39 -39 39 -98
q0 -32 -11 -55.5t-47 -68.5q-24 -30 -29.5 -47t-6.5 -62z" />
    <glyph glyph-name="uni1EE0" unicode="&#x1ee0;" horiz-adv-x="1435" 
d="M1287 1483h147q13 -41 13 -77q0 -137 -121 -232q-46 -36 -135 -88q15 -85 15 -175v-360q0 -163 -30 -259q-49 -154 -186 -240q-112 -71 -298 -71t-298 70q-116 74 -166 189t-50 311v360q0 163 31 259q49 155 185 241q113 71 299 71q362 0 476 -293q83 53 113.5 94.5
t30.5 102.5q0 46 -26 97zM1036 568v326q0 122 -18 196.5t-61 132.5q-87 116 -265 116q-192 0 -279 -136q-36 -57 -50.5 -126.5t-14.5 -182.5v-326q0 -121 18 -195.5t61 -132.5q87 -116 265 -116q192 0 279 136q36 57 50.5 126t14.5 182zM506 1646h-105q26 105 50 146
q52 88 148 88q77 0 150 -65q45 -41 66 -53.5t42 -12.5q57 0 85 115h105q-25 -106 -48 -149q-46 -85 -145 -85q-45 0 -79 15t-76 54q-41 37 -62 49.5t-43 12.5q-60 0 -88 -115z" />
    <glyph glyph-name="uni1EE1" unicode="&#x1ee1;" horiz-adv-x="1192" 
d="M1067 1048h147q13 -41 13 -81q0 -94 -54.5 -164.5t-182.5 -143.5q5 -56 5 -90v-134q0 -216 -86 -323q-106 -131 -341 -131q-249 0 -352 154q-70 104 -70 300v158q0 216 86 323q106 132 339 132q338 0 406 -279q7 6 11 9q55 41 75 71q29 43 29 101q0 52 -25 98zM832 444
v140q0 169 -63.5 249t-198.5 80q-155 0 -217 -109q-44 -79 -44 -220v-140q0 -168 64 -248t197 -80q156 0 218 109q44 78 44 219zM387 1221h-105q26 105 50 146q52 88 148 88q77 0 149 -65q45 -40 66 -52.5t43 -12.5q56 0 84 115h106q-26 -108 -49 -150q-45 -85 -145 -85
q-44 0 -78 15t-76 53t-62.5 50t-42.5 12q-60 0 -88 -114z" />
    <glyph glyph-name="uni1EE2" unicode="&#x1ee2;" horiz-adv-x="1435" 
d="M1287 1483h147q13 -41 13 -77q0 -137 -121 -232q-46 -36 -135 -88q15 -85 15 -175v-360q0 -163 -30 -259q-49 -154 -186 -240q-112 -71 -298 -71t-298 70q-116 74 -166 189t-50 311v360q0 163 31 259q49 155 185 241q113 71 299 71q362 0 476 -293q83 53 113.5 94.5
t30.5 102.5q0 46 -26 97zM1036 568v326q0 122 -18 196.5t-61 132.5q-87 116 -265 116q-192 0 -279 -136q-36 -57 -50.5 -126.5t-14.5 -182.5v-326q0 -121 18 -195.5t61 -132.5q87 -116 265 -116q192 0 279 136q36 57 50.5 126t14.5 182zM583 -397v214h159v-214h-159z" />
    <glyph glyph-name="uni1EE3" unicode="&#x1ee3;" horiz-adv-x="1192" 
d="M1067 1048h147q13 -41 13 -81q0 -94 -54.5 -164.5t-182.5 -143.5q5 -56 5 -90v-134q0 -216 -86 -323q-106 -131 -341 -131q-249 0 -352 154q-70 104 -70 300v158q0 216 86 323q106 132 339 132q338 0 406 -279q7 6 11 9q55 41 75 71q29 43 29 101q0 52 -25 98zM832 444
v140q0 169 -63.5 249t-198.5 80q-155 0 -217 -109q-44 -79 -44 -220v-140q0 -168 64 -248t197 -80q156 0 218 109q44 78 44 219zM484 -397v214h159v-214h-159z" />
    <glyph glyph-name="uni1EE4" unicode="&#x1ee4;" horiz-adv-x="1413" 
d="M207 1462h170v-925q0 -112 12 -174t42 -109q44 -68 108.5 -98.5t166.5 -30.5q138 0 210 56q68 54 94 130.5t26 225.5v925h170v-925q0 -155 -19 -237.5t-69 -148.5q-64 -82 -149 -122q-100 -47 -263 -47q-206 0 -318 80q-127 91 -162 237q-19 79 -19 238v925zM626 -397
v214h159v-214h-159z" />
    <glyph glyph-name="uni1EE5" unicode="&#x1ee5;" horiz-adv-x="1136" 
d="M172 1029h163v-575q0 -138 26 -206q49 -128 196 -128q127 0 181 89t54 297v523h163v-1029h-126l-13 115q-84 -134 -279 -134q-265 0 -335 199q-30 85 -30 258v591zM487 -397v214h159v-214h-159z" />
    <glyph glyph-name="uni1EE6" unicode="&#x1ee6;" horiz-adv-x="1413" 
d="M207 1462h170v-925q0 -112 12 -174t42 -109q44 -68 108.5 -98.5t166.5 -30.5q138 0 210 56q68 54 94 130.5t26 225.5v925h170v-925q0 -155 -19 -237.5t-69 -148.5q-64 -82 -149 -122q-100 -47 -263 -47q-206 0 -318 80q-127 91 -162 237q-19 79 -19 238v925zM778 1595
h-120q2 69 9 90t48 82q20 30 20 54q0 49 -63 49q-40 0 -98 -27l-30 95q82 30 151 30q95 0 138 -42q39 -39 39 -98q0 -32 -11 -55.5t-47 -68.5q-24 -30 -29.5 -47t-6.5 -62z" />
    <glyph glyph-name="uni1EE7" unicode="&#x1ee7;" horiz-adv-x="1136" 
d="M172 1029h163v-575q0 -138 26 -206q49 -128 196 -128q127 0 181 89t54 297v523h163v-1029h-126l-13 115q-84 -134 -279 -134q-265 0 -335 199q-30 85 -30 258v591zM640 1178h-120q1 63 7 85t29 57q40 60 40 84q0 49 -63 49q-39 0 -98 -27l-30 95q81 30 152 30
q94 0 137 -42q39 -39 39 -98q0 -32 -11 -55t-47 -69q-23 -30 -28.5 -47t-6.5 -62z" />
    <glyph glyph-name="uni1EE8" unicode="&#x1ee8;" horiz-adv-x="1492" 
d="M207 1462h170v-925q0 -112 12 -174t42 -109q44 -68 108.5 -98.5t166.5 -30.5q138 0 210 56q68 54 94 130.5t26 225.5v925h170v-305q108 51 152 101.5t44 124.5q0 50 -26 100h147q13 -44 13 -82q0 -146 -154 -256q-50 -37 -176 -101v-507q0 -155 -19 -237.5t-69 -148.5
q-64 -82 -149 -122q-100 -47 -263 -47q-206 0 -318 80q-127 91 -162 237q-19 79 -19 238v925zM668 1616l154 292h198l-228 -292h-124z" />
    <glyph glyph-name="uni1EE9" unicode="&#x1ee9;" horiz-adv-x="1225" 
d="M172 1029h163v-575q0 -138 26 -206q49 -128 196 -128q127 0 181 89t54 297v523h163v-306q111 54 153 103t42 123q0 52 -25 99h147q13 -43 13 -81q0 -146 -154 -257q-47 -33 -176 -100v-610h-126l-13 115q-84 -134 -279 -134q-265 0 -335 199q-30 85 -30 258v591z
M512 1192l154 291h198l-228 -291h-124z" />
    <glyph glyph-name="uni1EEA" unicode="&#x1eea;" horiz-adv-x="1492" 
d="M207 1462h170v-925q0 -112 12 -174t42 -109q44 -68 108.5 -98.5t166.5 -30.5q138 0 210 56q68 54 94 130.5t26 225.5v925h170v-305q108 51 152 101.5t44 124.5q0 50 -26 100h147q13 -44 13 -82q0 -146 -154 -256q-50 -37 -176 -101v-507q0 -155 -19 -237.5t-69 -148.5
q-64 -82 -149 -122q-100 -47 -263 -47q-206 0 -318 80q-127 91 -162 237q-19 79 -19 238v925zM809 1616h-124l-228 292h198z" />
    <glyph glyph-name="uni1EEB" unicode="&#x1eeb;" horiz-adv-x="1225" 
d="M172 1029h163v-575q0 -138 26 -206q49 -128 196 -128q127 0 181 89t54 297v523h163v-306q111 54 153 103t42 123q0 52 -25 99h147q13 -43 13 -81q0 -146 -154 -257q-47 -33 -176 -100v-610h-126l-13 115q-84 -134 -279 -134q-265 0 -335 199q-30 85 -30 258v591z
M666 1192h-123l-228 291h197z" />
    <glyph glyph-name="uni1EEC" unicode="&#x1eec;" horiz-adv-x="1492" 
d="M207 1462h170v-925q0 -112 12 -174t42 -109q44 -68 108.5 -98.5t166.5 -30.5q138 0 210 56q68 54 94 130.5t26 225.5v925h170v-305q108 51 152 101.5t44 124.5q0 50 -26 100h147q13 -44 13 -82q0 -146 -154 -256q-50 -37 -176 -101v-507q0 -155 -19 -237.5t-69 -148.5
q-64 -82 -149 -122q-100 -47 -263 -47q-206 0 -318 80q-127 91 -162 237q-19 79 -19 238v925zM799 1595h-120q2 69 8.5 90t47.5 82q20 30 20 54q0 49 -63 49q-40 0 -98 -27l-30 95q83 30 152 30q94 0 137 -42q39 -39 39 -98q0 -32 -10.5 -55t-47.5 -69q-23 -30 -28.5 -47
t-6.5 -62z" />
    <glyph glyph-name="uni1EED" unicode="&#x1eed;" horiz-adv-x="1225" 
d="M172 1029h163v-575q0 -138 26 -206q49 -128 196 -128q127 0 181 89t54 297v523h163v-306q111 54 153 103t42 123q0 52 -25 99h147q13 -43 13 -81q0 -146 -154 -257q-47 -33 -176 -100v-610h-126l-13 115q-84 -134 -279 -134q-265 0 -335 199q-30 85 -30 258v591z
M615 1178h-119q1 69 8 90t48 82q20 30 20 54q0 49 -63 49q-40 0 -98 -27l-30 95q81 30 152 30q94 0 137 -42q39 -39 39 -98q0 -32 -11 -55t-47 -69q-24 -30 -29.5 -47t-6.5 -62z" />
    <glyph glyph-name="uni1EEE" unicode="&#x1eee;" horiz-adv-x="1492" 
d="M207 1462h170v-925q0 -112 12 -174t42 -109q44 -68 108.5 -98.5t166.5 -30.5q138 0 210 56q68 54 94 130.5t26 225.5v925h170v-305q108 51 152 101.5t44 124.5q0 50 -26 100h147q13 -44 13 -82q0 -146 -154 -256q-50 -37 -176 -101v-507q0 -155 -19 -237.5t-69 -148.5
q-64 -82 -149 -122q-100 -47 -263 -47q-206 0 -318 80q-127 91 -162 237q-19 79 -19 238v925zM483 1646h-105q27 105 51 146q51 88 147 88q77 0 150 -65q45 -41 66 -53.5t43 -12.5q56 0 84 115h105q-25 -106 -48 -149q-46 -85 -145 -85q-45 0 -78.5 15t-76.5 54
q-41 37 -61.5 49.5t-42.5 12.5q-61 0 -89 -115z" />
    <glyph glyph-name="uni1EEF" unicode="&#x1eef;" horiz-adv-x="1225" 
d="M172 1029h163v-575q0 -138 26 -206q49 -128 196 -128q127 0 181 89t54 297v523h163v-306q111 54 153 103t42 123q0 52 -25 99h147q13 -43 13 -81q0 -146 -154 -257q-47 -33 -176 -100v-610h-126l-13 115q-84 -134 -279 -134q-265 0 -335 199q-30 85 -30 258v591z
M347 1221h-105q27 105 51 146q51 88 147 88q77 0 150 -65q45 -40 66 -52.5t43 -12.5q56 0 84 115h105q-25 -108 -48 -150q-46 -85 -145 -85q-45 0 -78.5 15t-76.5 53q-41 38 -61.5 50t-42.5 12q-61 0 -89 -114z" />
    <glyph glyph-name="uni1EF0" unicode="&#x1ef0;" horiz-adv-x="1492" 
d="M207 1462h170v-925q0 -112 12 -174t42 -109q44 -68 108.5 -98.5t166.5 -30.5q138 0 210 56q68 54 94 130.5t26 225.5v925h170v-305q108 51 152 101.5t44 124.5q0 50 -26 100h147q13 -44 13 -82q0 -146 -154 -256q-50 -37 -176 -101v-507q0 -155 -19 -237.5t-69 -148.5
q-64 -82 -149 -122q-100 -47 -263 -47q-206 0 -318 80q-127 91 -162 237q-19 79 -19 238v925zM628 -397v214h159v-214h-159z" />
    <glyph glyph-name="uni1EF1" unicode="&#x1ef1;" horiz-adv-x="1225" 
d="M172 1029h163v-575q0 -138 26 -206q49 -128 196 -128q127 0 181 89t54 297v523h163v-306q111 54 153 103t42 123q0 52 -25 99h147q13 -43 13 -81q0 -146 -154 -257q-47 -33 -176 -100v-610h-126l-13 115q-84 -134 -279 -134q-265 0 -335 199q-30 85 -30 258v591z
M513 -397v214h159v-214h-159z" />
    <glyph glyph-name="Ygrave" unicode="&#x1ef2;" horiz-adv-x="1090" 
d="M462 0v528l-461 934h180l366 -759l365 759h181l-461 -934v-528h-170zM653 1616h-124l-228 292h198z" />
    <glyph glyph-name="ygrave" unicode="&#x1ef3;" horiz-adv-x="999" 
d="M424 2l-379 1027h164l300 -845l268 845h166l-406 -1195q-40 -118 -81.5 -181.5t-94.5 -87.5q-78 -36 -239 -36v137q117 1 163 35t87 149zM607 1192h-124l-228 291h198z" />
    <glyph glyph-name="uni1EF4" unicode="&#x1ef4;" horiz-adv-x="1090" 
d="M462 0v528l-461 934h180l366 -759l365 759h181l-461 -934v-528h-170zM465 -397v214h159v-214h-159z" />
    <glyph glyph-name="uni1EF5" unicode="&#x1ef5;" horiz-adv-x="999" 
d="M424 2l-379 1027h164l300 -845l268 845h166l-406 -1195q-40 -118 -81.5 -181.5t-94.5 -87.5q-78 -36 -239 -36v137q117 1 163 35t87 149zM637 -397v214h159v-214h-159z" />
    <glyph glyph-name="uni1EF6" unicode="&#x1ef6;" horiz-adv-x="1090" 
d="M462 0v528l-461 934h180l366 -759l365 759h181l-461 -934v-528h-170zM617 1595h-120q2 63 7.5 85t28.5 57q40 60 40 84q0 49 -63 49q-39 0 -98 -27l-29 95q82 30 151 30q94 0 137 -42q39 -39 39 -98q0 -32 -10.5 -55t-46.5 -69q-24 -30 -29.5 -47t-6.5 -62z" />
    <glyph glyph-name="uni1EF7" unicode="&#x1ef7;" horiz-adv-x="999" 
d="M424 2l-379 1027h164l300 -845l268 845h166l-406 -1195q-40 -118 -81.5 -181.5t-94.5 -87.5q-78 -36 -239 -36v137q117 1 163 35t87 149zM571 1178h-120q2 63 7.5 85t29.5 57q40 60 40 84q0 49 -63 49q-40 0 -98 -27l-30 95q80 30 152 30q94 0 137 -42q39 -39 39 -98
q0 -32 -11 -55.5t-47 -68.5q-24 -30 -29.5 -47t-6.5 -62z" />
    <glyph glyph-name="uni1EF8" unicode="&#x1ef8;" horiz-adv-x="1090" 
d="M462 0v528l-461 934h180l366 -759l365 759h181l-461 -934v-528h-170zM328 1646h-106q27 105 51 146q52 88 148 88q76 0 149 -65q45 -41 66 -53.5t43 -12.5q56 0 84 115h105q-25 -106 -48 -149q-46 -85 -145 -85q-44 0 -78 15t-76 54q-42 37 -62.5 49.5t-42.5 12.5
q-61 0 -88 -115z" />
    <glyph glyph-name="uni1EF9" unicode="&#x1ef9;" horiz-adv-x="999" 
d="M424 2l-379 1027h164l300 -845l268 845h166l-406 -1195q-40 -118 -81.5 -181.5t-94.5 -87.5q-78 -36 -239 -36v137q117 1 163 35t87 149zM282 1221h-105q26 105 50 146q52 88 148 88q77 0 149 -65q45 -40 66 -52.5t43 -12.5q56 0 84 115h106q-26 -108 -49 -150
q-45 -85 -145 -85q-44 0 -78 15t-76 53t-62.5 50t-42.5 12q-60 0 -88 -114z" />
    <glyph glyph-name="uni2002" unicode="&#x2002;" horiz-adv-x="1024" 
 />
    <glyph glyph-name="uni2003" unicode="&#x2003;" horiz-adv-x="2048" 
 />
    <glyph glyph-name="uni2004" unicode="&#x2004;" horiz-adv-x="683" 
 />
    <glyph glyph-name="uni2005" unicode="&#x2005;" horiz-adv-x="512" 
 />
    <glyph glyph-name="uni2006" unicode="&#x2006;" horiz-adv-x="341" 
 />
    <glyph glyph-name="uni2007" unicode="&#x2007;" 
 />
    <glyph glyph-name="uni2008" unicode="&#x2008;" horiz-adv-x="0" 
 />
    <glyph glyph-name="uni2009" unicode="&#x2009;" horiz-adv-x="410" 
 />
    <glyph glyph-name="uni200A" unicode="&#x200a;" horiz-adv-x="256" 
 />
    <glyph glyph-name="uni2011" unicode="&#x2011;" horiz-adv-x="974" 
d="M199 672v143h576v-143h-576z" />
    <glyph glyph-name="figuredash" unicode="&#x2012;" 
d="M156 672v143h793v-143h-793z" />
    <glyph glyph-name="afii00208" unicode="&#x2015;" 
d="M6 672v143h1094v-143h-1094z" />
    <glyph glyph-name="underscoredbl" unicode="&#x2017;" horiz-adv-x="963" 
d="M-51 -439v99h1065v-99h-1065zM-51 -263v99h1065v-99h-1065z" />
    <glyph glyph-name="uni203E" unicode="&#x203e;" horiz-adv-x="963" 
d="M-51 1662v120h1065v-120h-1065z" />
    <glyph glyph-name="zerosuperior" unicode="&#x2070;" horiz-adv-x="721" 
d="M86 1103v252q0 163 61 238q70 85 214 85q142 0 208 -77.5t66 -245.5v-252q0 -164 -61 -238q-71 -85 -213 -85q-143 0 -209 77.5t-66 245.5zM504 1113v232q0 230 -143 230q-144 0 -144 -230v-232q0 -230 144 -230q143 0 143 230z" />
    <glyph glyph-name="foursuperior" unicode="&#x2074;" horiz-adv-x="715" 
d="M441 791v165h-382v81l300 630h144l-289 -604h227v188h122v-188h92v-109h-92v-163h-122z" />
    <glyph glyph-name="fivesuperior" unicode="&#x2075;" horiz-adv-x="706" 
d="M103 1202l46 465h446v-109h-331l-27 -243q61 26 122 26q133 0 198 -68.5t65 -210.5q0 -138 -62 -203q-75 -79 -228 -79q-243 0 -268 198l128 22q25 -111 146 -111q70 0 109.5 44.5t39.5 123.5q0 181 -143 181q-83 0 -141 -55z" />
    <glyph glyph-name="sixsuperior" unicode="&#x2076;" horiz-adv-x="715" 
d="M324 1332q44 10 76 10q119 0 184 -83q48 -60 48 -196q0 -155 -66 -217q-71 -66 -206 -66q-143 0 -207.5 67t-64.5 217q0 73 14 121t57 121l210 361h157zM362 1243q-143 0 -143 -180t141 -180t141 180t-139 180z" />
    <glyph glyph-name="sevensuperior" unicode="&#x2077;" horiz-adv-x="524" 
d="M77 791l256 767h-329v109h477v-79l-257 -797h-147z" />
    <glyph glyph-name="eightsuperior" unicode="&#x2078;" horiz-adv-x="715" 
d="M180 1255q-44 33 -62.5 75.5t-18.5 108.5q0 124 63 182t196 58t196 -58t63 -181q0 -67 -17.5 -107t-62.5 -78q56 -30 81 -79.5t25 -133.5q0 -137 -65 -197q-73 -66 -220 -66q-148 0 -216.5 63t-68.5 199q0 159 107 214zM360 1581q-138 0 -138 -144t136 -144t136 144
t-134 144zM360 1201q-156 0 -156 -160q0 -159 154 -159t154 159q0 160 -152 160z" />
    <glyph glyph-name="ninesuperior" unicode="&#x2079;" horiz-adv-x="715" 
d="M398 1160q-50 -9 -86 -9q-228 0 -228 260q0 146 67 205q70 62 205 62q141 0 206.5 -63.5t65.5 -199.5q0 -70 -10 -109.5t-44 -101.5l-227 -413h-157zM358 1575q-143 0 -143 -163t141 -163t141 163t-139 163z" />
    <glyph glyph-name="zeroinferior" unicode="&#x2080;" horiz-adv-x="721" 
d="M86 108v251q0 164 61 238q70 85 214 85q142 0 208 -77.5t66 -245.5v-251q0 -164 -61 -238q-71 -85 -213 -85q-143 0 -209 77.5t-66 245.5zM504 118v231q0 230 -143 230q-144 0 -144 -230v-231q0 -230 144 -230q143 0 143 230z" />
    <glyph glyph-name="oneinferior" unicode="&#x2081;" horiz-adv-x="483" 
d="M200 -205v744l-158 -63l-37 102l236 94h94v-877h-135z" />
    <glyph glyph-name="twoinferior" unicode="&#x2082;" horiz-adv-x="700" 
d="M85 -205v87l258 306q133 156 133 256q0 61 -35 96t-96 35q-120 0 -151 -129l-125 15q18 106 65 151q72 72 214 72q263 0 263 -243q0 -82 -34.5 -151t-135.5 -188l-167 -198h334v-109h-523z" />
    <glyph glyph-name="threeinferior" unicode="&#x2083;" horiz-adv-x="700" 
d="M215 208v96h91q66 0 111.5 39.5t45.5 98.5t-37.5 95t-99.5 36q-112 0 -141 -101l-122 14q15 94 63 135q70 61 205 61q267 0 267 -236q0 -71 -25 -113.5t-84 -74.5q133 -65 133 -220q0 -253 -296 -253q-167 0 -242 80q-35 38 -46 117l127 23q27 -111 158 -111
q77 0 120.5 40t43.5 109q0 72 -49 118.5t-125 46.5h-98z" />
    <glyph glyph-name="fourinferior" unicode="&#x2084;" horiz-adv-x="715" 
d="M441 -205v165h-382v81l300 631h144l-289 -605h227v189h122v-189h92v-108h-92v-164h-122z" />
    <glyph glyph-name="fiveinferior" unicode="&#x2085;" horiz-adv-x="706" 
d="M103 207l46 465h446v-109h-331l-27 -243q61 26 122 26q133 0 198 -68.5t65 -210.5q0 -138 -62 -203q-75 -79 -228 -79q-243 0 -268 198l128 22q25 -111 146 -111q70 0 109.5 44.5t39.5 123.5q0 181 -143 181q-83 0 -141 -55z" />
    <glyph glyph-name="sixinferior" unicode="&#x2086;" horiz-adv-x="715" 
d="M324 336q44 10 76 10q119 0 184 -83q48 -60 48 -196q0 -155 -66 -216q-71 -66 -206 -66q-143 0 -207.5 67t-64.5 216q0 74 14 121.5t57 121.5l210 361h157zM362 247q-143 0 -143 -179q0 -180 141 -180t141 180q0 179 -139 179z" />
    <glyph glyph-name="seveninferior" unicode="&#x2087;" horiz-adv-x="524" 
d="M79 -205l256 768h-329v109h477v-79l-257 -798h-147z" />
    <glyph glyph-name="eightinferior" unicode="&#x2088;" horiz-adv-x="715" 
d="M180 260q-44 32 -62.5 75t-18.5 109q0 124 63 182t196 58t196 -58.5t63 -180.5q0 -67 -17.5 -107.5t-62.5 -77.5q56 -30 81 -80t25 -134q0 -137 -65 -197q-73 -66 -220 -66q-148 0 -216.5 63t-68.5 199q0 160 107 215zM360 586q-138 0 -138 -144q0 -145 136 -145t136 145
q0 144 -134 144zM360 205q-156 0 -156 -160q0 -159 154 -159t154 159q0 160 -152 160z" />
    <glyph glyph-name="nineinferior" unicode="&#x2089;" horiz-adv-x="715" 
d="M398 164q-51 -9 -86 -9q-228 0 -228 260q0 146 67 205q70 62 205 62q141 0 206.5 -63.5t65.5 -199.5q0 -70 -10 -109.5t-44 -101.5l-227 -413h-157zM358 579q-143 0 -143 -163t141 -163t141 163t-139 163z" />
    <glyph glyph-name="franc" unicode="&#x20a3;" horiz-adv-x="1523" 
d="M185 0v1462h683v-143h-517v-519h416v-143h-416v-657h-166zM919 0v909h125l18 -106q33 46 66 72q70 53 187 53q94 0 188 -47l-67 -136q-72 47 -137 47q-116 0 -168.5 -97t-52.5 -312v-383h-159z" />
    <glyph glyph-name="lira" unicode="&#x20a4;" 
d="M125 0v123q98 35 164.5 136.5t66.5 216.5q0 15 -2 38h-246v119h219q-15 42 -48 106h-171v119h113q-56 119 -56 223q0 90 31 170.5t86 131.5q105 98 288 98q364 0 443 -370l-142 -36q-29 107 -67 159q-79 107 -224 107q-117 0 -181 -71q-64 -70 -64 -178q0 -96 74 -234
h392v-119h-333q25 -61 37 -106h296v-119h-287q2 -47 2 -58q0 -168 -155 -313h675v-143h-911z" />
    <glyph glyph-name="peseta" unicode="&#x20a7;" 
d="M199 951h-182v119h182v392h332q110 0 178 -15t125 -53q151 -98 164 -324h144v-119h-143q-24 -411 -468 -399h-166v-552h-166v951zM362 951v-262h176q272 -7 296 262h-472zM362 1070h471q-23 263 -295 255h-176v-255z" />
    <glyph glyph-name="uni20AB" unicode="&#x20ab;" 
d="M85 -358v120h915v-120h-915zM742 1172h-308v115h308v175h163v-175h167v-115h-167v-1172h-129l-10 88q-7 -6 -37 -35q-35 -32 -107.5 -52t-157.5 -20q-150 0 -234 57q-155 106 -155 399v155q0 216 79 324q49 68 123 100t184 32q134 0 223 -50q13 -8 58 -47v221zM237 582
v-135q0 -331 250 -331q255 0 255 315v167q0 315 -255 315q-250 0 -250 -331z" />
    <glyph glyph-name="uni20B4" unicode="&#x20b4;" 
d="M40 669l31 114l215 -58q33 16 143 54q52 17 80 29l-403 108l31 114l549 -147q39 26 61 50q58 64 58 167q0 106 -59 173q-66 74 -196 74q-168 0 -234 -120l-126 71q104 182 365 182q200 0 308 -112q99 -103 99 -278q0 -86 -20 -141.5t-72 -115.5l155 -41l-31 -114l-222 60
q-65 -34 -224 -83l411 -110l-31 -114l-557 149q-97 -72 -97 -204q0 -108 62 -178q74 -82 233 -82q221 0 306 140l129 -73q-58 -99 -170 -150t-268 -51q-232 0 -349 120q-100 102 -100 286q0 78 15 122.5t65 116.5z" />
    <glyph glyph-name="uni2101" unicode="&#x2101;" horiz-adv-x="1796" 
d="M808 602l270 860h140l-459 -1462h-140l184 586h-134l-68 180h-399l-68 -180h-146l357 876h113zM566 863l-165 434l-164 -434h329zM1080 131l111 65q63 -99 219 -99q100 0 151 46q41 38 41 94q0 64 -52 98q-26 17 -46.5 23.5t-119.5 29.5q-123 28 -186 75q-80 59 -80 176
q0 119 77 183.5t219 64.5q199 0 284 -124l-109 -64q-59 81 -179 81q-74 0 -117 -35t-43 -95q0 -58 46.5 -93t157.5 -60q91 -22 124 -33t67 -33q89 -56 89 -189q0 -253 -325 -253q-235 0 -329 142z" />
    <glyph glyph-name="afii61248" unicode="&#x2105;" horiz-adv-x="1875" 
d="M623 835l101 -59q-93 -137 -299 -137q-201 0 -290 138q-60 92 -60 254v30q0 414 347 414q198 0 285 -142l-103 -57q-35 48 -75 68t-100 20q-221 0 -221 -304v-32q0 -278 227 -278q128 0 188 85zM1082 370v70q0 181 73 272q90 112 284 112q215 0 303 -131q59 -88 59 -253
v-70q0 -181 -73 -272q-90 -111 -289 -111q-211 0 -298 130q-59 89 -59 253zM1667 376v58q0 280 -226 280q-225 0 -225 -280v-58q0 -279 225 -279q226 0 226 279zM618 0l459 1462h139l-459 -1462h-139z" />
    <glyph glyph-name="afii61289" unicode="&#x2113;" 
d="M356 447q-48 -53 -91 -92t-54 -39q-10 0 -20 16t-10 33q0 27 43 67q73 68 148 155q72 413 137 615q50 154 115 228q57 66 144 66q79 0 121 -60q38 -55 38 -131q0 -96 -43.5 -215t-119.5 -229q-84 -123 -238 -277q-58 -334 -58 -428q0 -76 52 -76q34 0 56 22.5t60 96.5
q26 50 53 50q31 0 31 -37q0 -76 -78 -166q-70 -80 -160 -80q-151 0 -151 194q0 94 25 287zM546 726q122 139 186 255q97 177 97 312q0 40 -16 65t-41 25q-38 0 -66 -39.5t-57 -134.5q-45 -145 -103 -483z" />
    <glyph glyph-name="afii61352" unicode="&#x2116;" horiz-adv-x="2360" 
d="M213 0v1462h164l722 -1170v1170h165v-1462h-163l-722 1170v-1170h-166zM1497 719v69q0 190 75 284q93 118 293 118q217 0 308 -138q60 -92 60 -264v-69q0 -189 -75 -284q-93 -117 -293 -117q-217 0 -308 137q-60 92 -60 264zM2074 727v53q0 142 -50.5 208.5t-158.5 66.5
q-124 0 -173 -89q-36 -65 -36 -186v-53q0 -141 51 -207.5t158 -66.5q124 0 173 89q36 65 36 185zM1497 0v134h736v-134h-736z" />
    <glyph glyph-name="estimated" unicode="&#x212e;" horiz-adv-x="1229" 
d="M1118 656h-807v-276q34 -110 72 -166q35 -51 95 -80q67 -32 147 -32q170 0 268 129q43 56 67 124h118q-45 -152 -100 -218q-128 -157 -351 -157q-253 0 -386 196q-128 189 -128 498q0 333 147 531q67 91 169 140q89 42 195 42q181 0 310 -117q145 -132 174 -405
q9 -79 10 -209zM939 763v239q-20 70 -56 123q-52 75 -112.5 107.5t-149.5 32.5q-114 0 -183.5 -58.5t-126.5 -202.5v-241h628z" />
    <glyph glyph-name="onethird" unicode="&#x2153;" horiz-adv-x="1761" 
d="M301 586v743l-158 -62l-37 101l236 94h94v-876h-135zM457 0l460 1462h154l-459 -1462h-155zM1185 413v96h91q66 0 111.5 40t45.5 98q0 59 -37.5 95t-99.5 36q-113 0 -140 -101l-123 14q15 94 63 135q70 61 205 61q267 0 267 -236q0 -71 -25 -113.5t-84 -74.5
q133 -65 133 -220q0 -253 -296 -253q-168 0 -242 80q-32 34 -46 117l127 23q27 -111 158 -111q77 0 120.5 40t43.5 109q0 72 -49 118.5t-125 46.5h-98z" />
    <glyph glyph-name="twothirds" unicode="&#x2154;" horiz-adv-x="1761" 
d="M100 586v87l258 305q133 157 133 256q0 61 -35 96t-96 35q-120 0 -151 -128l-125 14q18 106 65 151q72 72 214 72q263 0 263 -242q0 -82 -34.5 -151t-135.5 -188l-167 -198h334v-109h-523zM1276 413v96h91q66 0 111.5 40t45.5 98q0 59 -37.5 95t-99.5 36
q-113 0 -141 -101l-122 14q15 94 63 135q69 61 205 61q267 0 267 -236q0 -71 -25 -113.5t-84 -74.5q133 -65 133 -220q0 -253 -296 -253q-168 0 -242 80q-32 35 -47 117l128 23q28 -111 158 -111q76 0 120 40t44 109q0 72 -49 118.5t-125 46.5h-98zM575 0l459 1462h155
l-459 -1462h-155z" />
    <glyph glyph-name="uni2155" unicode="&#x2155;" horiz-adv-x="1761" 
d="M308 586v743l-158 -62l-37 101l236 94h94v-876h-135zM464 0l460 1462h154l-459 -1462h-155zM1074 412l47 465h446v-109h-331l-27 -243q61 26 121 26q134 0 199 -68.5t65 -209.5q0 -140 -62 -204q-75 -79 -228 -79q-245 0 -268 198l127 22q26 -111 147 -111q69 0 109 44.5
t40 123.5q0 181 -143 181q-82 0 -141 -55z" />
    <glyph glyph-name="uni2156" unicode="&#x2156;" horiz-adv-x="1761" 
d="M104 586v87l258 305q133 157 133 256q0 61 -35 96t-96 35q-120 0 -151 -128l-125 14q18 106 65 151q72 72 214 72q263 0 263 -242q0 -82 -34.5 -151t-135.5 -188l-167 -198h334v-109h-523zM1134 412l47 465h446v-109h-331l-27 -243q60 26 121 26q134 0 199 -68.5
t65 -210.5q0 -138 -62 -203q-75 -79 -228 -79q-243 0 -268 198l127 22q25 -111 147 -111q70 0 109.5 44.5t39.5 123.5q0 181 -143 181q-83 0 -142 -55zM578 0l460 1462h154l-459 -1462h-155z" />
    <glyph glyph-name="uni2157" unicode="&#x2157;" horiz-adv-x="1761" 
d="M240 999v96h91q66 0 111.5 39.5t45.5 97.5q0 59 -37.5 95t-99.5 36q-113 0 -141 -101l-122 15q15 94 63 135q70 60 205 60q267 0 267 -235q0 -71 -25 -113.5t-84 -74.5q133 -65 133 -221q0 -253 -296 -253q-168 0 -242 81q-35 38 -46 117l127 23q26 -112 158 -112
q77 0 120.5 40t43.5 110q0 72 -49 118.5t-125 46.5h-98zM1128 412l46 465h446v-109h-331l-27 -243q61 26 121 26q134 0 199 -68.5t65 -210.5q0 -138 -62 -203q-75 -79 -228 -79q-243 0 -268 198l128 22q23 -111 146 -111q69 0 109 44.5t40 123.5q0 181 -143 181
q-82 0 -141 -55zM566 0l460 1462h154l-459 -1462h-155z" />
    <glyph glyph-name="uni2158" unicode="&#x2158;" horiz-adv-x="1761" 
d="M452 586v165h-382v81l300 630h144l-289 -604h227v188h122v-188h92v-109h-92v-163h-122zM1132 412l46 465h446v-109h-331l-27 -243q61 26 122 26q133 0 198 -68.5t65 -210.5q0 -138 -62 -203q-75 -79 -228 -79q-243 0 -268 198l128 22q25 -111 146 -111q70 0 109.5 45
t39.5 124q0 180 -143 180q-82 0 -141 -55zM578 0l459 1462h154l-459 -1462h-154z" />
    <glyph glyph-name="uni2159" unicode="&#x2159;" horiz-adv-x="1761" 
d="M322 586v743l-158 -62l-37 101l236 94h94v-876h-135zM497 0l459 1462h154l-459 -1462h-154zM1276 541q46 10 77 10q118 0 183 -83q48 -60 48 -196q0 -154 -66 -216q-71 -66 -206 -66q-143 0 -207.5 67t-64.5 215q0 74 14 121.5t57 122.5l210 361h158zM1314 452
q-143 0 -143 -179q0 -180 141 -180t141 180q0 179 -139 179z" />
    <glyph glyph-name="uni215A" unicode="&#x215a;" horiz-adv-x="1761" 
d="M122 998l46 464h446v-109h-331l-27 -243q61 26 122 26q133 0 198 -68.5t65 -209.5q0 -139 -62 -204q-75 -79 -228 -79q-243 0 -268 198l128 22q25 -111 146 -111q70 0 109.5 44.5t39.5 123.5q0 181 -143 181q-82 0 -141 -54zM1327 541q46 10 77 10q118 0 183 -83
q48 -60 48 -196q0 -155 -66 -216q-71 -66 -206 -66q-143 0 -207.5 67t-64.5 216q0 74 14 121t57 122l210 361h158zM1365 452q-143 0 -143 -179q0 -180 141 -180t141 180q0 179 -139 179zM584 0l459 1462h154l-459 -1462h-154z" />
    <glyph glyph-name="oneeighth" unicode="&#x215b;" horiz-adv-x="1761" 
d="M315 586v743l-158 -62l-37 101l236 94h94v-876h-135zM471 0l460 1462h154l-459 -1462h-155zM1141 465q-43 32 -61.5 74.5t-18.5 109.5q0 124 62.5 182t195.5 58t196 -58.5t63 -181.5q0 -67 -17.5 -107t-62.5 -77q57 -31 81.5 -80.5t24.5 -133.5q0 -137 -65 -197
q-72 -66 -220 -66t-216 63t-68 200q0 159 106 214zM1321 791q-137 0 -137 -144q0 -145 136 -145q135 0 135 145q0 144 -134 144zM1321 410q-155 0 -155 -160q0 -159 153 -159q154 0 154 159q0 160 -152 160z" />
    <glyph glyph-name="threeeighths" unicode="&#x215c;" horiz-adv-x="1761" 
d="M259 999v96h91q66 0 111.5 39.5t45.5 97.5q0 59 -37.5 95t-99.5 36q-113 0 -141 -101l-122 15q15 94 63 135q70 60 205 60q267 0 267 -235q0 -71 -25 -113.5t-84 -74.5q133 -65 133 -221q0 -253 -296 -253q-168 0 -242 81q-35 38 -46 117l127 23q26 -112 158 -112
q77 0 120.5 40t43.5 110q0 72 -49 118.5t-125 46.5h-98zM1208 465q-44 33 -62.5 75t-18.5 109q0 124 63 182t196 58t196 -58.5t63 -180.5q0 -67 -17.5 -107t-63.5 -78q57 -31 82 -80.5t25 -133.5q0 -137 -66 -197q-72 -66 -219 -66q-148 0 -216.5 63t-68.5 199
q0 160 107 215zM1388 791q-138 0 -138 -144q0 -145 136 -145t136 145q0 144 -134 144zM1388 410q-156 0 -156 -160q0 -159 154 -159t154 159q0 160 -152 160zM576 0l459 1462h154l-459 -1462h-154z" />
    <glyph glyph-name="fiveeighths" unicode="&#x215d;" horiz-adv-x="1761" 
d="M142 998l46 464h446v-109h-331l-27 -243q61 26 122 26q133 0 198 -68.5t65 -209.5q0 -139 -62 -204q-75 -79 -228 -79q-243 0 -268 198l128 22q25 -111 146 -111q70 0 109.5 44.5t39.5 123.5q0 181 -143 181q-82 0 -141 -54zM1212 465q-44 33 -62.5 75.5t-18.5 108.5
q0 124 63 182t196 58t196 -58.5t63 -181.5q0 -66 -17.5 -106.5t-62.5 -77.5q57 -31 81.5 -80.5t24.5 -133.5q0 -137 -66 -197q-71 -66 -219 -66t-216.5 63t-68.5 199q0 159 107 215zM1392 791q-138 0 -138 -144q0 -145 136 -145t136 145q0 144 -134 144zM1392 410
q-156 0 -156 -160q0 -159 154 -159t154 159q0 160 -152 160zM576 0l459 1462h154l-459 -1462h-154z" />
    <glyph glyph-name="seveneighths" unicode="&#x215e;" horiz-adv-x="1761" 
d="M206 586l296 767h-369v109h517v-79l-297 -797h-147zM1171 465q-44 33 -62.5 75.5t-18.5 108.5q0 124 63 182t196 58t196 -58.5t63 -181.5q0 -67 -17.5 -107t-63.5 -77q57 -31 82 -80.5t25 -133.5q0 -137 -66 -197q-71 -66 -219 -66t-216.5 63t-68.5 199q0 159 107 215z
M1351 791q-138 0 -138 -144q0 -145 136 -145t136 145q0 144 -134 144zM1351 410q-156 0 -156 -160q0 -159 154 -159t154 159q0 160 -152 160zM518 0l459 1462h154l-459 -1462h-154z" />
    <glyph glyph-name="arrowleft" unicode="&#x2190;" horiz-adv-x="1638" 
d="M1504 672h-1176l380 -380l-101 -101l-511 522v62l511 522l101 -102l-380 -380h1176v-143z" />
    <glyph glyph-name="arrowup" unicode="&#x2191;" horiz-adv-x="1638" 
d="M710 0v1243l-379 -378l-101 102l522 511h61l522 -511l-101 -102l-379 378v-1243h-145z" />
    <glyph glyph-name="arrowright" unicode="&#x2192;" horiz-adv-x="1638" 
d="M134 672v143h1176l-381 380l101 102l512 -522v-62l-512 -522l-101 101l380 380h-1175z" />
    <glyph glyph-name="arrowdown" unicode="&#x2193;" horiz-adv-x="1638" 
d="M710 219v1243h145v-1243l379 378l101 -102l-522 -511h-61l-522 511l101 102z" />
    <glyph glyph-name="arrowboth" unicode="&#x2194;" horiz-adv-x="1638" 
d="M1337 672h-1036l347 -346l-101 -102l-478 489v61l478 489l101 -102l-347 -346h1036l-347 346l101 102l479 -489v-61l-479 -489l-101 102z" />
    <glyph glyph-name="arrowupdn" unicode="&#x2195;" horiz-adv-x="1638" 
d="M712 188v1086l-347 -346l-101 102l488 478h62l488 -478l-101 -102l-347 346v-1086l347 347l101 -102l-488 -479h-62l-488 479l101 102z" />
    <glyph glyph-name="uni2196" unicode="&#x2196;" horiz-adv-x="1638" 
d="M1279 193l-841 841v-537h-143v729l53 53h728v-144h-537l841 -840z" />
    <glyph glyph-name="uni2197" unicode="&#x2197;" horiz-adv-x="1638" 
d="M359 193l-101 102l841 840h-537v144h728l53 -53v-729h-143v537z" />
    <glyph glyph-name="uni2198" unicode="&#x2198;" horiz-adv-x="1638" 
d="M358 1289l842 -841v537h143v-729l-53 -53h-728v144h537l-840 840z" />
    <glyph glyph-name="uni2199" unicode="&#x2199;" horiz-adv-x="1638" 
d="M1280 1289l99 -102l-841 -840h538v-144h-728l-53 53v729h143v-537z" />
    <glyph glyph-name="emptyset" unicode="&#x2205;" 
d="M726 1187l187 340l95 -39l-190 -348q191 -143 191 -391q0 -208 -129 -340q-134 -137 -337 -137q-83 0 -175 30l-207 -377l-95 41l208 379q-210 138 -210 404q0 207 129 338q62 64 149.5 101t174.5 37q85 0 209 -38zM676 1086q-102 30 -157 30q-62 0 -127 -27t-111 -73
q-102 -101 -102 -265q0 -98 33 -166.5t112 -137.5zM766 1037l-348 -633q66 -23 128 -23q146 0 246 100q102 102 102 265q0 136 -75 233q-21 27 -53 58z" />
    <glyph glyph-name="minus" unicode="&#x2212;" 
d="M71 677v134h963v-134h-963z" />
    <glyph glyph-name="fraction" unicode="&#x2215;" horiz-adv-x="331" 
d="M-127 0l459 1462h155l-460 -1462h-154z" />
    <glyph glyph-name="uni2218" unicode="&#x2218;" 
d="M553 1090q177 0 281 -128q77 -94 77 -219t-77 -220q-103 -128 -280 -128q-178 0 -282 128q-77 94 -77 223q0 125 77 216q107 128 281 128zM553 1000q-131 0 -207 -95q-56 -69 -56 -160q0 -96 56 -165q75 -95 207 -95t207 95q55 70 55 162q0 96 -55 164q-78 94 -207 94z
" />
    <glyph glyph-name="periodcentered" unicode="&#x2219;" horiz-adv-x="575" 
d="M204 642v203h170v-203h-170z" />
    <glyph glyph-name="similar" unicode="&#x223c;" 
d="M196 611l-106 25q35 114 75 164q73 91 192 91q59 0 104.5 -17.5t120.5 -68.5q70 -48 103.5 -63.5t68.5 -15.5q100 0 158 146l103 -30q-33 -101 -72 -151q-74 -93 -196 -93q-55 0 -99 17.5t-117 67.5q-72 51 -104 65.5t-70 14.5q-105 0 -161 -152z" />
    <glyph glyph-name="uni2243" unicode="&#x2243;" 
d="M87 515v130h906v-130h-906zM183 784l-106 25q35 114 75 164q72 91 192 91q59 0 105 -17.5t120 -68.5q71 -49 104 -64t68 -15q99 0 158 146l103 -30q-32 -99 -72 -151q-73 -93 -196 -93q-56 0 -99 17t-117 68q-72 51 -104 65.5t-71 14.5q-104 0 -160 -152z" />
    <glyph glyph-name="dotmath" unicode="&#x22c5;" horiz-adv-x="575" 
d="M204 642v203h170v-203h-170z" />
    <glyph glyph-name="filledrect" unicode="&#x25ac;" 
d="M232 421v642h642v-642h-642z" />
    <glyph glyph-name="uni25B4" unicode="&#x25b4;" 
d="M165 410l388 775l388 -775h-776z" />
    <glyph glyph-name="uni25B8" unicode="&#x25b8;" 
d="M246 354v777l775 -389z" />
    <glyph glyph-name="uni25BE" unicode="&#x25be;" 
d="M165 1074h776l-388 -775z" />
    <glyph glyph-name="uni25C2" unicode="&#x25c2;" 
d="M860 354l-775 388l775 389v-777z" />
    <glyph glyph-name="openbullet" unicode="&#x25e6;" 
d="M553 1090q177 0 281 -128q77 -94 77 -219t-77 -220q-103 -128 -280 -128q-178 0 -282 128q-77 94 -77 223q0 125 77 216q107 128 281 128zM553 1000q-131 0 -207 -95q-56 -69 -56 -160q0 -96 56 -165q75 -95 207 -95t207 95q55 70 55 162q0 96 -55 164q-78 94 -207 94z
" />
    <glyph glyph-name="Gcircumflex.sc" horiz-adv-x="1116" 
d="M592 460v125h391v-181q0 -113 -19.5 -181t-66.5 -122q-105 -120 -326 -120q-238 0 -342 136q-41 53 -57.5 124t-16.5 188v227q0 130 20.5 207t69.5 132q106 118 316 118q233 0 328 -121q45 -57 57 -170l-153 -11q-15 70 -44 100q-62 67 -184 67q-131 0 -188 -75t-57 -247
v-219q0 -165 51 -237q60 -84 198 -84q251 0 251 258v86h-228zM561 1423l-140 -165h-172l259 273h106l260 -273h-172z" />
    <glyph glyph-name="idotaccent" horiz-adv-x="522" 
d="M180 1252v217h163v-217h-163zM180 0v1029h163v-1029h-163z" />
    <glyph glyph-name="one.fitted" horiz-adv-x="697" 
d="M292 0v1282l-252 -111l-53 135l358 156h117v-1462h-170z" />
    <glyph glyph-name="two.fitted" horiz-adv-x="1014" 
d="M59 0v113l404 527q115 149 168.5 265.5t53.5 218.5q0 214 -218 214q-97 0 -159 -55.5t-87 -163.5l-154 14q13 133 94 227q104 121 314 121q215 0 310 -126q70 -92 70 -238q0 -134 -56 -253t-223 -338l-293 -383h582v-143h-806z" />
    <glyph glyph-name="three.fitted" horiz-adv-x="994" 
d="M272 702v137h123q120 0 194 69.5t74 181.5q0 101 -46 166q-59 82 -181 82q-89 0 -149 -46t-78 -129l-152 13q17 129 90 202q102 102 296 102q202 0 300 -110q90 -101 90 -276q0 -121 -43.5 -194t-147.5 -128q82 -38 120 -76q108 -107 108 -297q0 -179 -90 -287
q-108 -130 -345 -130q-243 0 -352 136q-54 67 -68 178l162 19q38 -190 254 -190q138 0 205 80q64 78 64 199q0 170 -125 250q-75 48 -170 48h-133z" />
    <glyph glyph-name="four.fitted" horiz-adv-x="1098" 
d="M688 0v271h-595v106l469 1085h179l-454 -1050h401v448h155v-448h145v-142h-145v-270h-155z" />
    <glyph glyph-name="five.fitted" horiz-adv-x="1082" 
d="M160 705l69 757h660v-143h-519l-48 -466q97 57 219 57q100 0 183 -37.5t132 -103.5q77 -105 77 -323q0 -225 -94 -332q-115 -132 -341 -132q-177 0 -280 80.5t-121 232.5l161 20q18 -92 81 -141t163 -49q127 0 194 80t67 231q0 159 -52 241q-58 93 -197 93
q-130 0 -231 -91z" />
    <glyph glyph-name="six.fitted" horiz-adv-x="1093" 
d="M446 869q58 36 152 36q188 0 288 -138q73 -101 73 -320q0 -252 -99 -353q-108 -112 -307 -112q-220 0 -326 132q-80 100 -80 332q0 118 22 199.5t87 203.5l327 613h190zM556 769q-124 0 -181.5 -77t-57.5 -245q0 -162 54 -239q58 -83 182 -83q121 0 178.5 78t57.5 244
q0 163 -54 239q-58 83 -179 83z" />
    <glyph glyph-name="seven.fitted" horiz-adv-x="810" 
d="M111 0l433 1319h-559v143h737v-103l-430 -1359h-181z" />
    <glyph glyph-name="eight.fitted" horiz-adv-x="1127" 
d="M319 774q-53 39 -79 74q-63 84 -63 241q0 203 95 296q99 96 291 96q197 0 292 -96.5t95 -295.5q0 -118 -31 -187t-112 -128q97 -47 140 -132.5t43 -230.5q0 -220 -99 -319q-111 -111 -328 -111q-219 0 -323 105t-104 325q0 145 43 230t140 133zM566 1346
q-117 0 -172 -61.5t-55 -194.5t54.5 -195.5t169.5 -62.5q116 0 170.5 62.5t54.5 194.5q0 257 -222 257zM566 697q-135 0 -197.5 -69t-62.5 -218q0 -146 59 -213q64 -73 198 -73q133 0 195 69t62 217q0 146 -59 213q-64 74 -195 74z" />
    <glyph glyph-name="nine.fitted" horiz-adv-x="1093" 
d="M651 641q-84 -24 -157 -24q-148 0 -241 77q-63 53 -91 135t-28 215q0 234 100 334q103 102 308 102q217 0 322 -123q82 -97 82 -308q0 -111 -16 -178.5t-67 -168.5l-353 -702h-190zM543 1338q-239 0 -239 -294t236 -294t236 294t-233 294z" />
    </font>
</defs>
</svg>
